G04 #@! TF.FileFunction,Legend,Top*
%FSLAX46Y46*%
G04 Gerber Fmt 4.6, Leading zero omitted, Abs format (unit mm)*
G04 Created by KiCad (PCBNEW (after 2015-mar-04 BZR unknown)-product) date 20/07/2015 3:05:55 PM*
%MOMM*%
G01*
G04 APERTURE LIST*
%ADD10C,0.100000*%
%ADD11C,0.200000*%
%ADD12C,0.125000*%
%ADD13C,0.075000*%
%ADD14C,0.150000*%
G04 APERTURE END LIST*
D10*
D11*
X140500000Y-132000000D02*
X140500000Y-132200000D01*
X141000000Y-132500000D02*
X140500000Y-132000000D01*
X141300000Y-132500000D02*
X141000000Y-132500000D01*
X140600000Y-131800000D02*
X141300000Y-132500000D01*
X139800000Y-132600000D02*
X140600000Y-131800000D01*
X139600000Y-132600000D02*
X139800000Y-132600000D01*
X140000000Y-132400000D02*
X139800000Y-132600000D01*
X140400000Y-132400000D02*
X140000000Y-132400000D01*
X140800000Y-132400000D02*
X140400000Y-132400000D01*
X140500000Y-132100000D02*
X140800000Y-132400000D01*
X140100000Y-132500000D02*
X140500000Y-132100000D01*
X141200000Y-132500000D02*
X140100000Y-132500000D01*
X140500000Y-131800000D02*
X141200000Y-132500000D01*
X139700000Y-132600000D02*
X140500000Y-131800000D01*
X141600000Y-132600000D02*
X139700000Y-132600000D01*
X140600000Y-131600000D02*
X141600000Y-132600000D01*
X139600000Y-132600000D02*
X140600000Y-131600000D01*
D12*
X148330955Y-158126190D02*
X148330955Y-157626190D01*
X148330955Y-157816667D02*
X148378574Y-157792857D01*
X148473812Y-157792857D01*
X148521431Y-157816667D01*
X148545240Y-157840476D01*
X148569050Y-157888095D01*
X148569050Y-158030952D01*
X148545240Y-158078571D01*
X148521431Y-158102381D01*
X148473812Y-158126190D01*
X148378574Y-158126190D01*
X148330955Y-158102381D01*
X148735717Y-157792857D02*
X148854764Y-158126190D01*
X148973812Y-157792857D02*
X148854764Y-158126190D01*
X148807145Y-158245238D01*
X148783336Y-158269048D01*
X148735717Y-158292857D01*
X149521430Y-158102381D02*
X149592859Y-158126190D01*
X149711906Y-158126190D01*
X149759525Y-158102381D01*
X149783335Y-158078571D01*
X149807144Y-158030952D01*
X149807144Y-157983333D01*
X149783335Y-157935714D01*
X149759525Y-157911905D01*
X149711906Y-157888095D01*
X149616668Y-157864286D01*
X149569049Y-157840476D01*
X149545240Y-157816667D01*
X149521430Y-157769048D01*
X149521430Y-157721429D01*
X149545240Y-157673810D01*
X149569049Y-157650000D01*
X149616668Y-157626190D01*
X149735716Y-157626190D01*
X149807144Y-157650000D01*
X150021430Y-158078571D02*
X150045239Y-158102381D01*
X150021430Y-158126190D01*
X149997620Y-158102381D01*
X150021430Y-158078571D01*
X150021430Y-158126190D01*
X150235715Y-157983333D02*
X150473810Y-157983333D01*
X150188096Y-158126190D02*
X150354763Y-157626190D01*
X150521429Y-158126190D01*
X150688096Y-157792857D02*
X150688096Y-158126190D01*
X150688096Y-157840476D02*
X150711905Y-157816667D01*
X150759524Y-157792857D01*
X150830953Y-157792857D01*
X150878572Y-157816667D01*
X150902381Y-157864286D01*
X150902381Y-158126190D01*
X151069048Y-157792857D02*
X151259524Y-157792857D01*
X151140477Y-157626190D02*
X151140477Y-158054762D01*
X151164286Y-158102381D01*
X151211905Y-158126190D01*
X151259524Y-158126190D01*
X151497619Y-158126190D02*
X151450000Y-158102381D01*
X151426191Y-158078571D01*
X151402381Y-158030952D01*
X151402381Y-157888095D01*
X151426191Y-157840476D01*
X151450000Y-157816667D01*
X151497619Y-157792857D01*
X151569048Y-157792857D01*
X151616667Y-157816667D01*
X151640476Y-157840476D01*
X151664286Y-157888095D01*
X151664286Y-158030952D01*
X151640476Y-158078571D01*
X151616667Y-158102381D01*
X151569048Y-158126190D01*
X151497619Y-158126190D01*
X151878572Y-157792857D02*
X151878572Y-158126190D01*
X151878572Y-157840476D02*
X151902381Y-157816667D01*
X151950000Y-157792857D01*
X152021429Y-157792857D01*
X152069048Y-157816667D01*
X152092857Y-157864286D01*
X152092857Y-158126190D01*
X152330953Y-158126190D02*
X152330953Y-157792857D01*
X152330953Y-157626190D02*
X152307143Y-157650000D01*
X152330953Y-157673810D01*
X152354762Y-157650000D01*
X152330953Y-157626190D01*
X152330953Y-157673810D01*
X152640476Y-158126190D02*
X152592857Y-158102381D01*
X152569048Y-158078571D01*
X152545238Y-158030952D01*
X152545238Y-157888095D01*
X152569048Y-157840476D01*
X152592857Y-157816667D01*
X152640476Y-157792857D01*
X152711905Y-157792857D01*
X152759524Y-157816667D01*
X152783333Y-157840476D01*
X152807143Y-157888095D01*
X152807143Y-158030952D01*
X152783333Y-158078571D01*
X152759524Y-158102381D01*
X152711905Y-158126190D01*
X152640476Y-158126190D01*
X153378571Y-157673810D02*
X153402381Y-157650000D01*
X153450000Y-157626190D01*
X153569047Y-157626190D01*
X153616666Y-157650000D01*
X153640476Y-157673810D01*
X153664285Y-157721429D01*
X153664285Y-157769048D01*
X153640476Y-157840476D01*
X153354762Y-158126190D01*
X153664285Y-158126190D01*
X153973809Y-157626190D02*
X154021428Y-157626190D01*
X154069047Y-157650000D01*
X154092856Y-157673810D01*
X154116666Y-157721429D01*
X154140475Y-157816667D01*
X154140475Y-157935714D01*
X154116666Y-158030952D01*
X154092856Y-158078571D01*
X154069047Y-158102381D01*
X154021428Y-158126190D01*
X153973809Y-158126190D01*
X153926190Y-158102381D01*
X153902380Y-158078571D01*
X153878571Y-158030952D01*
X153854761Y-157935714D01*
X153854761Y-157816667D01*
X153878571Y-157721429D01*
X153902380Y-157673810D01*
X153926190Y-157650000D01*
X153973809Y-157626190D01*
X154616665Y-158126190D02*
X154330951Y-158126190D01*
X154473808Y-158126190D02*
X154473808Y-157626190D01*
X154426189Y-157697619D01*
X154378570Y-157745238D01*
X154330951Y-157769048D01*
X155069046Y-157626190D02*
X154830951Y-157626190D01*
X154807141Y-157864286D01*
X154830951Y-157840476D01*
X154878570Y-157816667D01*
X154997617Y-157816667D01*
X155045236Y-157840476D01*
X155069046Y-157864286D01*
X155092855Y-157911905D01*
X155092855Y-158030952D01*
X155069046Y-158078571D01*
X155045236Y-158102381D01*
X154997617Y-158126190D01*
X154878570Y-158126190D01*
X154830951Y-158102381D01*
X154807141Y-158078571D01*
D11*
X143352381Y-151461905D02*
X143809524Y-151461905D01*
X143580953Y-152261905D02*
X143580953Y-151461905D01*
X144000001Y-151728571D02*
X144152382Y-152261905D01*
X144304763Y-151880952D01*
X144457144Y-152261905D01*
X144609525Y-151728571D01*
X144914286Y-152261905D02*
X144914286Y-151728571D01*
X144914286Y-151461905D02*
X144876191Y-151500000D01*
X144914286Y-151538095D01*
X144952381Y-151500000D01*
X144914286Y-151461905D01*
X144914286Y-151538095D01*
X145257143Y-152223810D02*
X145333333Y-152261905D01*
X145485714Y-152261905D01*
X145561905Y-152223810D01*
X145600000Y-152147619D01*
X145600000Y-152109524D01*
X145561905Y-152033333D01*
X145485714Y-151995238D01*
X145371429Y-151995238D01*
X145295238Y-151957143D01*
X145257143Y-151880952D01*
X145257143Y-151842857D01*
X145295238Y-151766667D01*
X145371429Y-151728571D01*
X145485714Y-151728571D01*
X145561905Y-151766667D01*
X145828571Y-151728571D02*
X146133333Y-151728571D01*
X145942857Y-151461905D02*
X145942857Y-152147619D01*
X145980952Y-152223810D01*
X146057143Y-152261905D01*
X146133333Y-152261905D01*
X146323810Y-151461905D02*
X146819048Y-151461905D01*
X146552381Y-151766667D01*
X146666667Y-151766667D01*
X146742857Y-151804762D01*
X146780953Y-151842857D01*
X146819048Y-151919048D01*
X146819048Y-152109524D01*
X146780953Y-152185714D01*
X146742857Y-152223810D01*
X146666667Y-152261905D01*
X146438095Y-152261905D01*
X146361905Y-152223810D01*
X146323810Y-152185714D01*
X147123810Y-151538095D02*
X147161905Y-151500000D01*
X147238096Y-151461905D01*
X147428572Y-151461905D01*
X147504762Y-151500000D01*
X147542858Y-151538095D01*
X147580953Y-151614286D01*
X147580953Y-151690476D01*
X147542858Y-151804762D01*
X147085715Y-152261905D01*
X147580953Y-152261905D01*
X147923810Y-151957143D02*
X148533334Y-151957143D01*
X148228572Y-152261905D02*
X148228572Y-151652381D01*
X134041421Y-140500000D02*
G75*
G03X134041421Y-140500000I-141421J0D01*
G01*
D12*
X155809524Y-134635714D02*
X156190476Y-134635714D01*
X156000000Y-134826190D02*
X156000000Y-134445238D01*
X155009524Y-135135714D02*
X155390476Y-135135714D01*
X155200000Y-135326190D02*
X155200000Y-134945238D01*
D13*
X156364286Y-137621429D02*
X156407143Y-137635714D01*
X156478572Y-137635714D01*
X156507143Y-137621429D01*
X156521429Y-137607143D01*
X156535714Y-137578571D01*
X156535714Y-137550000D01*
X156521429Y-137521429D01*
X156507143Y-137507143D01*
X156478572Y-137492857D01*
X156421429Y-137478571D01*
X156392857Y-137464286D01*
X156378572Y-137450000D01*
X156364286Y-137421429D01*
X156364286Y-137392857D01*
X156378572Y-137364286D01*
X156392857Y-137350000D01*
X156421429Y-137335714D01*
X156492857Y-137335714D01*
X156535714Y-137350000D01*
X156635714Y-137335714D02*
X156707143Y-137635714D01*
X156764286Y-137421429D01*
X156821428Y-137635714D01*
X156892857Y-137335714D01*
X157007143Y-137635714D02*
X157007143Y-137335714D01*
X157078571Y-137335714D01*
X157121428Y-137350000D01*
X157150000Y-137378571D01*
X157164285Y-137407143D01*
X157178571Y-137464286D01*
X157178571Y-137507143D01*
X157164285Y-137564286D01*
X157150000Y-137592857D01*
X157121428Y-137621429D01*
X157078571Y-137635714D01*
X157007143Y-137635714D01*
X157307143Y-137635714D02*
X157307143Y-137335714D01*
X157507142Y-137335714D02*
X157564285Y-137335714D01*
X157592857Y-137350000D01*
X157621428Y-137378571D01*
X157635714Y-137435714D01*
X157635714Y-137535714D01*
X157621428Y-137592857D01*
X157592857Y-137621429D01*
X157564285Y-137635714D01*
X157507142Y-137635714D01*
X157478571Y-137621429D01*
X157450000Y-137592857D01*
X157435714Y-137535714D01*
X157435714Y-137435714D01*
X157450000Y-137378571D01*
X157478571Y-137350000D01*
X157507142Y-137335714D01*
D12*
X156161906Y-140226190D02*
X156471429Y-140226190D01*
X156304763Y-140416667D01*
X156376191Y-140416667D01*
X156423810Y-140440476D01*
X156447620Y-140464286D01*
X156471429Y-140511905D01*
X156471429Y-140630952D01*
X156447620Y-140678571D01*
X156423810Y-140702381D01*
X156376191Y-140726190D01*
X156233334Y-140726190D01*
X156185715Y-140702381D01*
X156161906Y-140678571D01*
X156685715Y-140678571D02*
X156709524Y-140702381D01*
X156685715Y-140726190D01*
X156661905Y-140702381D01*
X156685715Y-140678571D01*
X156685715Y-140726190D01*
X156876191Y-140226190D02*
X157185714Y-140226190D01*
X157019048Y-140416667D01*
X157090476Y-140416667D01*
X157138095Y-140440476D01*
X157161905Y-140464286D01*
X157185714Y-140511905D01*
X157185714Y-140630952D01*
X157161905Y-140678571D01*
X157138095Y-140702381D01*
X157090476Y-140726190D01*
X156947619Y-140726190D01*
X156900000Y-140702381D01*
X156876191Y-140678571D01*
X157328571Y-140226190D02*
X157495238Y-140726190D01*
X157661904Y-140226190D01*
X156619047Y-141250000D02*
X156571428Y-141226190D01*
X156500000Y-141226190D01*
X156428571Y-141250000D01*
X156380952Y-141297619D01*
X156357143Y-141345238D01*
X156333333Y-141440476D01*
X156333333Y-141511905D01*
X156357143Y-141607143D01*
X156380952Y-141654762D01*
X156428571Y-141702381D01*
X156500000Y-141726190D01*
X156547619Y-141726190D01*
X156619047Y-141702381D01*
X156642857Y-141678571D01*
X156642857Y-141511905D01*
X156547619Y-141511905D01*
X156857143Y-141726190D02*
X156857143Y-141226190D01*
X157142857Y-141726190D01*
X157142857Y-141226190D01*
X157380953Y-141726190D02*
X157380953Y-141226190D01*
X157500000Y-141226190D01*
X157571429Y-141250000D01*
X157619048Y-141297619D01*
X157642857Y-141345238D01*
X157666667Y-141440476D01*
X157666667Y-141511905D01*
X157642857Y-141607143D01*
X157619048Y-141654762D01*
X157571429Y-141702381D01*
X157500000Y-141726190D01*
X157380953Y-141726190D01*
D13*
X155971429Y-138621429D02*
X156014286Y-138635714D01*
X156085715Y-138635714D01*
X156114286Y-138621429D01*
X156128572Y-138607143D01*
X156142857Y-138578571D01*
X156142857Y-138550000D01*
X156128572Y-138521429D01*
X156114286Y-138507143D01*
X156085715Y-138492857D01*
X156028572Y-138478571D01*
X156000000Y-138464286D01*
X155985715Y-138450000D01*
X155971429Y-138421429D01*
X155971429Y-138392857D01*
X155985715Y-138364286D01*
X156000000Y-138350000D01*
X156028572Y-138335714D01*
X156100000Y-138335714D01*
X156142857Y-138350000D01*
X156242857Y-138335714D02*
X156314286Y-138635714D01*
X156371429Y-138421429D01*
X156428571Y-138635714D01*
X156500000Y-138335714D01*
X156614286Y-138635714D02*
X156614286Y-138335714D01*
X156685714Y-138335714D01*
X156728571Y-138350000D01*
X156757143Y-138378571D01*
X156771428Y-138407143D01*
X156785714Y-138464286D01*
X156785714Y-138507143D01*
X156771428Y-138564286D01*
X156757143Y-138592857D01*
X156728571Y-138621429D01*
X156685714Y-138635714D01*
X156614286Y-138635714D01*
X157085714Y-138607143D02*
X157071428Y-138621429D01*
X157028571Y-138635714D01*
X157000000Y-138635714D01*
X156957143Y-138621429D01*
X156928571Y-138592857D01*
X156914286Y-138564286D01*
X156900000Y-138507143D01*
X156900000Y-138464286D01*
X156914286Y-138407143D01*
X156928571Y-138378571D01*
X156957143Y-138350000D01*
X157000000Y-138335714D01*
X157028571Y-138335714D01*
X157071428Y-138350000D01*
X157085714Y-138364286D01*
X157357143Y-138635714D02*
X157214286Y-138635714D01*
X157214286Y-138335714D01*
X157457143Y-138635714D02*
X157457143Y-138335714D01*
X157628571Y-138635714D02*
X157500000Y-138464286D01*
X157628571Y-138335714D02*
X157457143Y-138507143D01*
D12*
X156626191Y-139726190D02*
X156459524Y-139488095D01*
X156340477Y-139726190D02*
X156340477Y-139226190D01*
X156530953Y-139226190D01*
X156578572Y-139250000D01*
X156602381Y-139273810D01*
X156626191Y-139321429D01*
X156626191Y-139392857D01*
X156602381Y-139440476D01*
X156578572Y-139464286D01*
X156530953Y-139488095D01*
X156340477Y-139488095D01*
X156816667Y-139702381D02*
X156888096Y-139726190D01*
X157007143Y-139726190D01*
X157054762Y-139702381D01*
X157078572Y-139678571D01*
X157102381Y-139630952D01*
X157102381Y-139583333D01*
X157078572Y-139535714D01*
X157054762Y-139511905D01*
X157007143Y-139488095D01*
X156911905Y-139464286D01*
X156864286Y-139440476D01*
X156840477Y-139416667D01*
X156816667Y-139369048D01*
X156816667Y-139321429D01*
X156840477Y-139273810D01*
X156864286Y-139250000D01*
X156911905Y-139226190D01*
X157030953Y-139226190D01*
X157102381Y-139250000D01*
X157245238Y-139226190D02*
X157530952Y-139226190D01*
X157388095Y-139726190D02*
X157388095Y-139226190D01*
X157016667Y-147226190D02*
X156850000Y-146988095D01*
X156730953Y-147226190D02*
X156730953Y-146726190D01*
X156921429Y-146726190D01*
X156969048Y-146750000D01*
X156992857Y-146773810D01*
X157016667Y-146821429D01*
X157016667Y-146892857D01*
X156992857Y-146940476D01*
X156969048Y-146964286D01*
X156921429Y-146988095D01*
X156730953Y-146988095D01*
X157183334Y-146726190D02*
X157516667Y-147226190D01*
X157516667Y-146726190D02*
X157183334Y-147226190D01*
X156819048Y-145726190D02*
X157104762Y-145726190D01*
X156961905Y-146226190D02*
X156961905Y-145726190D01*
X157223810Y-145726190D02*
X157557143Y-146226190D01*
X157557143Y-145726190D02*
X157223810Y-146226190D01*
X157009524Y-148035714D02*
X157390476Y-148035714D01*
X157200000Y-148226190D02*
X157200000Y-147845238D01*
X156519047Y-148750000D02*
X156471428Y-148726190D01*
X156400000Y-148726190D01*
X156328571Y-148750000D01*
X156280952Y-148797619D01*
X156257143Y-148845238D01*
X156233333Y-148940476D01*
X156233333Y-149011905D01*
X156257143Y-149107143D01*
X156280952Y-149154762D01*
X156328571Y-149202381D01*
X156400000Y-149226190D01*
X156447619Y-149226190D01*
X156519047Y-149202381D01*
X156542857Y-149178571D01*
X156542857Y-149011905D01*
X156447619Y-149011905D01*
X156757143Y-149226190D02*
X156757143Y-148726190D01*
X157042857Y-149226190D01*
X157042857Y-148726190D01*
X157280953Y-149226190D02*
X157280953Y-148726190D01*
X157400000Y-148726190D01*
X157471429Y-148750000D01*
X157519048Y-148797619D01*
X157542857Y-148845238D01*
X157566667Y-148940476D01*
X157566667Y-149011905D01*
X157542857Y-149107143D01*
X157519048Y-149154762D01*
X157471429Y-149202381D01*
X157400000Y-149226190D01*
X157280953Y-149226190D01*
X156619047Y-156250000D02*
X156571428Y-156226190D01*
X156500000Y-156226190D01*
X156428571Y-156250000D01*
X156380952Y-156297619D01*
X156357143Y-156345238D01*
X156333333Y-156440476D01*
X156333333Y-156511905D01*
X156357143Y-156607143D01*
X156380952Y-156654762D01*
X156428571Y-156702381D01*
X156500000Y-156726190D01*
X156547619Y-156726190D01*
X156619047Y-156702381D01*
X156642857Y-156678571D01*
X156642857Y-156511905D01*
X156547619Y-156511905D01*
X156857143Y-156726190D02*
X156857143Y-156226190D01*
X157142857Y-156726190D01*
X157142857Y-156226190D01*
X157380953Y-156726190D02*
X157380953Y-156226190D01*
X157500000Y-156226190D01*
X157571429Y-156250000D01*
X157619048Y-156297619D01*
X157642857Y-156345238D01*
X157666667Y-156440476D01*
X157666667Y-156511905D01*
X157642857Y-156607143D01*
X157619048Y-156654762D01*
X157571429Y-156702381D01*
X157500000Y-156726190D01*
X157380953Y-156726190D01*
X156909524Y-155535714D02*
X157290476Y-155535714D01*
X157100000Y-155726190D02*
X157100000Y-155345238D01*
X156492858Y-153702381D02*
X156564287Y-153726190D01*
X156683334Y-153726190D01*
X156730953Y-153702381D01*
X156754763Y-153678571D01*
X156778572Y-153630952D01*
X156778572Y-153583333D01*
X156754763Y-153535714D01*
X156730953Y-153511905D01*
X156683334Y-153488095D01*
X156588096Y-153464286D01*
X156540477Y-153440476D01*
X156516668Y-153416667D01*
X156492858Y-153369048D01*
X156492858Y-153321429D01*
X156516668Y-153273810D01*
X156540477Y-153250000D01*
X156588096Y-153226190D01*
X156707144Y-153226190D01*
X156778572Y-153250000D01*
X156992858Y-153726190D02*
X156992858Y-153226190D01*
X157111905Y-153226190D01*
X157183334Y-153250000D01*
X157230953Y-153297619D01*
X157254762Y-153345238D01*
X157278572Y-153440476D01*
X157278572Y-153511905D01*
X157254762Y-153607143D01*
X157230953Y-153654762D01*
X157183334Y-153702381D01*
X157111905Y-153726190D01*
X156992858Y-153726190D01*
X157469048Y-153583333D02*
X157707143Y-153583333D01*
X157421429Y-153726190D02*
X157588096Y-153226190D01*
X157754762Y-153726190D01*
X139995238Y-157526190D02*
X139900000Y-157526190D01*
X139852381Y-157550000D01*
X139828572Y-157573810D01*
X139780953Y-157645238D01*
X139757143Y-157740476D01*
X139757143Y-157930952D01*
X139780953Y-157978571D01*
X139804762Y-158002381D01*
X139852381Y-158026190D01*
X139947619Y-158026190D01*
X139995238Y-158002381D01*
X140019048Y-157978571D01*
X140042857Y-157930952D01*
X140042857Y-157811905D01*
X140019048Y-157764286D01*
X139995238Y-157740476D01*
X139947619Y-157716667D01*
X139852381Y-157716667D01*
X139804762Y-157740476D01*
X139780953Y-157764286D01*
X139757143Y-157811905D01*
X139119048Y-157526190D02*
X138880953Y-157526190D01*
X138857143Y-157764286D01*
X138880953Y-157740476D01*
X138928572Y-157716667D01*
X139047619Y-157716667D01*
X139095238Y-157740476D01*
X139119048Y-157764286D01*
X139142857Y-157811905D01*
X139142857Y-157930952D01*
X139119048Y-157978571D01*
X139095238Y-158002381D01*
X139047619Y-158026190D01*
X138928572Y-158026190D01*
X138880953Y-158002381D01*
X138857143Y-157978571D01*
X143750000Y-157780953D02*
X143726190Y-157828572D01*
X143726190Y-157900000D01*
X143750000Y-157971429D01*
X143797619Y-158019048D01*
X143845238Y-158042857D01*
X143940476Y-158066667D01*
X144011905Y-158066667D01*
X144107143Y-158042857D01*
X144154762Y-158019048D01*
X144202381Y-157971429D01*
X144226190Y-157900000D01*
X144226190Y-157852381D01*
X144202381Y-157780953D01*
X144178571Y-157757143D01*
X144011905Y-157757143D01*
X144011905Y-157852381D01*
X144226190Y-157542857D02*
X143726190Y-157542857D01*
X144226190Y-157257143D01*
X143726190Y-157257143D01*
X144226190Y-157019047D02*
X143726190Y-157019047D01*
X143726190Y-156900000D01*
X143750000Y-156828571D01*
X143797619Y-156780952D01*
X143845238Y-156757143D01*
X143940476Y-156733333D01*
X144011905Y-156733333D01*
X144107143Y-156757143D01*
X144154762Y-156780952D01*
X144202381Y-156828571D01*
X144226190Y-156900000D01*
X144226190Y-157019047D01*
X135857143Y-157573810D02*
X135880953Y-157550000D01*
X135928572Y-157526190D01*
X136047619Y-157526190D01*
X136095238Y-157550000D01*
X136119048Y-157573810D01*
X136142857Y-157621429D01*
X136142857Y-157669048D01*
X136119048Y-157740476D01*
X135833334Y-158026190D01*
X136142857Y-158026190D01*
X135142857Y-158126190D02*
X134857143Y-158126190D01*
X135000000Y-158126190D02*
X135000000Y-157626190D01*
X134952381Y-157697619D01*
X134904762Y-157745238D01*
X134857143Y-157769048D01*
X140833334Y-157526190D02*
X141166667Y-157526190D01*
X140952381Y-158026190D01*
X141952381Y-157740476D02*
X141904762Y-157716667D01*
X141880953Y-157692857D01*
X141857143Y-157645238D01*
X141857143Y-157621429D01*
X141880953Y-157573810D01*
X141904762Y-157550000D01*
X141952381Y-157526190D01*
X142047619Y-157526190D01*
X142095238Y-157550000D01*
X142119048Y-157573810D01*
X142142857Y-157621429D01*
X142142857Y-157645238D01*
X142119048Y-157692857D01*
X142095238Y-157716667D01*
X142047619Y-157740476D01*
X141952381Y-157740476D01*
X141904762Y-157764286D01*
X141880953Y-157788095D01*
X141857143Y-157835714D01*
X141857143Y-157930952D01*
X141880953Y-157978571D01*
X141904762Y-158002381D01*
X141952381Y-158026190D01*
X142047619Y-158026190D01*
X142095238Y-158002381D01*
X142119048Y-157978571D01*
X142142857Y-157930952D01*
X142142857Y-157835714D01*
X142119048Y-157788095D01*
X142095238Y-157764286D01*
X142047619Y-157740476D01*
X142809524Y-157835714D02*
X143190476Y-157835714D01*
X143000000Y-158026190D02*
X143000000Y-157645238D01*
X156504762Y-154702381D02*
X156576191Y-154726190D01*
X156695238Y-154726190D01*
X156742857Y-154702381D01*
X156766667Y-154678571D01*
X156790476Y-154630952D01*
X156790476Y-154583333D01*
X156766667Y-154535714D01*
X156742857Y-154511905D01*
X156695238Y-154488095D01*
X156600000Y-154464286D01*
X156552381Y-154440476D01*
X156528572Y-154416667D01*
X156504762Y-154369048D01*
X156504762Y-154321429D01*
X156528572Y-154273810D01*
X156552381Y-154250000D01*
X156600000Y-154226190D01*
X156719048Y-154226190D01*
X156790476Y-154250000D01*
X157290476Y-154678571D02*
X157266666Y-154702381D01*
X157195238Y-154726190D01*
X157147619Y-154726190D01*
X157076190Y-154702381D01*
X157028571Y-154654762D01*
X157004762Y-154607143D01*
X156980952Y-154511905D01*
X156980952Y-154440476D01*
X157004762Y-154345238D01*
X157028571Y-154297619D01*
X157076190Y-154250000D01*
X157147619Y-154226190D01*
X157195238Y-154226190D01*
X157266666Y-154250000D01*
X157290476Y-154273810D01*
X157742857Y-154726190D02*
X157504762Y-154726190D01*
X157504762Y-154226190D01*
X137995238Y-157692857D02*
X137995238Y-158026190D01*
X137876191Y-157502381D02*
X137757143Y-157859524D01*
X138066667Y-157859524D01*
X136833334Y-157526190D02*
X137142857Y-157526190D01*
X136976191Y-157716667D01*
X137047619Y-157716667D01*
X137095238Y-157740476D01*
X137119048Y-157764286D01*
X137142857Y-157811905D01*
X137142857Y-157930952D01*
X137119048Y-157978571D01*
X137095238Y-158002381D01*
X137047619Y-158026190D01*
X136904762Y-158026190D01*
X136857143Y-158002381D01*
X136833334Y-157978571D01*
X151919047Y-128150000D02*
X151871428Y-128126190D01*
X151800000Y-128126190D01*
X151728571Y-128150000D01*
X151680952Y-128197619D01*
X151657143Y-128245238D01*
X151633333Y-128340476D01*
X151633333Y-128411905D01*
X151657143Y-128507143D01*
X151680952Y-128554762D01*
X151728571Y-128602381D01*
X151800000Y-128626190D01*
X151847619Y-128626190D01*
X151919047Y-128602381D01*
X151942857Y-128578571D01*
X151942857Y-128411905D01*
X151847619Y-128411905D01*
X152157143Y-128626190D02*
X152157143Y-128126190D01*
X152442857Y-128626190D01*
X152442857Y-128126190D01*
X152680953Y-128626190D02*
X152680953Y-128126190D01*
X152800000Y-128126190D01*
X152871429Y-128150000D01*
X152919048Y-128197619D01*
X152942857Y-128245238D01*
X152966667Y-128340476D01*
X152966667Y-128411905D01*
X152942857Y-128507143D01*
X152919048Y-128554762D01*
X152871429Y-128602381D01*
X152800000Y-128626190D01*
X152680953Y-128626190D01*
X149509524Y-128435714D02*
X149890476Y-128435714D01*
X149700000Y-128626190D02*
X149700000Y-128245238D01*
X139695238Y-128392857D02*
X139695238Y-128726190D01*
X139576191Y-128202381D02*
X139457143Y-128559524D01*
X139766667Y-128559524D01*
X137219048Y-128226190D02*
X136980953Y-128226190D01*
X136957143Y-128464286D01*
X136980953Y-128440476D01*
X137028572Y-128416667D01*
X137147619Y-128416667D01*
X137195238Y-128440476D01*
X137219048Y-128464286D01*
X137242857Y-128511905D01*
X137242857Y-128630952D01*
X137219048Y-128678571D01*
X137195238Y-128702381D01*
X137147619Y-128726190D01*
X137028572Y-128726190D01*
X136980953Y-128702381D01*
X136957143Y-128678571D01*
X134595238Y-128226190D02*
X134500000Y-128226190D01*
X134452381Y-128250000D01*
X134428572Y-128273810D01*
X134380953Y-128345238D01*
X134357143Y-128440476D01*
X134357143Y-128630952D01*
X134380953Y-128678571D01*
X134404762Y-128702381D01*
X134452381Y-128726190D01*
X134547619Y-128726190D01*
X134595238Y-128702381D01*
X134619048Y-128678571D01*
X134642857Y-128630952D01*
X134642857Y-128511905D01*
X134619048Y-128464286D01*
X134595238Y-128440476D01*
X134547619Y-128416667D01*
X134452381Y-128416667D01*
X134404762Y-128440476D01*
X134380953Y-128464286D01*
X134357143Y-128511905D01*
X141933334Y-128226190D02*
X142242857Y-128226190D01*
X142076191Y-128416667D01*
X142147619Y-128416667D01*
X142195238Y-128440476D01*
X142219048Y-128464286D01*
X142242857Y-128511905D01*
X142242857Y-128630952D01*
X142219048Y-128678571D01*
X142195238Y-128702381D01*
X142147619Y-128726190D01*
X142004762Y-128726190D01*
X141957143Y-128702381D01*
X141933334Y-128678571D01*
X144457143Y-128273810D02*
X144480953Y-128250000D01*
X144528572Y-128226190D01*
X144647619Y-128226190D01*
X144695238Y-128250000D01*
X144719048Y-128273810D01*
X144742857Y-128321429D01*
X144742857Y-128369048D01*
X144719048Y-128440476D01*
X144433334Y-128726190D01*
X144742857Y-128726190D01*
X147242857Y-128626190D02*
X146957143Y-128626190D01*
X147100000Y-128626190D02*
X147100000Y-128126190D01*
X147052381Y-128197619D01*
X147004762Y-128245238D01*
X146957143Y-128269048D01*
D14*
X146000000Y-131250000D02*
X146000000Y-128750000D01*
X146000000Y-128750000D02*
X153500000Y-128750000D01*
X153500000Y-128750000D02*
X153500000Y-131250000D01*
X153500000Y-131250000D02*
X146000000Y-131250000D01*
X154500000Y-129000000D02*
X158500000Y-129000000D01*
X158500000Y-129000000D02*
X158500000Y-134000000D01*
X158500000Y-134000000D02*
X154500000Y-134000000D01*
X154500000Y-134000000D02*
X154500000Y-129000000D01*
X163000000Y-152000000D02*
X163000000Y-158000000D01*
X163000000Y-158000000D02*
X158000000Y-158000000D01*
X158000000Y-158000000D02*
X158000000Y-152000000D01*
X158000000Y-152000000D02*
X163000000Y-152000000D01*
X163000000Y-150500000D02*
X163000000Y-144500000D01*
X163000000Y-144500000D02*
X158000000Y-144500000D01*
X158000000Y-144500000D02*
X158000000Y-150500000D01*
X158000000Y-150500000D02*
X163000000Y-150500000D01*
X163000000Y-136000000D02*
X163000000Y-143000000D01*
X163000000Y-143000000D02*
X158000000Y-143000000D01*
X158000000Y-143000000D02*
X158000000Y-136000000D01*
X158000000Y-136000000D02*
X163000000Y-136000000D01*
X128300000Y-138600000D02*
X133700000Y-138600000D01*
X133700000Y-138600000D02*
X133700000Y-144400000D01*
X133700000Y-144400000D02*
X128300000Y-144400000D01*
X128300000Y-144400000D02*
X128300000Y-138600000D01*
X133500000Y-158500000D02*
X133500000Y-163500000D01*
X133500000Y-163500000D02*
X145500000Y-163500000D01*
X145500000Y-163500000D02*
X145500000Y-158500000D01*
X145500000Y-158500000D02*
X133500000Y-158500000D01*
X136000000Y-140250000D02*
X135250000Y-140250000D01*
X135250000Y-140250000D02*
X135250000Y-139500000D01*
X140750000Y-139500000D02*
X140750000Y-140250000D01*
X140750000Y-140250000D02*
X140000000Y-140250000D01*
X140000000Y-134750000D02*
X140750000Y-134750000D01*
X140750000Y-134750000D02*
X140750000Y-135500000D01*
X136000000Y-134750000D02*
X135250000Y-134750000D01*
X135250000Y-134750000D02*
X135250000Y-135500000D01*
X144500000Y-153000000D02*
X144500000Y-157000000D01*
X144500000Y-157000000D02*
X148500000Y-157000000D01*
X148500000Y-157000000D02*
X148500000Y-153000000D01*
X148500000Y-153000000D02*
X144500000Y-153000000D01*
X156300000Y-138400000D02*
X151200000Y-138400000D01*
X151200000Y-138400000D02*
X151200000Y-135600000D01*
X151200000Y-135600000D02*
X156300000Y-135600000D01*
X156300000Y-135600000D02*
X156300000Y-138400000D01*
X135500000Y-154500000D02*
X135500000Y-157500000D01*
X135500000Y-157500000D02*
X130250000Y-157500000D01*
X130250000Y-157500000D02*
X130250000Y-154500000D01*
X130250000Y-154500000D02*
X135500000Y-154500000D01*
X157900000Y-159000000D02*
X155100000Y-159000000D01*
X155100000Y-159000000D02*
X155100000Y-162000000D01*
X155100000Y-162000000D02*
X157900000Y-162000000D01*
X157900000Y-162000000D02*
X157900000Y-159000000D01*
X152900000Y-149600000D02*
X152900000Y-149500000D01*
X152900000Y-149600000D02*
X156100000Y-149600000D01*
X156100000Y-149600000D02*
X156100000Y-147400000D01*
X156100000Y-147400000D02*
X152900000Y-147400000D01*
X152900000Y-147400000D02*
X152900000Y-149500000D01*
X133200000Y-135800000D02*
X133200000Y-133600000D01*
X133200000Y-133600000D02*
X128600000Y-133600000D01*
X128600000Y-133600000D02*
X128600000Y-138000000D01*
X128600000Y-138000000D02*
X133200000Y-138000000D01*
X133200000Y-138000000D02*
X133200000Y-135800000D01*
X139550000Y-148400000D02*
X139550000Y-142400000D01*
X135300000Y-142400000D02*
X135300000Y-148400000D01*
X137300000Y-142400000D02*
X139550000Y-142400000D01*
X135300000Y-148400000D02*
X137300000Y-148400000D01*
X137300000Y-148400000D02*
X139550000Y-148400000D01*
X137300000Y-142400000D02*
X135300000Y-142400000D01*
X139000000Y-154850000D02*
X140000000Y-154850000D01*
X140000000Y-153150000D02*
X139000000Y-153150000D01*
X148850000Y-161500000D02*
X148850000Y-160500000D01*
X147150000Y-160500000D02*
X147150000Y-161500000D01*
X151350000Y-161500000D02*
X151350000Y-160500000D01*
X149650000Y-160500000D02*
X149650000Y-161500000D01*
X145500000Y-137150000D02*
X144500000Y-137150000D01*
X144500000Y-138850000D02*
X145500000Y-138850000D01*
X128082540Y-145049100D02*
X128082540Y-153749100D01*
X134487540Y-145049100D02*
X134487540Y-153749100D01*
X134487540Y-153749100D02*
X128082540Y-153749100D01*
X129312540Y-153749100D02*
X129312540Y-145049100D01*
X128082540Y-145049100D02*
X134487540Y-145049100D01*
X154997840Y-140200280D02*
X154997840Y-139875160D01*
X154997840Y-139875160D02*
X155498220Y-139875160D01*
X155498220Y-140200280D02*
X155498220Y-139875160D01*
X154997840Y-140200280D02*
X155498220Y-140200280D01*
X154997840Y-140822580D02*
X154997840Y-140672720D01*
X154997840Y-140672720D02*
X155249300Y-140672720D01*
X155249300Y-140822580D02*
X155249300Y-140672720D01*
X154997840Y-140822580D02*
X155249300Y-140822580D01*
X154997840Y-140327280D02*
X154997840Y-140177420D01*
X154997840Y-140177420D02*
X155249300Y-140177420D01*
X155249300Y-140327280D02*
X155249300Y-140177420D01*
X154997840Y-140327280D02*
X155249300Y-140327280D01*
X154997840Y-140698120D02*
X154997840Y-140301880D01*
X154997840Y-140301880D02*
X155173100Y-140301880D01*
X155173100Y-140698120D02*
X155173100Y-140301880D01*
X154997840Y-140698120D02*
X155173100Y-140698120D01*
X153501780Y-140200280D02*
X153501780Y-139875160D01*
X153501780Y-139875160D02*
X154002160Y-139875160D01*
X154002160Y-140200280D02*
X154002160Y-139875160D01*
X153501780Y-140200280D02*
X154002160Y-140200280D01*
X153501780Y-141124840D02*
X153501780Y-140799720D01*
X153501780Y-140799720D02*
X154002160Y-140799720D01*
X154002160Y-141124840D02*
X154002160Y-140799720D01*
X153501780Y-141124840D02*
X154002160Y-141124840D01*
X153750700Y-140327280D02*
X153750700Y-140177420D01*
X153750700Y-140177420D02*
X154002160Y-140177420D01*
X154002160Y-140327280D02*
X154002160Y-140177420D01*
X153750700Y-140327280D02*
X154002160Y-140327280D01*
X153750700Y-140822580D02*
X153750700Y-140672720D01*
X153750700Y-140672720D02*
X154002160Y-140672720D01*
X154002160Y-140822580D02*
X154002160Y-140672720D01*
X153750700Y-140822580D02*
X154002160Y-140822580D01*
X153826900Y-140698120D02*
X153826900Y-140301880D01*
X153826900Y-140301880D02*
X154002160Y-140301880D01*
X154002160Y-140698120D02*
X154002160Y-140301880D01*
X153826900Y-140698120D02*
X154002160Y-140698120D01*
X154500000Y-140599060D02*
X154500000Y-140400940D01*
X154500000Y-140400940D02*
X154698120Y-140400940D01*
X154698120Y-140599060D02*
X154698120Y-140400940D01*
X154500000Y-140599060D02*
X154698120Y-140599060D01*
X154997840Y-141099440D02*
X154997840Y-140799720D01*
X154997840Y-140799720D02*
X155297560Y-140799720D01*
X155297560Y-141099440D02*
X155297560Y-140799720D01*
X154997840Y-141099440D02*
X155297560Y-141099440D01*
X155424560Y-141124840D02*
X155424560Y-140898780D01*
X155424560Y-140898780D02*
X155498220Y-140898780D01*
X155498220Y-141124840D02*
X155498220Y-140898780D01*
X155424560Y-141124840D02*
X155498220Y-141124840D01*
X155023240Y-139925960D02*
X153976760Y-139925960D01*
X154002160Y-141074040D02*
X155424560Y-141074040D01*
X155420202Y-140949580D02*
G75*
G03X155420202Y-140949580I-71842J0D01*
G01*
X155498220Y-140847980D02*
G75*
G02X155498220Y-140152020I0J347980D01*
G01*
X153501780Y-140152020D02*
G75*
G02X153501780Y-140847980I0J-347980D01*
G01*
X154997840Y-144200280D02*
X154997840Y-143875160D01*
X154997840Y-143875160D02*
X155498220Y-143875160D01*
X155498220Y-144200280D02*
X155498220Y-143875160D01*
X154997840Y-144200280D02*
X155498220Y-144200280D01*
X154997840Y-144822580D02*
X154997840Y-144672720D01*
X154997840Y-144672720D02*
X155249300Y-144672720D01*
X155249300Y-144822580D02*
X155249300Y-144672720D01*
X154997840Y-144822580D02*
X155249300Y-144822580D01*
X154997840Y-144327280D02*
X154997840Y-144177420D01*
X154997840Y-144177420D02*
X155249300Y-144177420D01*
X155249300Y-144327280D02*
X155249300Y-144177420D01*
X154997840Y-144327280D02*
X155249300Y-144327280D01*
X154997840Y-144698120D02*
X154997840Y-144301880D01*
X154997840Y-144301880D02*
X155173100Y-144301880D01*
X155173100Y-144698120D02*
X155173100Y-144301880D01*
X154997840Y-144698120D02*
X155173100Y-144698120D01*
X153501780Y-144200280D02*
X153501780Y-143875160D01*
X153501780Y-143875160D02*
X154002160Y-143875160D01*
X154002160Y-144200280D02*
X154002160Y-143875160D01*
X153501780Y-144200280D02*
X154002160Y-144200280D01*
X153501780Y-145124840D02*
X153501780Y-144799720D01*
X153501780Y-144799720D02*
X154002160Y-144799720D01*
X154002160Y-145124840D02*
X154002160Y-144799720D01*
X153501780Y-145124840D02*
X154002160Y-145124840D01*
X153750700Y-144327280D02*
X153750700Y-144177420D01*
X153750700Y-144177420D02*
X154002160Y-144177420D01*
X154002160Y-144327280D02*
X154002160Y-144177420D01*
X153750700Y-144327280D02*
X154002160Y-144327280D01*
X153750700Y-144822580D02*
X153750700Y-144672720D01*
X153750700Y-144672720D02*
X154002160Y-144672720D01*
X154002160Y-144822580D02*
X154002160Y-144672720D01*
X153750700Y-144822580D02*
X154002160Y-144822580D01*
X153826900Y-144698120D02*
X153826900Y-144301880D01*
X153826900Y-144301880D02*
X154002160Y-144301880D01*
X154002160Y-144698120D02*
X154002160Y-144301880D01*
X153826900Y-144698120D02*
X154002160Y-144698120D01*
X154500000Y-144599060D02*
X154500000Y-144400940D01*
X154500000Y-144400940D02*
X154698120Y-144400940D01*
X154698120Y-144599060D02*
X154698120Y-144400940D01*
X154500000Y-144599060D02*
X154698120Y-144599060D01*
X154997840Y-145099440D02*
X154997840Y-144799720D01*
X154997840Y-144799720D02*
X155297560Y-144799720D01*
X155297560Y-145099440D02*
X155297560Y-144799720D01*
X154997840Y-145099440D02*
X155297560Y-145099440D01*
X155424560Y-145124840D02*
X155424560Y-144898780D01*
X155424560Y-144898780D02*
X155498220Y-144898780D01*
X155498220Y-145124840D02*
X155498220Y-144898780D01*
X155424560Y-145124840D02*
X155498220Y-145124840D01*
X155023240Y-143925960D02*
X153976760Y-143925960D01*
X154002160Y-145074040D02*
X155424560Y-145074040D01*
X155420202Y-144949580D02*
G75*
G03X155420202Y-144949580I-71842J0D01*
G01*
X155498220Y-144847980D02*
G75*
G02X155498220Y-144152020I0J347980D01*
G01*
X153501780Y-144152020D02*
G75*
G02X153501780Y-144847980I0J-347980D01*
G01*
X154997840Y-142200280D02*
X154997840Y-141875160D01*
X154997840Y-141875160D02*
X155498220Y-141875160D01*
X155498220Y-142200280D02*
X155498220Y-141875160D01*
X154997840Y-142200280D02*
X155498220Y-142200280D01*
X154997840Y-142822580D02*
X154997840Y-142672720D01*
X154997840Y-142672720D02*
X155249300Y-142672720D01*
X155249300Y-142822580D02*
X155249300Y-142672720D01*
X154997840Y-142822580D02*
X155249300Y-142822580D01*
X154997840Y-142327280D02*
X154997840Y-142177420D01*
X154997840Y-142177420D02*
X155249300Y-142177420D01*
X155249300Y-142327280D02*
X155249300Y-142177420D01*
X154997840Y-142327280D02*
X155249300Y-142327280D01*
X154997840Y-142698120D02*
X154997840Y-142301880D01*
X154997840Y-142301880D02*
X155173100Y-142301880D01*
X155173100Y-142698120D02*
X155173100Y-142301880D01*
X154997840Y-142698120D02*
X155173100Y-142698120D01*
X153501780Y-142200280D02*
X153501780Y-141875160D01*
X153501780Y-141875160D02*
X154002160Y-141875160D01*
X154002160Y-142200280D02*
X154002160Y-141875160D01*
X153501780Y-142200280D02*
X154002160Y-142200280D01*
X153501780Y-143124840D02*
X153501780Y-142799720D01*
X153501780Y-142799720D02*
X154002160Y-142799720D01*
X154002160Y-143124840D02*
X154002160Y-142799720D01*
X153501780Y-143124840D02*
X154002160Y-143124840D01*
X153750700Y-142327280D02*
X153750700Y-142177420D01*
X153750700Y-142177420D02*
X154002160Y-142177420D01*
X154002160Y-142327280D02*
X154002160Y-142177420D01*
X153750700Y-142327280D02*
X154002160Y-142327280D01*
X153750700Y-142822580D02*
X153750700Y-142672720D01*
X153750700Y-142672720D02*
X154002160Y-142672720D01*
X154002160Y-142822580D02*
X154002160Y-142672720D01*
X153750700Y-142822580D02*
X154002160Y-142822580D01*
X153826900Y-142698120D02*
X153826900Y-142301880D01*
X153826900Y-142301880D02*
X154002160Y-142301880D01*
X154002160Y-142698120D02*
X154002160Y-142301880D01*
X153826900Y-142698120D02*
X154002160Y-142698120D01*
X154500000Y-142599060D02*
X154500000Y-142400940D01*
X154500000Y-142400940D02*
X154698120Y-142400940D01*
X154698120Y-142599060D02*
X154698120Y-142400940D01*
X154500000Y-142599060D02*
X154698120Y-142599060D01*
X154997840Y-143099440D02*
X154997840Y-142799720D01*
X154997840Y-142799720D02*
X155297560Y-142799720D01*
X155297560Y-143099440D02*
X155297560Y-142799720D01*
X154997840Y-143099440D02*
X155297560Y-143099440D01*
X155424560Y-143124840D02*
X155424560Y-142898780D01*
X155424560Y-142898780D02*
X155498220Y-142898780D01*
X155498220Y-143124840D02*
X155498220Y-142898780D01*
X155424560Y-143124840D02*
X155498220Y-143124840D01*
X155023240Y-141925960D02*
X153976760Y-141925960D01*
X154002160Y-143074040D02*
X155424560Y-143074040D01*
X155420202Y-142949580D02*
G75*
G03X155420202Y-142949580I-71842J0D01*
G01*
X155498220Y-142847980D02*
G75*
G02X155498220Y-142152020I0J347980D01*
G01*
X153501780Y-142152020D02*
G75*
G02X153501780Y-142847980I0J-347980D01*
G01*
X152150240Y-134799160D02*
X152150240Y-134750900D01*
X151449200Y-132000180D02*
X152150240Y-132000180D01*
X152150240Y-132000180D02*
X152150240Y-132249100D01*
X152150240Y-134799160D02*
X152150240Y-134999820D01*
X152150240Y-134999820D02*
X151449200Y-134999820D01*
X149875000Y-136400000D02*
X149875000Y-137600000D01*
X148125000Y-137600000D02*
X148125000Y-136400000D01*
X156375000Y-153900000D02*
X156375000Y-155100000D01*
X154625000Y-155100000D02*
X154625000Y-153900000D01*
X137400000Y-149925000D02*
X138600000Y-149925000D01*
X138600000Y-151675000D02*
X137400000Y-151675000D01*
X152125000Y-155100000D02*
X152125000Y-153900000D01*
X153875000Y-153900000D02*
X153875000Y-155100000D01*
X145600000Y-136375000D02*
X144400000Y-136375000D01*
X144400000Y-134625000D02*
X145600000Y-134625000D01*
X142375000Y-142275000D02*
X142375000Y-142800000D01*
X149625000Y-142275000D02*
X149625000Y-142800000D01*
X149625000Y-149525000D02*
X149625000Y-149000000D01*
X142375000Y-149525000D02*
X142375000Y-149000000D01*
X142375000Y-142275000D02*
X142900000Y-142275000D01*
X142375000Y-149525000D02*
X142900000Y-149525000D01*
X149625000Y-149525000D02*
X149100000Y-149525000D01*
X149625000Y-142275000D02*
X149100000Y-142275000D01*
X142375000Y-142800000D02*
X141000000Y-142800000D01*
X134047619Y-132042857D02*
X134314286Y-132042857D01*
X134428572Y-132461905D02*
X134047619Y-132461905D01*
X134047619Y-131661905D01*
X134428572Y-131661905D01*
X134733334Y-132423810D02*
X134847620Y-132461905D01*
X135038096Y-132461905D01*
X135114286Y-132423810D01*
X135152382Y-132385714D01*
X135190477Y-132309524D01*
X135190477Y-132233333D01*
X135152382Y-132157143D01*
X135114286Y-132119048D01*
X135038096Y-132080952D01*
X134885715Y-132042857D01*
X134809524Y-132004762D01*
X134771429Y-131966667D01*
X134733334Y-131890476D01*
X134733334Y-131814286D01*
X134771429Y-131738095D01*
X134809524Y-131700000D01*
X134885715Y-131661905D01*
X135076191Y-131661905D01*
X135190477Y-131700000D01*
X135990477Y-132385714D02*
X135952382Y-132423810D01*
X135838096Y-132461905D01*
X135761906Y-132461905D01*
X135647620Y-132423810D01*
X135571429Y-132347619D01*
X135533334Y-132271429D01*
X135495239Y-132119048D01*
X135495239Y-132004762D01*
X135533334Y-131852381D01*
X135571429Y-131776190D01*
X135647620Y-131700000D01*
X135761906Y-131661905D01*
X135838096Y-131661905D01*
X135952382Y-131700000D01*
X135990477Y-131738095D01*
X153457143Y-133300000D02*
X153485714Y-133214286D01*
X153514286Y-133185714D01*
X153571429Y-133157143D01*
X153657143Y-133157143D01*
X153714286Y-133185714D01*
X153742857Y-133214286D01*
X153771429Y-133271428D01*
X153771429Y-133500000D01*
X153171429Y-133500000D01*
X153171429Y-133300000D01*
X153200000Y-133242857D01*
X153228571Y-133214286D01*
X153285714Y-133185714D01*
X153342857Y-133185714D01*
X153400000Y-133214286D01*
X153428571Y-133242857D01*
X153457143Y-133300000D01*
X153457143Y-133500000D01*
X153457143Y-132900000D02*
X153457143Y-132700000D01*
X153771429Y-132614286D02*
X153771429Y-132900000D01*
X153171429Y-132900000D01*
X153171429Y-132614286D01*
X153457143Y-132357143D02*
X153457143Y-132157143D01*
X153771429Y-132071429D02*
X153771429Y-132357143D01*
X153171429Y-132357143D01*
X153171429Y-132071429D01*
X153771429Y-131814286D02*
X153171429Y-131814286D01*
X153171429Y-131585714D01*
X153200000Y-131528572D01*
X153228571Y-131500000D01*
X153285714Y-131471429D01*
X153371429Y-131471429D01*
X153428571Y-131500000D01*
X153457143Y-131528572D01*
X153485714Y-131585714D01*
X153485714Y-131814286D01*
D12*
X163726190Y-155488094D02*
X163226190Y-155488094D01*
X163273810Y-155273809D02*
X163250000Y-155249999D01*
X163226190Y-155202380D01*
X163226190Y-155083333D01*
X163250000Y-155035714D01*
X163273810Y-155011904D01*
X163321429Y-154988095D01*
X163369048Y-154988095D01*
X163440476Y-155011904D01*
X163726190Y-155297618D01*
X163726190Y-154988095D01*
X163678571Y-154488095D02*
X163702381Y-154511905D01*
X163726190Y-154583333D01*
X163726190Y-154630952D01*
X163702381Y-154702381D01*
X163654762Y-154750000D01*
X163607143Y-154773809D01*
X163511905Y-154797619D01*
X163440476Y-154797619D01*
X163345238Y-154773809D01*
X163297619Y-154750000D01*
X163250000Y-154702381D01*
X163226190Y-154630952D01*
X163226190Y-154583333D01*
X163250000Y-154511905D01*
X163273810Y-154488095D01*
X163226190Y-148335713D02*
X163630952Y-148335713D01*
X163678571Y-148311904D01*
X163702381Y-148288094D01*
X163726190Y-148240475D01*
X163726190Y-148145237D01*
X163702381Y-148097618D01*
X163678571Y-148073809D01*
X163630952Y-148049999D01*
X163226190Y-148049999D01*
X163583333Y-147835713D02*
X163583333Y-147597618D01*
X163726190Y-147883332D02*
X163226190Y-147716665D01*
X163726190Y-147549999D01*
X163726190Y-147097618D02*
X163488095Y-147264285D01*
X163726190Y-147383332D02*
X163226190Y-147383332D01*
X163226190Y-147192856D01*
X163250000Y-147145237D01*
X163273810Y-147121428D01*
X163321429Y-147097618D01*
X163392857Y-147097618D01*
X163440476Y-147121428D01*
X163464286Y-147145237D01*
X163488095Y-147192856D01*
X163488095Y-147383332D01*
X163226190Y-146954761D02*
X163226190Y-146669047D01*
X163726190Y-146811904D02*
X163226190Y-146811904D01*
X163726190Y-146240476D02*
X163726190Y-146526190D01*
X163726190Y-146383333D02*
X163226190Y-146383333D01*
X163297619Y-146430952D01*
X163345238Y-146478571D01*
X163369048Y-146526190D01*
X163326190Y-139883332D02*
X163683333Y-139883332D01*
X163754762Y-139907142D01*
X163802381Y-139954761D01*
X163826190Y-140026189D01*
X163826190Y-140073808D01*
X163326190Y-139716666D02*
X163326190Y-139430952D01*
X163826190Y-139573809D02*
X163326190Y-139573809D01*
X163683333Y-139288095D02*
X163683333Y-139050000D01*
X163826190Y-139335714D02*
X163326190Y-139169047D01*
X163826190Y-139002381D01*
X163350000Y-138573810D02*
X163326190Y-138621429D01*
X163326190Y-138692857D01*
X163350000Y-138764286D01*
X163397619Y-138811905D01*
X163445238Y-138835714D01*
X163540476Y-138859524D01*
X163611905Y-138859524D01*
X163707143Y-138835714D01*
X163754762Y-138811905D01*
X163802381Y-138764286D01*
X163826190Y-138692857D01*
X163826190Y-138645238D01*
X163802381Y-138573810D01*
X163778571Y-138550000D01*
X163611905Y-138550000D01*
X163611905Y-138645238D01*
X134602381Y-143142857D02*
X134626190Y-143071428D01*
X134626190Y-142952381D01*
X134602381Y-142904762D01*
X134578571Y-142880952D01*
X134530952Y-142857143D01*
X134483333Y-142857143D01*
X134435714Y-142880952D01*
X134411905Y-142904762D01*
X134388095Y-142952381D01*
X134364286Y-143047619D01*
X134340476Y-143095238D01*
X134316667Y-143119047D01*
X134269048Y-143142857D01*
X134221429Y-143142857D01*
X134173810Y-143119047D01*
X134150000Y-143095238D01*
X134126190Y-143047619D01*
X134126190Y-142928571D01*
X134150000Y-142857143D01*
X134292857Y-142642857D02*
X134792857Y-142642857D01*
X134316667Y-142642857D02*
X134292857Y-142595238D01*
X134292857Y-142500000D01*
X134316667Y-142452381D01*
X134340476Y-142428572D01*
X134388095Y-142404762D01*
X134530952Y-142404762D01*
X134578571Y-142428572D01*
X134602381Y-142452381D01*
X134626190Y-142500000D01*
X134626190Y-142595238D01*
X134602381Y-142642857D01*
X134602381Y-142000000D02*
X134626190Y-142047619D01*
X134626190Y-142142857D01*
X134602381Y-142190476D01*
X134554762Y-142214286D01*
X134364286Y-142214286D01*
X134316667Y-142190476D01*
X134292857Y-142142857D01*
X134292857Y-142047619D01*
X134316667Y-142000000D01*
X134364286Y-141976191D01*
X134411905Y-141976191D01*
X134459524Y-142214286D01*
X134626190Y-141761905D02*
X134126190Y-141761905D01*
X134435714Y-141714286D02*
X134626190Y-141571429D01*
X134292857Y-141571429D02*
X134483333Y-141761905D01*
X134292857Y-141428572D02*
X134292857Y-141238096D01*
X134126190Y-141357143D02*
X134554762Y-141357143D01*
X134602381Y-141333334D01*
X134626190Y-141285715D01*
X134626190Y-141238096D01*
X134626190Y-141071429D02*
X134292857Y-141071429D01*
X134388095Y-141071429D02*
X134340476Y-141047620D01*
X134316667Y-141023810D01*
X134292857Y-140976191D01*
X134292857Y-140928572D01*
X134292857Y-140547620D02*
X134626190Y-140547620D01*
X134292857Y-140761905D02*
X134554762Y-140761905D01*
X134602381Y-140738096D01*
X134626190Y-140690477D01*
X134626190Y-140619048D01*
X134602381Y-140571429D01*
X134578571Y-140547620D01*
X134626190Y-140309524D02*
X134292857Y-140309524D01*
X134340476Y-140309524D02*
X134316667Y-140285715D01*
X134292857Y-140238096D01*
X134292857Y-140166667D01*
X134316667Y-140119048D01*
X134364286Y-140095239D01*
X134626190Y-140095239D01*
X134364286Y-140095239D02*
X134316667Y-140071429D01*
X134292857Y-140023810D01*
X134292857Y-139952382D01*
X134316667Y-139904762D01*
X134364286Y-139880953D01*
X134626190Y-139880953D01*
X138802381Y-157326190D02*
X138635714Y-157088095D01*
X138516667Y-157326190D02*
X138516667Y-156826190D01*
X138707143Y-156826190D01*
X138754762Y-156850000D01*
X138778571Y-156873810D01*
X138802381Y-156921429D01*
X138802381Y-156992857D01*
X138778571Y-157040476D01*
X138754762Y-157064286D01*
X138707143Y-157088095D01*
X138516667Y-157088095D01*
X139302381Y-157278571D02*
X139278571Y-157302381D01*
X139207143Y-157326190D01*
X139159524Y-157326190D01*
X139088095Y-157302381D01*
X139040476Y-157254762D01*
X139016667Y-157207143D01*
X138992857Y-157111905D01*
X138992857Y-157040476D01*
X139016667Y-156945238D01*
X139040476Y-156897619D01*
X139088095Y-156850000D01*
X139159524Y-156826190D01*
X139207143Y-156826190D01*
X139278571Y-156850000D01*
X139302381Y-156873810D01*
X139397619Y-157373810D02*
X139778571Y-157373810D01*
X140183333Y-157278571D02*
X140159523Y-157302381D01*
X140088095Y-157326190D01*
X140040476Y-157326190D01*
X139969047Y-157302381D01*
X139921428Y-157254762D01*
X139897619Y-157207143D01*
X139873809Y-157111905D01*
X139873809Y-157040476D01*
X139897619Y-156945238D01*
X139921428Y-156897619D01*
X139969047Y-156850000D01*
X140040476Y-156826190D01*
X140088095Y-156826190D01*
X140159523Y-156850000D01*
X140183333Y-156873810D01*
X140397619Y-157326190D02*
X140397619Y-156826190D01*
X140397619Y-157064286D02*
X140683333Y-157064286D01*
X140683333Y-157326190D02*
X140683333Y-156826190D01*
D14*
X137238095Y-133077381D02*
X137238095Y-133886905D01*
X137285714Y-133982143D01*
X137333333Y-134029762D01*
X137428571Y-134077381D01*
X137619048Y-134077381D01*
X137714286Y-134029762D01*
X137761905Y-133982143D01*
X137809524Y-133886905D01*
X137809524Y-133077381D01*
X138714286Y-133077381D02*
X138523809Y-133077381D01*
X138428571Y-133125000D01*
X138380952Y-133172619D01*
X138285714Y-133315476D01*
X138238095Y-133505952D01*
X138238095Y-133886905D01*
X138285714Y-133982143D01*
X138333333Y-134029762D01*
X138428571Y-134077381D01*
X138619048Y-134077381D01*
X138714286Y-134029762D01*
X138761905Y-133982143D01*
X138809524Y-133886905D01*
X138809524Y-133648810D01*
X138761905Y-133553571D01*
X138714286Y-133505952D01*
X138619048Y-133458333D01*
X138428571Y-133458333D01*
X138333333Y-133505952D01*
X138285714Y-133553571D01*
X138238095Y-133648810D01*
D12*
X146119048Y-153826190D02*
X146119048Y-154230952D01*
X146142857Y-154278571D01*
X146166667Y-154302381D01*
X146214286Y-154326190D01*
X146309524Y-154326190D01*
X146357143Y-154302381D01*
X146380952Y-154278571D01*
X146404762Y-154230952D01*
X146404762Y-153826190D01*
X146619048Y-153873810D02*
X146642858Y-153850000D01*
X146690477Y-153826190D01*
X146809524Y-153826190D01*
X146857143Y-153850000D01*
X146880953Y-153873810D01*
X146904762Y-153921429D01*
X146904762Y-153969048D01*
X146880953Y-154040476D01*
X146595239Y-154326190D01*
X146904762Y-154326190D01*
X153178572Y-134726190D02*
X153345239Y-135226190D01*
X153511905Y-134726190D01*
X153845238Y-134964286D02*
X153916667Y-134988095D01*
X153940476Y-135011905D01*
X153964286Y-135059524D01*
X153964286Y-135130952D01*
X153940476Y-135178571D01*
X153916667Y-135202381D01*
X153869048Y-135226190D01*
X153678572Y-135226190D01*
X153678572Y-134726190D01*
X153845238Y-134726190D01*
X153892857Y-134750000D01*
X153916667Y-134773810D01*
X153940476Y-134821429D01*
X153940476Y-134869048D01*
X153916667Y-134916667D01*
X153892857Y-134940476D01*
X153845238Y-134964286D01*
X153678572Y-134964286D01*
X154154762Y-135083333D02*
X154392857Y-135083333D01*
X154107143Y-135226190D02*
X154273810Y-134726190D01*
X154440476Y-135226190D01*
X154535714Y-134726190D02*
X154821428Y-134726190D01*
X154678571Y-135226190D02*
X154678571Y-134726190D01*
X144221428Y-131764286D02*
X144292857Y-131788095D01*
X144316666Y-131811905D01*
X144340476Y-131859524D01*
X144340476Y-131930952D01*
X144316666Y-131978571D01*
X144292857Y-132002381D01*
X144245238Y-132026190D01*
X144054762Y-132026190D01*
X144054762Y-131526190D01*
X144221428Y-131526190D01*
X144269047Y-131550000D01*
X144292857Y-131573810D01*
X144316666Y-131621429D01*
X144316666Y-131669048D01*
X144292857Y-131716667D01*
X144269047Y-131740476D01*
X144221428Y-131764286D01*
X144054762Y-131764286D01*
X144650000Y-131526190D02*
X144745238Y-131526190D01*
X144792857Y-131550000D01*
X144840476Y-131597619D01*
X144864285Y-131692857D01*
X144864285Y-131859524D01*
X144840476Y-131954762D01*
X144792857Y-132002381D01*
X144745238Y-132026190D01*
X144650000Y-132026190D01*
X144602381Y-132002381D01*
X144554762Y-131954762D01*
X144530952Y-131859524D01*
X144530952Y-131692857D01*
X144554762Y-131597619D01*
X144602381Y-131550000D01*
X144650000Y-131526190D01*
X145173810Y-131526190D02*
X145269048Y-131526190D01*
X145316667Y-131550000D01*
X145364286Y-131597619D01*
X145388095Y-131692857D01*
X145388095Y-131859524D01*
X145364286Y-131954762D01*
X145316667Y-132002381D01*
X145269048Y-132026190D01*
X145173810Y-132026190D01*
X145126191Y-132002381D01*
X145078572Y-131954762D01*
X145054762Y-131859524D01*
X145054762Y-131692857D01*
X145078572Y-131597619D01*
X145126191Y-131550000D01*
X145173810Y-131526190D01*
X145530953Y-131526190D02*
X145816667Y-131526190D01*
X145673810Y-132026190D02*
X145673810Y-131526190D01*
D14*
X135771429Y-156457143D02*
X136257143Y-156457143D01*
X136314286Y-156428571D01*
X136342857Y-156400000D01*
X136371429Y-156342857D01*
X136371429Y-156228571D01*
X136342857Y-156171429D01*
X136314286Y-156142857D01*
X136257143Y-156114286D01*
X135771429Y-156114286D01*
X135771429Y-155542858D02*
X135771429Y-155828572D01*
X136057143Y-155857143D01*
X136028571Y-155828572D01*
X136000000Y-155771429D01*
X136000000Y-155628572D01*
X136028571Y-155571429D01*
X136057143Y-155542858D01*
X136114286Y-155514286D01*
X136257143Y-155514286D01*
X136314286Y-155542858D01*
X136342857Y-155571429D01*
X136371429Y-155628572D01*
X136371429Y-155771429D01*
X136342857Y-155828572D01*
X136314286Y-155857143D01*
X155940476Y-157811905D02*
X155940476Y-158459524D01*
X155978571Y-158535714D01*
X156016667Y-158573810D01*
X156092857Y-158611905D01*
X156245238Y-158611905D01*
X156321429Y-158573810D01*
X156359524Y-158535714D01*
X156397619Y-158459524D01*
X156397619Y-157811905D01*
X157197619Y-158611905D02*
X156740476Y-158611905D01*
X156969047Y-158611905D02*
X156969047Y-157811905D01*
X156892857Y-157926190D01*
X156816666Y-158002381D01*
X156740476Y-158040476D01*
D12*
X153811906Y-148626190D02*
X153811906Y-148126190D01*
X154335715Y-148578571D02*
X154311905Y-148602381D01*
X154240477Y-148626190D01*
X154192858Y-148626190D01*
X154121429Y-148602381D01*
X154073810Y-148554762D01*
X154050001Y-148507143D01*
X154026191Y-148411905D01*
X154026191Y-148340476D01*
X154050001Y-148245238D01*
X154073810Y-148197619D01*
X154121429Y-148150000D01*
X154192858Y-148126190D01*
X154240477Y-148126190D01*
X154311905Y-148150000D01*
X154335715Y-148173810D01*
X154526191Y-148173810D02*
X154550001Y-148150000D01*
X154597620Y-148126190D01*
X154716667Y-148126190D01*
X154764286Y-148150000D01*
X154788096Y-148173810D01*
X154811905Y-148221429D01*
X154811905Y-148269048D01*
X154788096Y-148340476D01*
X154502382Y-148626190D01*
X154811905Y-148626190D01*
X131126190Y-136269047D02*
X130626190Y-136269047D01*
X130626190Y-136150000D01*
X130650000Y-136078571D01*
X130697619Y-136030952D01*
X130745238Y-136007143D01*
X130840476Y-135983333D01*
X130911905Y-135983333D01*
X131007143Y-136007143D01*
X131054762Y-136030952D01*
X131102381Y-136078571D01*
X131126190Y-136150000D01*
X131126190Y-136269047D01*
X131126190Y-135507143D02*
X131126190Y-135792857D01*
X131126190Y-135650000D02*
X130626190Y-135650000D01*
X130697619Y-135697619D01*
X130745238Y-135745238D01*
X130769048Y-135792857D01*
X137026190Y-145704761D02*
X137526190Y-145371428D01*
X137026190Y-145371428D02*
X137526190Y-145704761D01*
X137526190Y-144919048D02*
X137526190Y-145204762D01*
X137526190Y-145061905D02*
X137026190Y-145061905D01*
X137097619Y-145109524D01*
X137145238Y-145157143D01*
X137169048Y-145204762D01*
X139678571Y-154083333D02*
X139702381Y-154107143D01*
X139726190Y-154178571D01*
X139726190Y-154226190D01*
X139702381Y-154297619D01*
X139654762Y-154345238D01*
X139607143Y-154369047D01*
X139511905Y-154392857D01*
X139440476Y-154392857D01*
X139345238Y-154369047D01*
X139297619Y-154345238D01*
X139250000Y-154297619D01*
X139226190Y-154226190D01*
X139226190Y-154178571D01*
X139250000Y-154107143D01*
X139273810Y-154083333D01*
X139273810Y-153892857D02*
X139250000Y-153869047D01*
X139226190Y-153821428D01*
X139226190Y-153702381D01*
X139250000Y-153654762D01*
X139273810Y-153630952D01*
X139321429Y-153607143D01*
X139369048Y-153607143D01*
X139440476Y-153630952D01*
X139726190Y-153916666D01*
X139726190Y-153607143D01*
X147916667Y-161178571D02*
X147892857Y-161202381D01*
X147821429Y-161226190D01*
X147773810Y-161226190D01*
X147702381Y-161202381D01*
X147654762Y-161154762D01*
X147630953Y-161107143D01*
X147607143Y-161011905D01*
X147607143Y-160940476D01*
X147630953Y-160845238D01*
X147654762Y-160797619D01*
X147702381Y-160750000D01*
X147773810Y-160726190D01*
X147821429Y-160726190D01*
X147892857Y-160750000D01*
X147916667Y-160773810D01*
X148345238Y-160726190D02*
X148250000Y-160726190D01*
X148202381Y-160750000D01*
X148178572Y-160773810D01*
X148130953Y-160845238D01*
X148107143Y-160940476D01*
X148107143Y-161130952D01*
X148130953Y-161178571D01*
X148154762Y-161202381D01*
X148202381Y-161226190D01*
X148297619Y-161226190D01*
X148345238Y-161202381D01*
X148369048Y-161178571D01*
X148392857Y-161130952D01*
X148392857Y-161011905D01*
X148369048Y-160964286D01*
X148345238Y-160940476D01*
X148297619Y-160916667D01*
X148202381Y-160916667D01*
X148154762Y-160940476D01*
X148130953Y-160964286D01*
X148107143Y-161011905D01*
X150178572Y-161178571D02*
X150154762Y-161202381D01*
X150083334Y-161226190D01*
X150035715Y-161226190D01*
X149964286Y-161202381D01*
X149916667Y-161154762D01*
X149892858Y-161107143D01*
X149869048Y-161011905D01*
X149869048Y-160940476D01*
X149892858Y-160845238D01*
X149916667Y-160797619D01*
X149964286Y-160750000D01*
X150035715Y-160726190D01*
X150083334Y-160726190D01*
X150154762Y-160750000D01*
X150178572Y-160773810D01*
X150654762Y-161226190D02*
X150369048Y-161226190D01*
X150511905Y-161226190D02*
X150511905Y-160726190D01*
X150464286Y-160797619D01*
X150416667Y-160845238D01*
X150369048Y-160869048D01*
X151130952Y-161226190D02*
X150845238Y-161226190D01*
X150988095Y-161226190D02*
X150988095Y-160726190D01*
X150940476Y-160797619D01*
X150892857Y-160845238D01*
X150845238Y-160869048D01*
X145178571Y-138321428D02*
X145202381Y-138345238D01*
X145226190Y-138416666D01*
X145226190Y-138464285D01*
X145202381Y-138535714D01*
X145154762Y-138583333D01*
X145107143Y-138607142D01*
X145011905Y-138630952D01*
X144940476Y-138630952D01*
X144845238Y-138607142D01*
X144797619Y-138583333D01*
X144750000Y-138535714D01*
X144726190Y-138464285D01*
X144726190Y-138416666D01*
X144750000Y-138345238D01*
X144773810Y-138321428D01*
X145226190Y-137845238D02*
X145226190Y-138130952D01*
X145226190Y-137988095D02*
X144726190Y-137988095D01*
X144797619Y-138035714D01*
X144845238Y-138083333D01*
X144869048Y-138130952D01*
X144773810Y-137654762D02*
X144750000Y-137630952D01*
X144726190Y-137583333D01*
X144726190Y-137464286D01*
X144750000Y-137416667D01*
X144773810Y-137392857D01*
X144821429Y-137369048D01*
X144869048Y-137369048D01*
X144940476Y-137392857D01*
X145226190Y-137678571D01*
X145226190Y-137369048D01*
X154726190Y-140869047D02*
X154226190Y-140869047D01*
X154226190Y-140750000D01*
X154250000Y-140678571D01*
X154297619Y-140630952D01*
X154345238Y-140607143D01*
X154440476Y-140583333D01*
X154511905Y-140583333D01*
X154607143Y-140607143D01*
X154654762Y-140630952D01*
X154702381Y-140678571D01*
X154726190Y-140750000D01*
X154726190Y-140869047D01*
X154273810Y-140392857D02*
X154250000Y-140369047D01*
X154226190Y-140321428D01*
X154226190Y-140202381D01*
X154250000Y-140154762D01*
X154273810Y-140130952D01*
X154321429Y-140107143D01*
X154369048Y-140107143D01*
X154440476Y-140130952D01*
X154726190Y-140416666D01*
X154726190Y-140107143D01*
X154726190Y-144869047D02*
X154226190Y-144869047D01*
X154226190Y-144750000D01*
X154250000Y-144678571D01*
X154297619Y-144630952D01*
X154345238Y-144607143D01*
X154440476Y-144583333D01*
X154511905Y-144583333D01*
X154607143Y-144607143D01*
X154654762Y-144630952D01*
X154702381Y-144678571D01*
X154726190Y-144750000D01*
X154726190Y-144869047D01*
X154226190Y-144416666D02*
X154226190Y-144107143D01*
X154416667Y-144273809D01*
X154416667Y-144202381D01*
X154440476Y-144154762D01*
X154464286Y-144130952D01*
X154511905Y-144107143D01*
X154630952Y-144107143D01*
X154678571Y-144130952D01*
X154702381Y-144154762D01*
X154726190Y-144202381D01*
X154726190Y-144345238D01*
X154702381Y-144392857D01*
X154678571Y-144416666D01*
X154726190Y-142869047D02*
X154226190Y-142869047D01*
X154226190Y-142750000D01*
X154250000Y-142678571D01*
X154297619Y-142630952D01*
X154345238Y-142607143D01*
X154440476Y-142583333D01*
X154511905Y-142583333D01*
X154607143Y-142607143D01*
X154654762Y-142630952D01*
X154702381Y-142678571D01*
X154726190Y-142750000D01*
X154726190Y-142869047D01*
X154392857Y-142154762D02*
X154726190Y-142154762D01*
X154202381Y-142273809D02*
X154559524Y-142392857D01*
X154559524Y-142083333D01*
X151773810Y-133447619D02*
X151750000Y-133495238D01*
X151702381Y-133542857D01*
X151630952Y-133614286D01*
X151607143Y-133661905D01*
X151607143Y-133709524D01*
X151726190Y-133685714D02*
X151702381Y-133733333D01*
X151654762Y-133780952D01*
X151559524Y-133804762D01*
X151392857Y-133804762D01*
X151297619Y-133780952D01*
X151250000Y-133733333D01*
X151226190Y-133685714D01*
X151226190Y-133590476D01*
X151250000Y-133542857D01*
X151297619Y-133495238D01*
X151392857Y-133471429D01*
X151559524Y-133471429D01*
X151654762Y-133495238D01*
X151702381Y-133542857D01*
X151726190Y-133590476D01*
X151726190Y-133685714D01*
X151726190Y-132995238D02*
X151726190Y-133280952D01*
X151726190Y-133138095D02*
X151226190Y-133138095D01*
X151297619Y-133185714D01*
X151345238Y-133233333D01*
X151369048Y-133280952D01*
X148916667Y-137226190D02*
X148750000Y-136988095D01*
X148630953Y-137226190D02*
X148630953Y-136726190D01*
X148821429Y-136726190D01*
X148869048Y-136750000D01*
X148892857Y-136773810D01*
X148916667Y-136821429D01*
X148916667Y-136892857D01*
X148892857Y-136940476D01*
X148869048Y-136964286D01*
X148821429Y-136988095D01*
X148630953Y-136988095D01*
X149083334Y-136726190D02*
X149392857Y-136726190D01*
X149226191Y-136916667D01*
X149297619Y-136916667D01*
X149345238Y-136940476D01*
X149369048Y-136964286D01*
X149392857Y-137011905D01*
X149392857Y-137130952D01*
X149369048Y-137178571D01*
X149345238Y-137202381D01*
X149297619Y-137226190D01*
X149154762Y-137226190D01*
X149107143Y-137202381D01*
X149083334Y-137178571D01*
X155316667Y-154726190D02*
X155150000Y-154488095D01*
X155030953Y-154726190D02*
X155030953Y-154226190D01*
X155221429Y-154226190D01*
X155269048Y-154250000D01*
X155292857Y-154273810D01*
X155316667Y-154321429D01*
X155316667Y-154392857D01*
X155292857Y-154440476D01*
X155269048Y-154464286D01*
X155221429Y-154488095D01*
X155030953Y-154488095D01*
X155745238Y-154392857D02*
X155745238Y-154726190D01*
X155626191Y-154202381D02*
X155507143Y-154559524D01*
X155816667Y-154559524D01*
X138226190Y-150883333D02*
X137988095Y-151050000D01*
X138226190Y-151169047D02*
X137726190Y-151169047D01*
X137726190Y-150978571D01*
X137750000Y-150930952D01*
X137773810Y-150907143D01*
X137821429Y-150883333D01*
X137892857Y-150883333D01*
X137940476Y-150907143D01*
X137964286Y-150930952D01*
X137988095Y-150978571D01*
X137988095Y-151169047D01*
X137726190Y-150454762D02*
X137726190Y-150550000D01*
X137750000Y-150597619D01*
X137773810Y-150621428D01*
X137845238Y-150669047D01*
X137940476Y-150692857D01*
X138130952Y-150692857D01*
X138178571Y-150669047D01*
X138202381Y-150645238D01*
X138226190Y-150597619D01*
X138226190Y-150502381D01*
X138202381Y-150454762D01*
X138178571Y-150430952D01*
X138130952Y-150407143D01*
X138011905Y-150407143D01*
X137964286Y-150430952D01*
X137940476Y-150454762D01*
X137916667Y-150502381D01*
X137916667Y-150597619D01*
X137940476Y-150645238D01*
X137964286Y-150669047D01*
X138011905Y-150692857D01*
X152778572Y-154626190D02*
X152611905Y-154388095D01*
X152492858Y-154626190D02*
X152492858Y-154126190D01*
X152683334Y-154126190D01*
X152730953Y-154150000D01*
X152754762Y-154173810D01*
X152778572Y-154221429D01*
X152778572Y-154292857D01*
X152754762Y-154340476D01*
X152730953Y-154364286D01*
X152683334Y-154388095D01*
X152492858Y-154388095D01*
X153254762Y-154626190D02*
X152969048Y-154626190D01*
X153111905Y-154626190D02*
X153111905Y-154126190D01*
X153064286Y-154197619D01*
X153016667Y-154245238D01*
X152969048Y-154269048D01*
X153730952Y-154626190D02*
X153445238Y-154626190D01*
X153588095Y-154626190D02*
X153588095Y-154126190D01*
X153540476Y-154197619D01*
X153492857Y-154245238D01*
X153445238Y-154269048D01*
X145226190Y-135821428D02*
X144988095Y-135988095D01*
X145226190Y-136107142D02*
X144726190Y-136107142D01*
X144726190Y-135916666D01*
X144750000Y-135869047D01*
X144773810Y-135845238D01*
X144821429Y-135821428D01*
X144892857Y-135821428D01*
X144940476Y-135845238D01*
X144964286Y-135869047D01*
X144988095Y-135916666D01*
X144988095Y-136107142D01*
X145226190Y-135345238D02*
X145226190Y-135630952D01*
X145226190Y-135488095D02*
X144726190Y-135488095D01*
X144797619Y-135535714D01*
X144845238Y-135583333D01*
X144869048Y-135630952D01*
X144726190Y-135178571D02*
X144726190Y-134869048D01*
X144916667Y-135035714D01*
X144916667Y-134964286D01*
X144940476Y-134916667D01*
X144964286Y-134892857D01*
X145011905Y-134869048D01*
X145130952Y-134869048D01*
X145178571Y-134892857D01*
X145202381Y-134916667D01*
X145226190Y-134964286D01*
X145226190Y-135107143D01*
X145202381Y-135154762D01*
X145178571Y-135178571D01*
D14*
X145138095Y-142652381D02*
X145138095Y-143461905D01*
X145185714Y-143557143D01*
X145233333Y-143604762D01*
X145328571Y-143652381D01*
X145519048Y-143652381D01*
X145614286Y-143604762D01*
X145661905Y-143557143D01*
X145709524Y-143461905D01*
X145709524Y-142652381D01*
X146090476Y-142652381D02*
X146709524Y-142652381D01*
X146376190Y-143033333D01*
X146519048Y-143033333D01*
X146614286Y-143080952D01*
X146661905Y-143128571D01*
X146709524Y-143223810D01*
X146709524Y-143461905D01*
X146661905Y-143557143D01*
X146614286Y-143604762D01*
X146519048Y-143652381D01*
X146233333Y-143652381D01*
X146138095Y-143604762D01*
X146090476Y-143557143D01*
M02*
