M48
;DRILL file {pcbnew (after 2015-mar-04 BZR unknown)-product} date 20/07/2015 3:05:57 PM
;FORMAT={-:-/ absolute / inch / decimal}
FMAT,2
INCH,TZ
T1C0.012
T2C0.016
T3C0.020
T4C0.022
T5C0.040
T6C0.120
%
G90
G05
M72
T1
X5.6693Y-5.2362
T2
X5.076Y-5.435
X5.1527Y-5.3898
X5.2514Y-5.425
X5.2624Y-6.2578
X5.2806Y-5.4823
X5.2846Y-5.7501
X5.2866Y-5.4111
X5.287Y-6.2211
X5.2888Y-5.5714
X5.2888Y-5.7041
X5.3047Y-5.5414
X5.3106Y-5.8819
X5.3242Y-5.328
X5.3284Y-5.9544
X5.3378Y-5.1985
X5.3404Y-5.4993
X5.3544Y-6.192
X5.3749Y-6.0511
X5.3893Y-6.1814
X5.3948Y-6.1486
X5.4228Y-5.5825
X5.4229Y-5.8671
X5.4944Y-5.6874
X5.4995Y-5.61
X5.5219Y-5.8599
X5.5271Y-6.1405
X5.5579Y-5.1724
X5.6123Y-5.9879
X5.6221Y-5.813
X5.6254Y-5.2819
X5.6257Y-5.6651
X5.6317Y-6.1403
X5.6323Y-5.9614
X5.6437Y-6.1719
X5.6617Y-6.0017
X5.6712Y-6.3866
X5.6866Y-5.6184
X5.6943Y-5.5213
X5.7131Y-5.7006
X5.7206Y-5.5031
X5.721Y-5.7916
X5.7286Y-5.6205
X5.732Y-5.9826
X5.7331Y-6.2181
X5.7337Y-5.6717
X5.7362Y-5.2362
X5.7366Y-5.7268
X5.7389Y-5.8698
X5.7521Y-5.5074
X5.7705Y-5.8697
X5.7708Y-5.9849
X5.802Y-5.8701
X5.8081Y-5.3921
X5.8118Y-5.3041
X5.8199Y-6.2301
X5.8276Y-5.6549
X5.831Y-5.4962
X5.8486Y-5.844
X5.8487Y-5.5268
X5.8517Y-5.7392
X5.8667Y-5.8175
X5.8805Y-6.2894
X5.8839Y-6.0888
X5.8853Y-6.0004
X5.8862Y-6.0531
X5.8928Y-6.1839
X5.9367Y-5.9308
X5.9531Y-5.4575
X5.9652Y-5.6752
X5.9702Y-5.8211
X5.9715Y-6.4245
X5.9744Y-6.2895
X5.9841Y-5.5079
X5.9862Y-5.8704
X5.9963Y-5.5566
X6.0333Y-5.3251
X6.0435Y-5.234
X6.0577Y-6.0854
X6.0645Y-5.7326
X6.0726Y-6.3654
X6.0765Y-6.1139
X6.0863Y-5.9318
X6.153Y-5.8642
X6.1682Y-5.5573
X6.1832Y-5.7611
X6.1939Y-6.0268
X6.206Y-5.6241
X6.2608Y-6.1933
X6.3016Y-5.8174
X6.3087Y-5.4648
X6.3267Y-6.1645
T5
X5.2953Y-5.1181
X5.3953Y-5.1181
X5.4953Y-5.1181
X5.5953Y-5.1181
X5.6953Y-5.1181
X5.7953Y-5.1181
X5.8953Y-5.1181
X5.9953Y-5.1181
X6.0024Y-5.3937
X6.1024Y-5.3937
T6
X5.1575Y-5.1575
X5.1575Y-6.3386
X6.3386Y-5.1575
X6.3386Y-6.3386
T3
X5.1353Y-5.7441G85X5.1609Y-5.7441
G05
X5.1353Y-6.0196G85X5.1609Y-6.0196
G05
T4
X5.2544Y-5.7775G85X5.2544Y-5.7893
G05
X5.2544Y-5.9744G85X5.2544Y-5.9862
G05
T0
M30
