G04 #@! TF.FileFunction,Copper,L2,Bot,Signal*
%FSLAX46Y46*%
G04 Gerber Fmt 4.6, Leading zero omitted, Abs format (unit mm)*
G04 Created by KiCad (PCBNEW (after 2015-mar-04 BZR unknown)-product) date 20/07/2015 3:05:55 PM*
%MOMM*%
G01*
G04 APERTURE LIST*
%ADD10C,0.100000*%
%ADD11C,0.150000*%
%ADD12C,0.800000*%
%ADD13O,0.800000X1.200000*%
%ADD14R,1.727200X2.032000*%
%ADD15O,1.727200X2.032000*%
%ADD16C,4.064000*%
%ADD17R,2.032000X2.032000*%
%ADD18O,2.032000X2.032000*%
%ADD19O,1.400000X1.000000*%
%ADD20R,0.800000X0.800000*%
%ADD21C,1.800000*%
%ADD22R,1.250000X1.500000*%
%ADD23R,1.500000X1.250000*%
%ADD24O,0.950000X1.250000*%
%ADD25O,1.550000X1.000000*%
%ADD26R,1.300000X1.500000*%
%ADD27C,0.600000*%
%ADD28C,0.250000*%
G04 APERTURE END LIST*
D10*
D11*
X146100000Y-160700000D02*
X146800000Y-160700000D01*
X146100000Y-160600000D02*
X146800000Y-160600000D01*
X146100000Y-160600000D02*
X146800000Y-160600000D01*
X146100000Y-160700000D02*
X146800000Y-160700000D01*
X146100000Y-160800000D02*
X146800000Y-160800000D01*
X146100000Y-159400000D02*
X146900000Y-159400000D01*
X146100000Y-159300000D02*
X146900000Y-159300000D01*
X146100000Y-159400000D02*
X146900000Y-159400000D01*
D12*
X140058579Y-141558579D02*
X140341421Y-141841421D01*
X139858579Y-143458579D02*
X140141421Y-143741421D01*
D13*
X143000000Y-145000000D03*
D14*
X134500000Y-130000000D03*
D15*
X137040000Y-130000000D03*
X139580000Y-130000000D03*
X142120000Y-130000000D03*
X144660000Y-130000000D03*
X147200000Y-130000000D03*
X149740000Y-130000000D03*
X152280000Y-130000000D03*
D16*
X131000000Y-161000000D03*
D17*
X155000000Y-137000000D03*
D18*
X152460000Y-137000000D03*
D19*
X144000000Y-133000000D03*
X145700000Y-133000000D03*
D20*
X147100000Y-160700000D03*
X145900000Y-160700000D03*
X145900000Y-159400000D03*
X147100000Y-159400000D03*
D16*
X161000000Y-161000000D03*
X131000000Y-131000000D03*
X161000000Y-131000000D03*
D21*
X158500000Y-144000000D03*
X158500000Y-151500000D03*
X149000000Y-136000000D03*
D22*
X130500000Y-157650000D03*
X130500000Y-155150000D03*
X153000000Y-162250000D03*
X153000000Y-159750000D03*
X157400000Y-162450000D03*
X157400000Y-159950000D03*
D23*
X141750000Y-162500000D03*
X139250000Y-162500000D03*
D22*
X153000000Y-150250000D03*
X153000000Y-147750000D03*
D23*
X160350000Y-157900000D03*
X162850000Y-157900000D03*
D22*
X136600000Y-149150000D03*
X136600000Y-146650000D03*
X130700000Y-150650000D03*
X130700000Y-148150000D03*
X136600000Y-142050000D03*
X136600000Y-144550000D03*
D24*
X133462540Y-146899100D03*
X133462540Y-151899100D03*
D25*
X130762540Y-145899100D03*
X130762540Y-152899100D03*
D26*
X157500000Y-133850000D03*
X157500000Y-131150000D03*
X146400000Y-137950000D03*
X146400000Y-135250000D03*
X156000000Y-150350000D03*
X156000000Y-147650000D03*
X161500000Y-146150000D03*
X161500000Y-148850000D03*
X161500000Y-137850000D03*
X161500000Y-135150000D03*
X161500000Y-143350000D03*
X161500000Y-140650000D03*
X130500000Y-139650000D03*
X130500000Y-142350000D03*
D27*
X160697400Y-156579200D03*
X149364700Y-159750000D03*
X134289900Y-158015300D03*
X156671900Y-141156500D03*
X159024200Y-157308600D03*
X151750000Y-159752600D03*
X149509600Y-153750000D03*
X156286100Y-148950400D03*
X144049300Y-162218700D03*
X154244500Y-161680200D03*
X154343300Y-155293500D03*
X154592100Y-150667100D03*
X151675100Y-163182500D03*
X152049700Y-149107000D03*
X145620700Y-157939300D03*
X146577600Y-152017300D03*
X149451700Y-154655500D03*
X153866000Y-154568700D03*
X135342000Y-151241900D03*
X137741100Y-149023500D03*
X134126600Y-139249200D03*
X137740300Y-141795000D03*
X130878900Y-136900000D03*
X135646200Y-139682600D03*
X134227600Y-146053000D03*
X134336500Y-144883500D03*
X134336500Y-141514500D03*
X134888400Y-149399100D03*
X134279700Y-137442100D03*
X160060400Y-147762900D03*
X128930000Y-138050000D03*
X133664600Y-158948000D03*
X151994900Y-139899500D03*
X154037300Y-145608400D03*
X157633000Y-142853400D03*
X147825300Y-158244400D03*
X147619400Y-134724100D03*
X145708400Y-145460800D03*
X145636300Y-144061600D03*
X135580400Y-132041100D03*
X145303100Y-139777500D03*
X145506100Y-142760300D03*
X144635200Y-140241600D03*
X141169800Y-131379100D03*
X144439500Y-142707100D03*
X142801000Y-147650000D03*
X136887300Y-157007000D03*
X140256800Y-148840200D03*
X136001400Y-157276100D03*
X142551800Y-152092500D03*
X140389100Y-155969100D03*
X145769300Y-149093900D03*
X143045400Y-155964600D03*
X143349900Y-156765000D03*
X146569700Y-149089600D03*
X157054500Y-146331900D03*
X160240100Y-138804900D03*
X153505100Y-132943600D03*
X142885000Y-134159100D03*
X135234400Y-135331000D03*
X133386700Y-137794200D03*
X148633300Y-145776300D03*
X150793400Y-150642000D03*
X145113900Y-144796400D03*
X157324200Y-153081500D03*
X147370100Y-149099500D03*
X143808100Y-152442200D03*
X136521700Y-153698500D03*
X145592400Y-151958300D03*
X137028900Y-156174700D03*
X149486700Y-152409900D03*
X148021800Y-143633400D03*
X148107700Y-139602400D03*
X148558000Y-140379600D03*
X139687200Y-142492900D03*
X139558800Y-144458700D03*
X142892700Y-143894700D03*
X151642500Y-147855200D03*
X149014000Y-147765700D03*
X151515700Y-144150000D03*
X151209200Y-138619300D03*
X145312400Y-147107500D03*
X153245900Y-135258800D03*
X146103500Y-139888100D03*
X143060800Y-151420600D03*
X147525800Y-136959700D03*
X152306400Y-141137800D03*
X134739000Y-140750300D03*
X148554100Y-148437800D03*
X149676400Y-157072200D03*
D28*
X160350000Y-157900000D02*
X160081200Y-157900000D01*
X160081200Y-157900000D02*
X159812400Y-157900000D01*
X160081200Y-157195400D02*
X160697400Y-156579200D01*
X160081200Y-157900000D02*
X160081200Y-157195400D01*
X130500000Y-157650000D02*
X131450300Y-157650000D01*
X150406900Y-160830600D02*
X149364700Y-159788400D01*
X155287500Y-160830600D02*
X150406900Y-160830600D01*
X155513900Y-161057000D02*
X155287500Y-160830600D01*
X158186800Y-161057000D02*
X155513900Y-161057000D01*
X158359500Y-160884300D02*
X158186800Y-161057000D01*
X158359500Y-159352900D02*
X158359500Y-160884300D01*
X159812400Y-157900000D02*
X158359500Y-159352900D01*
X149364700Y-159788400D02*
X149364700Y-159750000D01*
X134038600Y-159573300D02*
X134237000Y-159374900D01*
X133373600Y-159573300D02*
X134038600Y-159573300D01*
X131450300Y-157650000D02*
X133373600Y-159573300D01*
X147603400Y-161549700D02*
X149364700Y-159788400D01*
X140865200Y-161549700D02*
X147603400Y-161549700D01*
X140674600Y-161740300D02*
X140865200Y-161549700D01*
X140674600Y-162916000D02*
X140674600Y-161740300D01*
X140113200Y-163477400D02*
X140674600Y-162916000D01*
X138339500Y-163477400D02*
X140113200Y-163477400D01*
X134237000Y-159374900D02*
X138339500Y-163477400D01*
X134289900Y-159322000D02*
X134289900Y-158015300D01*
X134237000Y-159374900D02*
X134289900Y-159322000D01*
X147100000Y-159400000D02*
X147100000Y-158674700D01*
X145900000Y-160700000D02*
X145174700Y-160700000D01*
X130700000Y-148150000D02*
X131650300Y-148150000D01*
X136600000Y-144550000D02*
X136600000Y-146650000D01*
X136600000Y-146650000D02*
X135649700Y-146650000D01*
X131862800Y-152899100D02*
X131862800Y-148362500D01*
X133937200Y-148362500D02*
X131862800Y-148362500D01*
X135649700Y-146650000D02*
X133937200Y-148362500D01*
X131862800Y-148362500D02*
X131650300Y-148150000D01*
X139250000Y-162500000D02*
X139250000Y-161549700D01*
X130762500Y-152899100D02*
X131787800Y-152899100D01*
X131787800Y-152899100D02*
X131862800Y-152899100D01*
X157500000Y-133850000D02*
X156524700Y-133850000D01*
X155610000Y-133850000D02*
X156524700Y-133850000D01*
X152460000Y-137000000D02*
X155610000Y-133850000D01*
X152460000Y-137000000D02*
X152460000Y-138341300D01*
X156249700Y-159750000D02*
X156449700Y-159950000D01*
X153000000Y-159750000D02*
X156249700Y-159750000D01*
X157400000Y-159950000D02*
X156924900Y-159950000D01*
X156924900Y-159950000D02*
X156449700Y-159950000D01*
X153000000Y-143796500D02*
X153000000Y-146674700D01*
X156924900Y-159407900D02*
X159024200Y-157308600D01*
X156924900Y-159950000D02*
X156924900Y-159407900D01*
X162850000Y-157900000D02*
X162850000Y-156949700D01*
X161500000Y-148850000D02*
X161500000Y-155938700D01*
X160394100Y-155938700D02*
X161500000Y-155938700D01*
X159024200Y-157308600D02*
X160394100Y-155938700D01*
X161839000Y-155938700D02*
X162850000Y-156949700D01*
X161500000Y-155938700D02*
X161839000Y-155938700D01*
X139250000Y-161200500D02*
X139250000Y-161549700D01*
X139750500Y-160700000D02*
X145174700Y-160700000D01*
X139250000Y-161200500D02*
X139750500Y-160700000D01*
X145363100Y-158674700D02*
X147100000Y-158674700D01*
X145174700Y-158863100D02*
X145363100Y-158674700D01*
X145174700Y-160700000D02*
X145174700Y-158863100D01*
X152047100Y-159752600D02*
X152049700Y-159750000D01*
X151750000Y-159752600D02*
X152047100Y-159752600D01*
X153000000Y-159750000D02*
X152049700Y-159750000D01*
X147100000Y-158063500D02*
X147100000Y-158674700D01*
X147544400Y-157619100D02*
X147100000Y-158063500D01*
X148834900Y-157619100D02*
X147544400Y-157619100D01*
X149051100Y-157402900D02*
X148834900Y-157619100D01*
X151398200Y-159750000D02*
X152049700Y-159750000D01*
X149051100Y-157402900D02*
X151398200Y-159750000D01*
X153000000Y-147750000D02*
X153000000Y-147212300D01*
X153000000Y-147212300D02*
X153000000Y-146674700D01*
X154738100Y-148950400D02*
X156286100Y-148950400D01*
X153000000Y-147212300D02*
X154738100Y-148950400D01*
X150107700Y-154348100D02*
X149509600Y-153750000D01*
X150107700Y-155374300D02*
X150107700Y-154348100D01*
X149051100Y-156430900D02*
X150107700Y-155374300D01*
X149051100Y-157402900D02*
X149051100Y-156430900D01*
X130500000Y-155150000D02*
X130500000Y-154074700D01*
X131787800Y-154074700D02*
X130500000Y-154074700D01*
X131787800Y-152899100D02*
X131787800Y-154074700D01*
X138404600Y-161200500D02*
X139250000Y-161200500D01*
X131787800Y-154583700D02*
X138404600Y-161200500D01*
X131787800Y-154074700D02*
X131787800Y-154583700D01*
X154031900Y-143796500D02*
X153000000Y-143796500D01*
X156671900Y-141156500D02*
X154031900Y-143796500D01*
X151149300Y-141945800D02*
X153000000Y-143796500D01*
X151149300Y-139652000D02*
X151149300Y-141945800D01*
X152460000Y-138341300D02*
X151149300Y-139652000D01*
X153237600Y-162250000D02*
X153950300Y-162250000D01*
X157400000Y-162450000D02*
X156449700Y-162450000D01*
X153237600Y-162250000D02*
X153000000Y-162250000D01*
X152018400Y-162218700D02*
X144049300Y-162218700D01*
X152049700Y-162250000D02*
X152018400Y-162218700D01*
X153000000Y-162250000D02*
X152049700Y-162250000D01*
X154244500Y-162250000D02*
X154244500Y-161680200D01*
X156249700Y-162250000D02*
X154244500Y-162250000D01*
X156449700Y-162450000D02*
X156249700Y-162250000D01*
X154244500Y-162250000D02*
X153950300Y-162250000D01*
X154592100Y-155044700D02*
X154592100Y-150667100D01*
X154343300Y-155293500D02*
X154592100Y-155044700D01*
X141750000Y-162500000D02*
X142825300Y-162500000D01*
X143507800Y-163182500D02*
X151675100Y-163182500D01*
X142825300Y-162500000D02*
X143507800Y-163182500D01*
X156000000Y-150350000D02*
X155512400Y-150350000D01*
X153000000Y-150250000D02*
X152049700Y-150250000D01*
X152049700Y-150250000D02*
X152049700Y-149107000D01*
X154158500Y-150041800D02*
X153950300Y-150250000D01*
X155204200Y-150041800D02*
X154158500Y-150041800D01*
X155512400Y-150350000D02*
X155204200Y-150041800D01*
X153000000Y-150250000D02*
X153950300Y-150250000D01*
X148575600Y-154655500D02*
X149451700Y-154655500D01*
X148575600Y-156007500D02*
X148575600Y-154655500D01*
X147507500Y-157075600D02*
X148575600Y-156007500D01*
X146484400Y-157075600D02*
X147507500Y-157075600D01*
X145620700Y-157939300D02*
X146484400Y-157075600D01*
X148575600Y-154015300D02*
X146577600Y-152017300D01*
X148575600Y-154655500D02*
X148575600Y-154015300D01*
X153866000Y-152191300D02*
X153866000Y-154568700D01*
X153000000Y-151325300D02*
X153866000Y-152191300D01*
X153000000Y-150250000D02*
X153000000Y-151325300D01*
X135780300Y-157939300D02*
X145620700Y-157939300D01*
X134984800Y-157143800D02*
X135780300Y-157939300D01*
X134984800Y-151599100D02*
X134984800Y-157143800D01*
X135342000Y-151241900D02*
X134984800Y-151599100D01*
X136600000Y-149150000D02*
X137550300Y-149150000D01*
X137676800Y-149023500D02*
X137741100Y-149023500D01*
X137550300Y-149150000D02*
X137676800Y-149023500D01*
X130700000Y-150650000D02*
X129749700Y-150650000D01*
X132101200Y-141274600D02*
X134126600Y-139249200D01*
X129711000Y-141274600D02*
X132101200Y-141274600D01*
X129524600Y-141461000D02*
X129711000Y-141274600D01*
X129524600Y-150424900D02*
X129524600Y-141461000D01*
X129749700Y-150650000D02*
X129524600Y-150424900D01*
X136600000Y-142050000D02*
X137550300Y-142050000D01*
X137550300Y-141985000D02*
X137740300Y-141795000D01*
X137550300Y-142050000D02*
X137550300Y-141985000D01*
X130500000Y-139650000D02*
X131475300Y-139650000D01*
X130878900Y-137001400D02*
X130878900Y-136900000D01*
X132501400Y-138623900D02*
X130878900Y-137001400D01*
X132501400Y-138623900D02*
X131475300Y-139650000D01*
X135602700Y-139682600D02*
X135646200Y-139682600D01*
X134544000Y-138623900D02*
X135602700Y-139682600D01*
X132501400Y-138623900D02*
X134544000Y-138623900D01*
X135602700Y-144677900D02*
X134227600Y-146053000D01*
X135602700Y-139682600D02*
X135602700Y-144677900D01*
X134336500Y-141514500D02*
X134336500Y-144883500D01*
X134379400Y-137442100D02*
X134279700Y-137442100D01*
X138369300Y-141432000D02*
X134379400Y-137442100D01*
X138369300Y-146792700D02*
X138369300Y-141432000D01*
X137087400Y-148074600D02*
X138369300Y-146792700D01*
X135789400Y-148074600D02*
X137087400Y-148074600D01*
X134888400Y-148975600D02*
X135789400Y-148074600D01*
X134888400Y-149399100D02*
X134888400Y-148975600D01*
X149740000Y-130000000D02*
X150928900Y-130000000D01*
X161818400Y-147762900D02*
X160060400Y-147762900D01*
X163385700Y-146195600D02*
X161818400Y-147762900D01*
X163385700Y-130039700D02*
X163385700Y-146195600D01*
X161973100Y-128627100D02*
X163385700Y-130039700D01*
X151781700Y-128627100D02*
X161973100Y-128627100D01*
X150928900Y-129479900D02*
X151781700Y-128627100D01*
X150928900Y-130000000D02*
X150928900Y-129479900D01*
X131114600Y-156398000D02*
X133664600Y-158948000D01*
X129902500Y-156398000D02*
X131114600Y-156398000D01*
X128930000Y-155425500D02*
X129902500Y-156398000D01*
X128930000Y-138050000D02*
X128930000Y-155425500D01*
X161500000Y-146150000D02*
X162475300Y-146150000D01*
X162475300Y-142465200D02*
X162475300Y-146150000D01*
X162284800Y-142274700D02*
X162475300Y-142465200D01*
X161181300Y-142274700D02*
X162284800Y-142274700D01*
X160507000Y-141600400D02*
X161181300Y-142274700D01*
X160507000Y-139727800D02*
X160507000Y-141600400D01*
X160660200Y-139574600D02*
X160507000Y-139727800D01*
X161681300Y-139574600D02*
X160660200Y-139574600D01*
X162475300Y-138780600D02*
X161681300Y-139574600D01*
X162475300Y-136918300D02*
X162475300Y-138780600D01*
X162331700Y-136774700D02*
X162475300Y-136918300D01*
X159219700Y-136774700D02*
X162331700Y-136774700D01*
X154193700Y-141800700D02*
X159219700Y-136774700D01*
X152066600Y-141800700D02*
X154193700Y-141800700D01*
X151654600Y-141388700D02*
X152066600Y-141800700D01*
X151654600Y-140239800D02*
X151654600Y-141388700D01*
X151994900Y-139899500D02*
X151654600Y-140239800D01*
X161500000Y-137850000D02*
X160524700Y-137850000D01*
X154037300Y-144675700D02*
X154037300Y-145608400D01*
X157824900Y-140888100D02*
X154037300Y-144675700D01*
X157824900Y-140325800D02*
X157824900Y-140888100D01*
X160300700Y-137850000D02*
X157824900Y-140325800D01*
X160524700Y-137850000D02*
X160300700Y-137850000D01*
X161500000Y-143350000D02*
X160524700Y-143350000D01*
X157783500Y-142702900D02*
X157633000Y-142853400D01*
X159877600Y-142702900D02*
X157783500Y-142702900D01*
X160524700Y-143350000D02*
X159877600Y-142702900D01*
X147825300Y-159974700D02*
X147825300Y-158244400D01*
X147100000Y-160700000D02*
X147825300Y-159974700D01*
X147375300Y-134968200D02*
X147619400Y-134724100D01*
X147375300Y-135250000D02*
X147375300Y-134968200D01*
X146400000Y-135250000D02*
X147375300Y-135250000D01*
X147200000Y-130000000D02*
X146011100Y-130000000D01*
X146011100Y-129479900D02*
X146011100Y-130000000D01*
X145186100Y-128654900D02*
X146011100Y-129479900D01*
X141593100Y-128654900D02*
X145186100Y-128654900D01*
X140850000Y-129398000D02*
X141593100Y-128654900D01*
X140850000Y-130630500D02*
X140850000Y-129398000D01*
X140539100Y-130941400D02*
X140850000Y-130630500D01*
X140539100Y-136519500D02*
X140539100Y-130941400D01*
X142579200Y-138559600D02*
X140539100Y-136519500D01*
X142579300Y-138559600D02*
X142579200Y-138559600D01*
X142579300Y-139124000D02*
X142579300Y-138559600D01*
X144613000Y-141157700D02*
X142579300Y-139124000D01*
X144837600Y-141157700D02*
X144613000Y-141157700D01*
X146261600Y-142581700D02*
X144837600Y-141157700D01*
X146261600Y-144907600D02*
X146261600Y-142581700D01*
X145708400Y-145460800D02*
X146261600Y-144907600D01*
X135580400Y-134784300D02*
X135580400Y-132041100D01*
X144857700Y-144061600D02*
X135580400Y-134784300D01*
X145636300Y-144061600D02*
X144857700Y-144061600D01*
X142120000Y-130000000D02*
X142120000Y-131341300D01*
X142120000Y-136594400D02*
X145303100Y-139777500D01*
X142120000Y-131341300D02*
X142120000Y-136594400D01*
X139580000Y-130000000D02*
X139580000Y-131341300D01*
X139580000Y-136834200D02*
X139580000Y-131341300D01*
X145506100Y-142760300D02*
X139580000Y-136834200D01*
X141169800Y-136513300D02*
X141169800Y-131379100D01*
X141169900Y-136513300D02*
X141169800Y-136513300D01*
X144635200Y-139978600D02*
X141169900Y-136513300D01*
X144635200Y-140241600D02*
X144635200Y-139978600D01*
X134500000Y-130000000D02*
X135688900Y-130000000D01*
X135688900Y-130863900D02*
X135688900Y-130000000D01*
X136205700Y-131380700D02*
X135688900Y-130863900D01*
X136205700Y-134473300D02*
X136205700Y-131380700D01*
X144439500Y-142707100D02*
X136205700Y-134473300D01*
X137705800Y-152745200D02*
X142801000Y-147650000D01*
X136568300Y-152745200D02*
X137705800Y-152745200D01*
X135896300Y-153417200D02*
X136568300Y-152745200D01*
X135896300Y-156016000D02*
X135896300Y-153417200D01*
X136887300Y-157007000D02*
X135896300Y-156016000D01*
X140256800Y-148840300D02*
X140256800Y-148840200D01*
X139823400Y-148840300D02*
X140256800Y-148840300D01*
X135446000Y-153217700D02*
X139823400Y-148840300D01*
X135446000Y-156720700D02*
X135446000Y-153217700D01*
X136001400Y-157276100D02*
X135446000Y-156720700D01*
X140389100Y-154255200D02*
X142551800Y-152092500D01*
X140389100Y-155969100D02*
X140389100Y-154255200D01*
X144516700Y-150346500D02*
X145769300Y-149093900D01*
X144516700Y-152618000D02*
X144516700Y-150346500D01*
X143868100Y-153266600D02*
X144516700Y-152618000D01*
X143868100Y-155141900D02*
X143868100Y-153266600D01*
X143045400Y-155964600D02*
X143868100Y-155141900D01*
X146569700Y-149569400D02*
X146569700Y-149089600D01*
X144967000Y-151172100D02*
X146569700Y-149569400D01*
X144967000Y-152804600D02*
X144967000Y-151172100D01*
X144318400Y-153453200D02*
X144967000Y-152804600D01*
X144318400Y-155796500D02*
X144318400Y-153453200D01*
X143349900Y-156765000D02*
X144318400Y-155796500D01*
X160240100Y-139280300D02*
X160240100Y-138804900D01*
X157007600Y-142512800D02*
X160240100Y-139280300D01*
X157007600Y-146285000D02*
X157007600Y-142512800D01*
X157054500Y-146331900D02*
X157007600Y-146285000D01*
X142885000Y-132714800D02*
X142885000Y-134159100D01*
X143425200Y-132174600D02*
X142885000Y-132714800D01*
X152736100Y-132174600D02*
X143425200Y-132174600D01*
X153505100Y-132943600D02*
X152736100Y-132174600D01*
X133386700Y-137228500D02*
X133386700Y-137794200D01*
X135284200Y-135331000D02*
X133386700Y-137228500D01*
X150793400Y-147936400D02*
X148633300Y-145776300D01*
X150793400Y-150642000D02*
X150793400Y-147936400D01*
X144749600Y-144796400D02*
X135284200Y-135331000D01*
X145113900Y-144796400D02*
X144749600Y-144796400D01*
X135284200Y-135331000D02*
X135234400Y-135331000D01*
X156000000Y-147650000D02*
X156975300Y-147650000D01*
X159747800Y-150422500D02*
X156975300Y-147650000D01*
X159747800Y-152064300D02*
X159747800Y-150422500D01*
X158730600Y-153081500D02*
X159747800Y-152064300D01*
X157324200Y-153081500D02*
X158730600Y-153081500D01*
X147370100Y-148456600D02*
X147370100Y-149099500D01*
X143808100Y-150170200D02*
X143808100Y-152442200D01*
X145521700Y-148456600D02*
X143808100Y-150170200D01*
X147370100Y-148456600D02*
X145521700Y-148456600D01*
X148686300Y-147140400D02*
X147370100Y-148456600D01*
X149273100Y-147140400D02*
X148686300Y-147140400D01*
X149639300Y-147506600D02*
X149273100Y-147140400D01*
X149639300Y-150404300D02*
X149639300Y-147506600D01*
X152239300Y-153004300D02*
X149639300Y-150404300D01*
X152239300Y-154783000D02*
X152239300Y-153004300D01*
X153866200Y-156409900D02*
X152239300Y-154783000D01*
X154823900Y-156409900D02*
X153866200Y-156409900D01*
X157324200Y-153909600D02*
X154823900Y-156409900D01*
X157324200Y-153081500D02*
X157324200Y-153909600D01*
X143252400Y-152997900D02*
X143808100Y-152442200D01*
X143252400Y-153990200D02*
X143252400Y-152997900D01*
X140648200Y-156594400D02*
X143252400Y-153990200D01*
X139417600Y-156594400D02*
X140648200Y-156594400D01*
X136521700Y-153698500D02*
X139417600Y-156594400D01*
X146158800Y-151391900D02*
X145592400Y-151958300D01*
X148468700Y-151391900D02*
X146158800Y-151391900D01*
X149486700Y-152409900D02*
X148468700Y-151391900D01*
X145592400Y-152816100D02*
X145592400Y-151958300D01*
X144768700Y-153639800D02*
X145592400Y-152816100D01*
X144768700Y-156230600D02*
X144768700Y-153639800D01*
X143609000Y-157390300D02*
X144768700Y-156230600D01*
X138244500Y-157390300D02*
X143609000Y-157390300D01*
X137028900Y-156174700D02*
X138244500Y-157390300D01*
X147932700Y-139777400D02*
X148107700Y-139602400D01*
X147932700Y-143544300D02*
X147932700Y-139777400D01*
X148021800Y-143633400D02*
X147932700Y-143544300D01*
X148733100Y-140204500D02*
X148558000Y-140379600D01*
X148733100Y-136266900D02*
X148733100Y-140204500D01*
X149000000Y-136000000D02*
X148733100Y-136266900D01*
X140200000Y-141700000D02*
X139687200Y-142212800D01*
X139687200Y-142212900D02*
X139687200Y-142492900D01*
X139687200Y-142212800D02*
X139687200Y-142212900D01*
X140000000Y-143600000D02*
X139487200Y-144112800D01*
X139558800Y-144184500D02*
X139558800Y-144458700D01*
X139487200Y-144112800D02*
X139558800Y-144184500D01*
X143000000Y-144002000D02*
X142892700Y-143894700D01*
X143000000Y-145000000D02*
X143000000Y-144002000D01*
X157983600Y-151500000D02*
X158500000Y-151500000D01*
X155724500Y-153759100D02*
X157983600Y-151500000D01*
X155724500Y-154819200D02*
X155724500Y-153759100D01*
X154607300Y-155936400D02*
X155724500Y-154819200D01*
X154089700Y-155936400D02*
X154607300Y-155936400D01*
X152953300Y-154800000D02*
X154089700Y-155936400D01*
X152953300Y-152879200D02*
X152953300Y-154800000D01*
X151420400Y-151346300D02*
X152953300Y-152879200D01*
X151420400Y-148077300D02*
X151420400Y-151346300D01*
X151642500Y-147855200D02*
X151420400Y-148077300D01*
X149179400Y-147931100D02*
X149014000Y-147765700D01*
X149179400Y-150581300D02*
X149179400Y-147931100D01*
X151239800Y-152641700D02*
X149179400Y-150581300D01*
X151239800Y-154429800D02*
X151239800Y-152641700D01*
X153690300Y-156880300D02*
X151239800Y-154429800D01*
X155630700Y-156880300D02*
X153690300Y-156880300D01*
X160200700Y-152310300D02*
X155630700Y-156880300D01*
X160200700Y-149738300D02*
X160200700Y-152310300D01*
X158500000Y-148037600D02*
X160200700Y-149738300D01*
X158500000Y-144000000D02*
X158500000Y-148037600D01*
X150659700Y-139168800D02*
X151209200Y-138619300D01*
X150659700Y-143294000D02*
X150659700Y-139168800D01*
X151515700Y-144150000D02*
X150659700Y-143294000D01*
X152290500Y-135258800D02*
X153245900Y-135258800D01*
X149633700Y-137915600D02*
X152290500Y-135258800D01*
X149633700Y-143542900D02*
X149633700Y-137915600D01*
X146069100Y-147107500D02*
X149633700Y-143542900D01*
X145312400Y-147107500D02*
X146069100Y-147107500D01*
X146103500Y-139668900D02*
X146103500Y-139888100D01*
X144000000Y-137565400D02*
X146103500Y-139668900D01*
X144000000Y-133000000D02*
X144000000Y-137565400D01*
X157500000Y-131150000D02*
X156524700Y-131150000D01*
X146400000Y-137412300D02*
X146400000Y-136874700D01*
X146400000Y-137412300D02*
X146400000Y-137950000D01*
X146400000Y-137950000D02*
X146400000Y-139025300D01*
X154099600Y-133575100D02*
X156524700Y-131150000D01*
X149687400Y-133575100D02*
X154099600Y-133575100D01*
X147531000Y-135731500D02*
X149687400Y-133575100D01*
X147531000Y-135982300D02*
X147531000Y-135731500D01*
X146638600Y-136874700D02*
X147531000Y-135982300D01*
X146400000Y-136874700D02*
X146638600Y-136874700D01*
X143060800Y-148474800D02*
X143060800Y-151420600D01*
X145053400Y-146482200D02*
X143060800Y-148474800D01*
X145571400Y-146482200D02*
X145053400Y-146482200D01*
X146782600Y-145271000D02*
X145571400Y-146482200D01*
X146782600Y-139407900D02*
X146782600Y-145271000D01*
X146400000Y-139025300D02*
X146782600Y-139407900D01*
X161500000Y-135150000D02*
X160524700Y-135150000D01*
X147396500Y-137089000D02*
X147525800Y-136959700D01*
X147396500Y-143929900D02*
X147396500Y-137089000D01*
X147788600Y-144322000D02*
X147396500Y-143929900D01*
X148217700Y-144322000D02*
X147788600Y-144322000D01*
X149183400Y-143356300D02*
X148217700Y-144322000D01*
X149183400Y-137729000D02*
X149183400Y-143356300D01*
X152767500Y-134144900D02*
X149183400Y-137729000D01*
X154166700Y-134144900D02*
X152767500Y-134144900D01*
X155537000Y-132774600D02*
X154166700Y-134144900D01*
X158393100Y-132774600D02*
X155537000Y-132774600D01*
X160524700Y-134906200D02*
X158393100Y-132774600D01*
X160524700Y-135150000D02*
X160524700Y-134906200D01*
X162935300Y-140190000D02*
X162475300Y-140650000D01*
X162935300Y-136687500D02*
X162935300Y-140190000D01*
X162529800Y-136282000D02*
X162935300Y-136687500D01*
X158246600Y-136282000D02*
X162529800Y-136282000D01*
X153390800Y-141137800D02*
X158246600Y-136282000D01*
X152306400Y-141137800D02*
X153390800Y-141137800D01*
X161500000Y-140650000D02*
X162475300Y-140650000D01*
X130500000Y-142350000D02*
X131475300Y-142350000D01*
X132616700Y-142350000D02*
X131475300Y-142350000D01*
X134216400Y-140750300D02*
X132616700Y-142350000D01*
X134739000Y-140750300D02*
X134216400Y-140750300D01*
X148554100Y-150592900D02*
X148554100Y-148437800D01*
X150558800Y-152597600D02*
X148554100Y-150592900D01*
X150558800Y-156189800D02*
X150558800Y-152597600D01*
X149676400Y-157072200D02*
X150558800Y-156189800D01*
M02*
