M48
;DRILL file {pcbnew (after 2015-mar-04 BZR unknown)-product} date 21/07/2015 11:23:43 AM
;FORMAT={-:-/ absolute / inch / decimal}
FMAT,2
INCH,TZ
T1C0.012
T2C0.016
T3C0.020
T4C0.022
T5C0.040
T6C0.120
%
G90
G05
M72
T1
X5.6693Y-5.2362
T2
X5.1114Y-5.435
X5.2769Y-5.4594
X5.278Y-6.2299
X5.2986Y-5.5944
X5.3023Y-5.5414
X5.3053Y-5.5018
X5.3108Y-5.7382
X5.3334Y-5.3228
X5.3349Y-6.2005
X5.3418Y-5.4993
X5.3671Y-6.0656
X5.405Y-6.1486
X5.4224Y-5.8674
X5.4266Y-5.5813
X5.4995Y-5.61
X5.5021Y-5.6961
X5.5033Y-5.9925
X5.5285Y-6.1528
X5.5763Y-5.5617
X5.6192Y-5.9723
X5.6225Y-5.813
X5.6271Y-6.3063
X5.6381Y-5.6648
X5.6437Y-6.1445
X5.6437Y-6.176
X5.6634Y-6.
X5.6687Y-5.6186
X5.6697Y-5.8481
X5.6912Y-5.5205
X5.6988Y-5.6343
X5.7214Y-6.2181
X5.7295Y-5.6199
X5.732Y-5.9864
X5.7362Y-5.2362
X5.7389Y-5.8698
X5.7393Y-5.8356
X5.7463Y-5.7577
X5.7582Y-5.4999
X5.7705Y-5.8697
X5.7723Y-5.9864
X5.7923Y-5.8467
X5.8016Y-5.7063
X5.8155Y-6.2345
X5.8199Y-5.679
X5.8449Y-5.5269
X5.8569Y-6.1775
X5.8693Y-5.7483
X5.8734Y-5.5027
X5.8734Y-5.6825
X5.88Y-6.3165
X5.8836Y-5.9306
X5.8894Y-5.2811
X5.8969Y-5.8965
X5.8996Y-5.5843
X5.9457Y-5.4528
X5.9716Y-5.6528
X5.9782Y-6.2851
X5.9788Y-5.7766
X5.9971Y-5.6721
X5.9972Y-5.5315
X5.9972Y-5.6032
X6.0479Y-5.2392
X6.0714Y-6.3608
X6.1048Y-5.9706
X6.124Y-6.0865
X6.1685Y-5.557
X6.1723Y-5.6426
X6.1913Y-6.122
X6.1915Y-6.0375
X6.1933Y-5.8206
X6.2357Y-5.8983
X6.4047Y-6.1614
T5
X5.2953Y-5.1181
X5.3953Y-5.1181
X5.4953Y-5.1181
X5.5953Y-5.1181
X5.6953Y-5.1181
X5.7953Y-5.1181
X5.8953Y-5.1181
X5.9953Y-5.1181
X6.0024Y-5.3937
X6.1024Y-5.3937
T6
X5.1575Y-5.1575
X5.1575Y-6.3386
X6.3386Y-5.1575
X6.3386Y-6.3386
T3
X5.1353Y-5.7441G85X5.1609Y-5.7441
G05
X5.1353Y-6.0196G85X5.1609Y-6.0196
G05
T4
X5.2544Y-5.7775G85X5.2544Y-5.7893
G05
X5.2544Y-5.9744G85X5.2544Y-5.9862
G05
T0
M30
