G04 #@! TF.FileFunction,Copper,L2,Bot,Signal*
%FSLAX46Y46*%
G04 Gerber Fmt 4.6, Leading zero omitted, Abs format (unit mm)*
G04 Created by KiCad (PCBNEW (after 2015-mar-04 BZR unknown)-product) date 21/07/2015 11:23:45 AM*
%MOMM*%
G01*
G04 APERTURE LIST*
%ADD10C,0.100000*%
%ADD11C,0.150000*%
%ADD12C,0.800000*%
%ADD13O,0.800000X1.200000*%
%ADD14R,1.727200X2.032000*%
%ADD15O,1.727200X2.032000*%
%ADD16C,4.064000*%
%ADD17R,2.032000X2.032000*%
%ADD18O,2.032000X2.032000*%
%ADD19O,1.400000X1.000000*%
%ADD20R,0.800000X0.800000*%
%ADD21C,1.800000*%
%ADD22R,1.250000X1.500000*%
%ADD23R,1.500000X1.250000*%
%ADD24O,0.950000X1.250000*%
%ADD25O,1.550000X1.000000*%
%ADD26R,1.300000X1.500000*%
%ADD27C,0.600000*%
%ADD28C,0.250000*%
G04 APERTURE END LIST*
D10*
D11*
X146100000Y-160700000D02*
X146800000Y-160700000D01*
X146100000Y-160600000D02*
X146800000Y-160600000D01*
X146100000Y-160600000D02*
X146800000Y-160600000D01*
X146100000Y-160700000D02*
X146800000Y-160700000D01*
X146100000Y-160800000D02*
X146800000Y-160800000D01*
X146100000Y-159400000D02*
X146900000Y-159400000D01*
X146100000Y-159300000D02*
X146900000Y-159300000D01*
X146100000Y-159400000D02*
X146900000Y-159400000D01*
D12*
X140058579Y-141558579D02*
X140341421Y-141841421D01*
X139858579Y-143458579D02*
X140141421Y-143741421D01*
D13*
X143000000Y-145000000D03*
D14*
X134500000Y-130000000D03*
D15*
X137040000Y-130000000D03*
X139580000Y-130000000D03*
X142120000Y-130000000D03*
X144660000Y-130000000D03*
X147200000Y-130000000D03*
X149740000Y-130000000D03*
X152280000Y-130000000D03*
D16*
X131000000Y-161000000D03*
D17*
X155000000Y-137000000D03*
D18*
X152460000Y-137000000D03*
D19*
X144000000Y-133000000D03*
X145700000Y-133000000D03*
D20*
X147100000Y-160700000D03*
X145900000Y-160700000D03*
X145900000Y-159400000D03*
X147100000Y-159400000D03*
D16*
X161000000Y-161000000D03*
X131000000Y-131000000D03*
X161000000Y-131000000D03*
D21*
X158500000Y-144000000D03*
X158500000Y-151500000D03*
X149000000Y-136000000D03*
D22*
X130500000Y-157650000D03*
X130500000Y-155150000D03*
X153000000Y-162250000D03*
X153000000Y-159750000D03*
X157400000Y-162450000D03*
X157400000Y-159950000D03*
D23*
X141750000Y-162500000D03*
X139250000Y-162500000D03*
D22*
X153000000Y-150250000D03*
X153000000Y-147750000D03*
D23*
X160350000Y-157900000D03*
X162850000Y-157900000D03*
D22*
X136600000Y-149150000D03*
X136600000Y-146650000D03*
X130700000Y-150650000D03*
X130700000Y-148150000D03*
X136600000Y-142050000D03*
X136600000Y-144550000D03*
D24*
X133462540Y-146899100D03*
X133462540Y-151899100D03*
D25*
X130762540Y-145899100D03*
X130762540Y-152899100D03*
D26*
X157500000Y-133850000D03*
X157500000Y-131150000D03*
X146400000Y-137950000D03*
X146400000Y-135250000D03*
X156000000Y-150350000D03*
X156000000Y-147650000D03*
X161500000Y-146150000D03*
X161500000Y-148850000D03*
X161500000Y-137850000D03*
X161500000Y-135150000D03*
X161500000Y-143350000D03*
X161500000Y-140650000D03*
X130500000Y-139650000D03*
X130500000Y-142350000D03*
D27*
X157309600Y-147842100D03*
X134061200Y-158239200D03*
X149350900Y-160440000D03*
X134585600Y-142098700D03*
X151679800Y-143580400D03*
X156681100Y-141148400D03*
X162680300Y-156500000D03*
X151845700Y-159641600D03*
X154212500Y-161563700D03*
X146616100Y-152055800D03*
X145323300Y-157938900D03*
X139784400Y-152209700D03*
X149782200Y-149771900D03*
X155550300Y-154598200D03*
X137728100Y-149031800D03*
X134753600Y-139746100D03*
X137835400Y-141764900D03*
X135681800Y-139682600D03*
X134895500Y-145749800D03*
X129829900Y-138050000D03*
X157258700Y-155500000D03*
X142927400Y-160179900D03*
X152328200Y-140500000D03*
X152327100Y-144071300D03*
X156777500Y-143322900D03*
X147714600Y-158355100D03*
X147826600Y-144246700D03*
X147360400Y-144940300D03*
X144556300Y-140221700D03*
X145528800Y-142746400D03*
X144750000Y-143111700D03*
X143984200Y-142712100D03*
X142810800Y-147650000D03*
X135506300Y-157493400D03*
X142726700Y-151697500D03*
X140423400Y-156280300D03*
X145769300Y-149091800D03*
X143349200Y-156069500D03*
X143349800Y-156869900D03*
X146569700Y-149089600D03*
X149079900Y-146006700D03*
X151022000Y-138500000D03*
X141636900Y-141266800D03*
X153615700Y-133074600D03*
X134032200Y-138670000D03*
X135468700Y-135198900D03*
X143851400Y-152398800D03*
X136325500Y-154065600D03*
X145779100Y-148223500D03*
X157264500Y-153351700D03*
X145592400Y-152054800D03*
X137287300Y-156174700D03*
X147124600Y-148505300D03*
X155061600Y-151652600D03*
X149183900Y-144335100D03*
X149183900Y-139768300D03*
X148459900Y-140382600D03*
X139687200Y-142492900D03*
X139753600Y-144680600D03*
X143208600Y-143887000D03*
X158386600Y-149817800D03*
X151862200Y-146725700D03*
X145956900Y-146245400D03*
X149849300Y-141842100D03*
X146257300Y-139696400D03*
X144010200Y-148542600D03*
X149590000Y-134140400D03*
X152328200Y-142322500D03*
X134677600Y-140750300D03*
X149442500Y-150638400D03*
X148764200Y-156909500D03*
D28*
X159925100Y-150457600D02*
X157309600Y-147842100D01*
X159925100Y-157900000D02*
X159925100Y-150457600D01*
X160350000Y-157900000D02*
X159925100Y-157900000D01*
X132039500Y-158239200D02*
X131450300Y-157650000D01*
X134061200Y-158239200D02*
X132039500Y-158239200D01*
X130500000Y-157650000D02*
X131450300Y-157650000D01*
X146340500Y-163450400D02*
X149350900Y-160440000D01*
X138352500Y-163450400D02*
X146340500Y-163450400D01*
X134061200Y-159159100D02*
X138352500Y-163450400D01*
X134061200Y-158239200D02*
X134061200Y-159159100D01*
X158575400Y-159249700D02*
X159925100Y-157900000D01*
X158575400Y-160646400D02*
X158575400Y-159249700D01*
X158186200Y-161035600D02*
X158575400Y-160646400D01*
X154699900Y-161035600D02*
X158186200Y-161035600D01*
X154541900Y-160877600D02*
X154699900Y-161035600D01*
X149788500Y-160877600D02*
X154541900Y-160877600D01*
X149350900Y-160440000D02*
X149788500Y-160877600D01*
X136600000Y-144550000D02*
X136600000Y-146650000D01*
X130762500Y-152899100D02*
X131312700Y-152899100D01*
X131219100Y-154430900D02*
X131312700Y-154430900D01*
X130500000Y-155150000D02*
X131219100Y-154430900D01*
X138431500Y-161549700D02*
X139250000Y-161549700D01*
X131312700Y-154430900D02*
X138431500Y-161549700D01*
X130700000Y-148150000D02*
X131650300Y-148150000D01*
X131312700Y-154430900D02*
X131312700Y-152899100D01*
X139250000Y-162500000D02*
X139250000Y-161549700D01*
X131650300Y-152561500D02*
X131650300Y-148150000D01*
X131312700Y-152899100D02*
X131650300Y-152561500D01*
X136600000Y-146650000D02*
X135649700Y-146650000D01*
X134895500Y-146650000D02*
X135649700Y-146650000D01*
X134895500Y-146838500D02*
X134895500Y-146650000D01*
X133584000Y-148150000D02*
X134895500Y-146838500D01*
X131650300Y-148150000D02*
X133584000Y-148150000D01*
X134260100Y-142424200D02*
X134585600Y-142098700D01*
X134260100Y-146014600D02*
X134260100Y-142424200D01*
X134895500Y-146650000D02*
X134260100Y-146014600D01*
X157400000Y-159950000D02*
X156449700Y-159950000D01*
X153000000Y-147750000D02*
X152049700Y-147750000D01*
X153000000Y-147750000D02*
X153000000Y-146674700D01*
X153141000Y-146533700D02*
X153000000Y-146674700D01*
X158208400Y-146533700D02*
X153141000Y-146533700D01*
X160524700Y-148850000D02*
X158208400Y-146533700D01*
X152002200Y-147750000D02*
X152049700Y-147750000D01*
X151179200Y-146927000D02*
X152002200Y-147750000D01*
X151179200Y-146055200D02*
X151179200Y-146927000D01*
X151679800Y-145554600D02*
X151179200Y-146055200D01*
X151679800Y-143580400D02*
X151679800Y-145554600D01*
X161350100Y-148850000D02*
X160524700Y-148850000D01*
X161350100Y-148850000D02*
X161425400Y-148850000D01*
X161500000Y-148850000D02*
X161425400Y-148850000D01*
X156249700Y-159750000D02*
X156449700Y-159950000D01*
X153000000Y-159750000D02*
X156249700Y-159750000D01*
X162850000Y-156669700D02*
X162850000Y-157900000D01*
X162680300Y-156500000D02*
X162850000Y-156669700D01*
X162680300Y-150104900D02*
X162680300Y-156500000D01*
X161425400Y-148850000D02*
X162680300Y-150104900D01*
X153000000Y-159750000D02*
X152049700Y-159750000D01*
X151702800Y-139098500D02*
X151702800Y-141148400D01*
X152460000Y-138341300D02*
X151702800Y-139098500D01*
X151679800Y-141171400D02*
X151702800Y-141148400D01*
X151679800Y-143580400D02*
X151679800Y-141171400D01*
X151702800Y-141148400D02*
X156681100Y-141148400D01*
X152460000Y-137000000D02*
X152460000Y-138228700D01*
X152460000Y-138228700D02*
X152460000Y-138341300D01*
X157500000Y-137070700D02*
X157500000Y-133850000D01*
X156229400Y-138341300D02*
X157500000Y-137070700D01*
X152460000Y-138341300D02*
X156229400Y-138341300D01*
X151941300Y-159641600D02*
X151845700Y-159641600D01*
X152049700Y-159750000D02*
X151941300Y-159641600D01*
X147100000Y-159400000D02*
X147100000Y-158674700D01*
X145900000Y-160700000D02*
X145900000Y-161425300D01*
X147635800Y-161425300D02*
X145900000Y-161425300D01*
X147936300Y-161124800D02*
X147635800Y-161425300D01*
X147936300Y-160898900D02*
X147936300Y-161124800D01*
X149313100Y-159522100D02*
X147936300Y-160898900D01*
X149432500Y-159641600D02*
X149313100Y-159522100D01*
X151845700Y-159641600D02*
X149432500Y-159641600D01*
X147028200Y-158602900D02*
X147100000Y-158674700D01*
X147028200Y-158152800D02*
X147028200Y-158602900D01*
X147480800Y-157700200D02*
X147028200Y-158152800D01*
X147997600Y-157700200D02*
X147480800Y-157700200D01*
X149113900Y-158816500D02*
X147997600Y-157700200D01*
X149113900Y-159323000D02*
X149113900Y-158816500D01*
X149313100Y-159522100D02*
X149113900Y-159323000D01*
X153000000Y-162250000D02*
X153950300Y-162250000D01*
X154150300Y-162450000D02*
X157400000Y-162450000D01*
X153950300Y-162250000D02*
X154150300Y-162450000D01*
X154212500Y-161987800D02*
X154212500Y-161563700D01*
X153950300Y-162250000D02*
X154212500Y-161987800D01*
X155412400Y-150250000D02*
X153950300Y-150250000D01*
X155512400Y-150350000D02*
X155412400Y-150250000D01*
X153000000Y-150250000D02*
X153950300Y-150250000D01*
X155949700Y-150350000D02*
X155949800Y-150350000D01*
X155949700Y-150350000D02*
X155512400Y-150350000D01*
X156000000Y-150350000D02*
X155949800Y-150350000D01*
X146636800Y-156625400D02*
X145323300Y-157938900D01*
X147984500Y-156625400D02*
X146636800Y-156625400D01*
X148134800Y-156475100D02*
X147984500Y-156625400D01*
X148134800Y-153574500D02*
X148134800Y-156475100D01*
X146616100Y-152055800D02*
X148134800Y-153574500D01*
X136630100Y-155364000D02*
X139784400Y-152209700D01*
X136630100Y-156425300D02*
X136630100Y-155364000D01*
X140677800Y-160473000D02*
X136630100Y-156425300D01*
X141750000Y-160473000D02*
X140677800Y-160473000D01*
X144284100Y-157938900D02*
X141750000Y-160473000D01*
X145323300Y-157938900D02*
X144284100Y-157938900D01*
X141750000Y-160473000D02*
X141750000Y-162500000D01*
X148900000Y-149771900D02*
X146616100Y-152055800D01*
X149782200Y-149771900D02*
X148900000Y-149771900D01*
X152382800Y-152372500D02*
X155550300Y-152372500D01*
X149782200Y-149771900D02*
X152382800Y-152372500D01*
X155949800Y-151973000D02*
X155550300Y-152372500D01*
X155949800Y-150350000D02*
X155949800Y-151973000D01*
X155550300Y-152372500D02*
X155550300Y-154598200D01*
X137668500Y-149031800D02*
X137550300Y-149150000D01*
X137728100Y-149031800D02*
X137668500Y-149031800D01*
X136600000Y-149150000D02*
X137550300Y-149150000D01*
X133225100Y-141274600D02*
X134753600Y-139746100D01*
X129632400Y-141274600D02*
X133225100Y-141274600D01*
X129524600Y-141382400D02*
X129632400Y-141274600D01*
X129524600Y-150424900D02*
X129524600Y-141382400D01*
X129749700Y-150650000D02*
X129524600Y-150424900D01*
X130700000Y-150650000D02*
X129749700Y-150650000D01*
X136600000Y-142050000D02*
X137550300Y-142050000D01*
X137550300Y-142050000D02*
X137835400Y-141764900D01*
X130987700Y-139650000D02*
X130947400Y-139650000D01*
X130987700Y-139650000D02*
X131475300Y-139650000D01*
X130723700Y-139650000D02*
X130947400Y-139650000D01*
X135620100Y-139682600D02*
X135681800Y-139682600D01*
X135620100Y-145025200D02*
X134895500Y-145749800D01*
X135620100Y-139682600D02*
X135620100Y-145025200D01*
X133965500Y-139650000D02*
X131475300Y-139650000D01*
X133965500Y-139649900D02*
X133965500Y-139650000D01*
X134494600Y-139120800D02*
X133965500Y-139649900D01*
X135058300Y-139120800D02*
X134494600Y-139120800D01*
X135620100Y-139682600D02*
X135058300Y-139120800D01*
X130500000Y-139650000D02*
X130723700Y-139650000D01*
X130500000Y-139650000D02*
X130500000Y-138574700D01*
X130354600Y-138574700D02*
X129829900Y-138050000D01*
X130500000Y-138574700D02*
X130354600Y-138574700D01*
X155214100Y-157544600D02*
X157258700Y-155500000D01*
X148515000Y-157544600D02*
X155214100Y-157544600D01*
X148190700Y-157220300D02*
X148515000Y-157544600D01*
X147067400Y-157220300D02*
X148190700Y-157220300D01*
X145713100Y-158574600D02*
X147067400Y-157220300D01*
X144532700Y-158574600D02*
X145713100Y-158574600D01*
X142927400Y-160179900D02*
X144532700Y-158574600D01*
X156490400Y-140500000D02*
X152328200Y-140500000D01*
X160215800Y-136774600D02*
X156490400Y-140500000D01*
X162315800Y-136774600D02*
X160215800Y-136774600D01*
X162930900Y-137389700D02*
X162315800Y-136774600D01*
X162930900Y-145694400D02*
X162930900Y-137389700D01*
X162475300Y-146150000D02*
X162930900Y-145694400D01*
X161500000Y-146150000D02*
X162475300Y-146150000D01*
X161500000Y-137850000D02*
X162475300Y-137850000D01*
X162475300Y-141617700D02*
X162475300Y-137850000D01*
X161845800Y-142247200D02*
X162475300Y-141617700D01*
X154151200Y-142247200D02*
X161845800Y-142247200D01*
X152327100Y-144071300D02*
X154151200Y-142247200D01*
X161500000Y-143350000D02*
X160524700Y-143350000D01*
X159937800Y-142763100D02*
X160524700Y-143350000D01*
X157337300Y-142763100D02*
X159937800Y-142763100D01*
X156777500Y-143322900D02*
X157337300Y-142763100D01*
X147825300Y-158465800D02*
X147714600Y-158355100D01*
X147825300Y-159974700D02*
X147825300Y-158465800D01*
X147100000Y-160700000D02*
X147825300Y-159974700D01*
X152774600Y-134774600D02*
X155000000Y-137000000D01*
X147850700Y-134774600D02*
X152774600Y-134774600D01*
X147375300Y-135250000D02*
X147850700Y-134774600D01*
X146400000Y-135250000D02*
X147375300Y-135250000D01*
X147200000Y-130000000D02*
X146011100Y-130000000D01*
X146011100Y-130520100D02*
X146011100Y-130000000D01*
X144613900Y-131917300D02*
X146011100Y-130520100D01*
X143709000Y-131917300D02*
X144613900Y-131917300D01*
X142974600Y-132651700D02*
X143709000Y-131917300D01*
X142974600Y-137118700D02*
X142974600Y-132651700D01*
X145631900Y-139776000D02*
X142974600Y-137118700D01*
X145631900Y-140124500D02*
X145631900Y-139776000D01*
X147826600Y-142319200D02*
X145631900Y-140124500D01*
X147826600Y-144246700D02*
X147826600Y-142319200D01*
X144660000Y-130000000D02*
X143471100Y-130000000D01*
X143471100Y-131188900D02*
X143471100Y-130000000D01*
X142524200Y-132135800D02*
X143471100Y-131188900D01*
X142524200Y-137305200D02*
X142524200Y-132135800D01*
X145181600Y-139962600D02*
X142524200Y-137305200D01*
X145181600Y-140311100D02*
X145181600Y-139962600D01*
X146178600Y-141308100D02*
X145181600Y-140311100D01*
X146178600Y-143758500D02*
X146178600Y-141308100D01*
X147360400Y-144940300D02*
X146178600Y-143758500D01*
X142120000Y-130000000D02*
X142120000Y-131341300D01*
X142057900Y-131403400D02*
X142120000Y-131341300D01*
X142057900Y-137723300D02*
X142057900Y-131403400D01*
X144556300Y-140221700D02*
X142057900Y-137723300D01*
X145528800Y-142078700D02*
X145528800Y-142746400D01*
X139580000Y-136129900D02*
X145528800Y-142078700D01*
X139580000Y-130000000D02*
X139580000Y-136129900D01*
X144750000Y-142255100D02*
X144750000Y-143111700D01*
X137040000Y-134545100D02*
X144750000Y-142255100D01*
X137040000Y-130000000D02*
X137040000Y-134545100D01*
X134500000Y-133227900D02*
X143984200Y-142712100D01*
X134500000Y-130000000D02*
X134500000Y-133227900D01*
X141754800Y-147650000D02*
X142810800Y-147650000D01*
X135506300Y-153898500D02*
X141754800Y-147650000D01*
X135506300Y-157493400D02*
X135506300Y-153898500D01*
X140423400Y-154000800D02*
X140423400Y-156280300D01*
X142726700Y-151697500D02*
X140423400Y-154000800D01*
X143349200Y-153785500D02*
X143349200Y-156069500D01*
X144516700Y-152618000D02*
X143349200Y-153785500D01*
X144516700Y-150344400D02*
X144516700Y-152618000D01*
X145769300Y-149091800D02*
X144516700Y-150344400D01*
X143448100Y-156869900D02*
X143349800Y-156869900D01*
X143974600Y-156343400D02*
X143448100Y-156869900D01*
X143974600Y-153797000D02*
X143974600Y-156343400D01*
X144967000Y-152804600D02*
X143974600Y-153797000D01*
X144967000Y-151172100D02*
X144967000Y-152804600D01*
X146569700Y-149569400D02*
X144967000Y-151172100D01*
X146569700Y-149089600D02*
X146569700Y-149569400D01*
X151022000Y-144112500D02*
X151022000Y-138500000D01*
X149127800Y-146006700D02*
X151022000Y-144112500D01*
X149079900Y-146006700D02*
X149127800Y-146006700D01*
X141636900Y-145443500D02*
X141636900Y-141266800D01*
X143436200Y-147242800D02*
X141636900Y-145443500D01*
X143436200Y-148232300D02*
X143436200Y-147242800D01*
X143384900Y-148283600D02*
X143436200Y-148232300D01*
X143384900Y-148801600D02*
X143384900Y-148283600D01*
X143751200Y-149167900D02*
X143384900Y-148801600D01*
X144269300Y-149167900D02*
X143751200Y-149167900D01*
X144635500Y-148801700D02*
X144269300Y-149167900D01*
X144635500Y-148437400D02*
X144635500Y-148801700D01*
X145802000Y-147270900D02*
X144635500Y-148437400D01*
X147815700Y-147270900D02*
X145802000Y-147270900D01*
X149079900Y-146006700D02*
X147815700Y-147270900D01*
X134032200Y-135198900D02*
X135468700Y-135198900D01*
X131855000Y-135198900D02*
X134032200Y-135198900D01*
X128635700Y-131979600D02*
X131855000Y-135198900D01*
X128635700Y-129944100D02*
X128635700Y-131979600D01*
X129942200Y-128637600D02*
X128635700Y-129944100D01*
X147717000Y-128637600D02*
X129942200Y-128637600D01*
X148470000Y-129390600D02*
X147717000Y-128637600D01*
X148470000Y-130609900D02*
X148470000Y-129390600D01*
X149348200Y-131488100D02*
X148470000Y-130609900D01*
X152029200Y-131488100D02*
X149348200Y-131488100D01*
X153615700Y-133074600D02*
X152029200Y-131488100D01*
X134032200Y-135198900D02*
X134032200Y-138670000D01*
X143851400Y-151901200D02*
X143022300Y-151072100D01*
X143851400Y-152398800D02*
X143851400Y-151901200D01*
X139319000Y-151072100D02*
X136325500Y-154065600D01*
X143022300Y-151072100D02*
X139319000Y-151072100D01*
X146147200Y-147855400D02*
X145779100Y-148223500D01*
X150540000Y-147855400D02*
X146147200Y-147855400D01*
X151510000Y-148825400D02*
X150540000Y-147855400D01*
X153849300Y-148825400D02*
X151510000Y-148825400D01*
X155024700Y-147650000D02*
X153849300Y-148825400D01*
X145706000Y-148223500D02*
X145779100Y-148223500D01*
X145085800Y-148843700D02*
X145706000Y-148223500D01*
X145085800Y-149008600D02*
X145085800Y-148843700D01*
X143022300Y-151072100D02*
X145085800Y-149008600D01*
X156000000Y-147650000D02*
X155512400Y-147650000D01*
X155512400Y-147650000D02*
X155024700Y-147650000D01*
X157264500Y-149402100D02*
X157264500Y-153351700D01*
X155512400Y-147650000D02*
X157264500Y-149402100D01*
X138608400Y-157495800D02*
X137287300Y-156174700D01*
X143609700Y-157495800D02*
X138608400Y-157495800D01*
X144821700Y-156283800D02*
X143609700Y-157495800D01*
X144821700Y-153586800D02*
X144821700Y-156283800D01*
X145592400Y-152816100D02*
X144821700Y-153586800D01*
X145592400Y-152054800D02*
X145592400Y-152816100D01*
X152520600Y-151652600D02*
X155061600Y-151652600D01*
X151972600Y-151104600D02*
X152520600Y-151652600D01*
X151972600Y-151030900D02*
X151972600Y-151104600D01*
X150030100Y-149088400D02*
X151972600Y-151030900D01*
X147250000Y-149088400D02*
X150030100Y-149088400D01*
X147250000Y-150397200D02*
X147250000Y-149088400D01*
X145592400Y-152054800D02*
X147250000Y-150397200D01*
X147250000Y-148630700D02*
X147124600Y-148505300D01*
X147250000Y-149088400D02*
X147250000Y-148630700D01*
X149183900Y-144335100D02*
X149183900Y-139768300D01*
X148459900Y-136540100D02*
X149000000Y-136000000D01*
X148459900Y-140382600D02*
X148459900Y-136540100D01*
X140200000Y-141700000D02*
X139687200Y-142212800D01*
X139687200Y-142212900D02*
X139687200Y-142492900D01*
X139687200Y-142212800D02*
X139687200Y-142212900D01*
X140000000Y-143600000D02*
X139487200Y-144112800D01*
X139753600Y-144379300D02*
X139753600Y-144680600D01*
X139487200Y-144112800D02*
X139753600Y-144379300D01*
X143020900Y-144074700D02*
X143000000Y-144074700D01*
X143208600Y-143887000D02*
X143020900Y-144074700D01*
X143000000Y-145000000D02*
X143000000Y-144074700D01*
X158500000Y-149931200D02*
X158386600Y-149817800D01*
X158500000Y-151500000D02*
X158500000Y-149931200D01*
X154587900Y-144000000D02*
X151862200Y-146725700D01*
X158500000Y-144000000D02*
X154587900Y-144000000D01*
X147852000Y-146245400D02*
X145956900Y-146245400D01*
X149021700Y-145075700D02*
X147852000Y-146245400D01*
X149421400Y-145075700D02*
X149021700Y-145075700D01*
X149849300Y-144647800D02*
X149421400Y-145075700D01*
X149849300Y-141842100D02*
X149849300Y-144647800D01*
X144000000Y-137439100D02*
X144000000Y-133000000D01*
X146257300Y-139696400D02*
X144000000Y-137439100D01*
X156424700Y-131150000D02*
X157500000Y-131150000D01*
X153874800Y-133699900D02*
X156424700Y-131150000D01*
X153356700Y-133699900D02*
X153874800Y-133699900D01*
X153160400Y-133503600D02*
X153356700Y-133699900D01*
X146736800Y-133503600D02*
X153160400Y-133503600D01*
X146065800Y-134174600D02*
X146736800Y-133503600D01*
X145532900Y-134174600D02*
X146065800Y-134174600D01*
X145424700Y-134282800D02*
X145532900Y-134174600D01*
X145424700Y-137950000D02*
X145424700Y-134282800D01*
X147375300Y-140332700D02*
X147375300Y-137950000D01*
X148473200Y-141430600D02*
X147375300Y-140332700D01*
X148473200Y-144770700D02*
X148473200Y-141430600D01*
X147678100Y-145565800D02*
X148473200Y-144770700D01*
X145750200Y-145565800D02*
X147678100Y-145565800D01*
X144010200Y-147305800D02*
X145750200Y-145565800D01*
X144010200Y-148542600D02*
X144010200Y-147305800D01*
X146400000Y-137950000D02*
X147375300Y-137950000D01*
X146400000Y-137950000D02*
X145424700Y-137950000D01*
X161500000Y-135150000D02*
X160524700Y-135150000D01*
X149599800Y-134150200D02*
X149590000Y-134140400D01*
X154161400Y-134150200D02*
X149599800Y-134150200D01*
X155576200Y-132735400D02*
X154161400Y-134150200D01*
X158353900Y-132735400D02*
X155576200Y-132735400D01*
X160524700Y-134906200D02*
X158353900Y-132735400D01*
X160524700Y-135150000D02*
X160524700Y-134906200D01*
X159389400Y-141785300D02*
X160524700Y-140650000D01*
X152865400Y-141785300D02*
X159389400Y-141785300D01*
X152328200Y-142322500D02*
X152865400Y-141785300D01*
X161500000Y-140650000D02*
X160524700Y-140650000D01*
X130500000Y-142350000D02*
X131475300Y-142350000D01*
X133077900Y-142350000D02*
X131475300Y-142350000D01*
X134677600Y-140750300D02*
X133077900Y-142350000D01*
X149442500Y-156231200D02*
X148764200Y-156909500D01*
X149442500Y-150638400D02*
X149442500Y-156231200D01*
M02*
