G04 #@! TF.FileFunction,Copper,L1,Top,Signal*
%FSLAX46Y46*%
G04 Gerber Fmt 4.6, Leading zero omitted, Abs format (unit mm)*
G04 Created by KiCad (PCBNEW (after 2015-mar-04 BZR unknown)-product) date 20/07/2015 3:05:55 PM*
%MOMM*%
G01*
G04 APERTURE LIST*
%ADD10C,0.100000*%
%ADD11R,1.727200X2.032000*%
%ADD12O,1.727200X2.032000*%
%ADD13R,0.600000X1.350000*%
%ADD14R,1.200000X2.000000*%
%ADD15R,1.350000X0.600000*%
%ADD16R,2.000000X1.200000*%
%ADD17R,0.950000X0.299000*%
%ADD18R,0.299000X0.950000*%
%ADD19R,3.350000X3.350000*%
%ADD20R,0.850000X0.299000*%
%ADD21R,0.299000X0.850000*%
%ADD22C,4.064000*%
%ADD23R,2.032000X2.032000*%
%ADD24O,2.032000X2.032000*%
%ADD25O,1.400000X1.000000*%
%ADD26R,0.500000X1.000000*%
%ADD27R,0.600000X0.350000*%
%ADD28R,1.600000X2.100000*%
%ADD29R,0.650000X1.060000*%
%ADD30R,1.400000X1.200000*%
%ADD31R,2.600000X1.900000*%
%ADD32R,1.500000X1.250000*%
%ADD33R,1.250000X1.500000*%
%ADD34R,1.350000X0.400000*%
%ADD35O,0.950000X1.250000*%
%ADD36O,1.550000X1.000000*%
%ADD37R,1.198880X1.198880*%
%ADD38R,0.800100X0.800100*%
%ADD39R,1.300000X1.500000*%
%ADD40R,1.500000X1.300000*%
%ADD41R,1.300000X0.250000*%
%ADD42R,0.250000X1.300000*%
%ADD43C,0.600000*%
%ADD44C,0.250000*%
G04 APERTURE END LIST*
D10*
D11*
X134500000Y-130000000D03*
D12*
X137040000Y-130000000D03*
X139580000Y-130000000D03*
X142120000Y-130000000D03*
X144660000Y-130000000D03*
X147200000Y-130000000D03*
X149740000Y-130000000D03*
X152280000Y-130000000D03*
D13*
X156000000Y-133500000D03*
X157000000Y-133500000D03*
D14*
X154700000Y-129800000D03*
X158300000Y-129800000D03*
D15*
X158500000Y-153500000D03*
X158500000Y-154500000D03*
X158500000Y-155500000D03*
X158500000Y-156500000D03*
D16*
X162200000Y-152200000D03*
X162200000Y-157800000D03*
D15*
X158500000Y-146000000D03*
X158500000Y-147000000D03*
X158500000Y-148000000D03*
X158500000Y-149000000D03*
D16*
X162200000Y-144700000D03*
X162200000Y-150300000D03*
D15*
X158500000Y-137500000D03*
X158500000Y-138500000D03*
X158500000Y-139500000D03*
X158500000Y-140500000D03*
X158500000Y-141500000D03*
D16*
X162200000Y-136200000D03*
X162200000Y-142800000D03*
D15*
X133000000Y-140500000D03*
X133000000Y-141500000D03*
X133000000Y-142500000D03*
D16*
X129400000Y-139200000D03*
X129400000Y-143800000D03*
D13*
X135000000Y-159000000D03*
X136000000Y-159000000D03*
X137000000Y-159000000D03*
X138000000Y-159000000D03*
X139000000Y-159000000D03*
X140000000Y-159000000D03*
X141000000Y-159000000D03*
X142000000Y-159000000D03*
X143000000Y-159000000D03*
X144000000Y-159000000D03*
D14*
X145200000Y-162700000D03*
X133700000Y-162700000D03*
D17*
X135550000Y-136000000D03*
X135550000Y-136500000D03*
X135550000Y-137000000D03*
X135550000Y-137500000D03*
X135550000Y-138000000D03*
X135550000Y-138500000D03*
X135550000Y-139000000D03*
D18*
X136500000Y-139950000D03*
X137000000Y-139950000D03*
X137500000Y-139950000D03*
X138000000Y-139950000D03*
X138500000Y-139950000D03*
X139000000Y-139950000D03*
X139500000Y-139950000D03*
D17*
X140450000Y-139000000D03*
X140450000Y-138500000D03*
X140450000Y-138000000D03*
X140450000Y-137500000D03*
X140450000Y-137000000D03*
X140450000Y-136500000D03*
X140450000Y-136000000D03*
D18*
X139500000Y-135050000D03*
X139000000Y-135050000D03*
X138500000Y-135050000D03*
X138000000Y-135050000D03*
X137500000Y-135050000D03*
X137000000Y-135050000D03*
X136500000Y-135050000D03*
D19*
X138000000Y-137500000D03*
D20*
X144500000Y-153750000D03*
X144500000Y-154250000D03*
X144500000Y-154750000D03*
X144500000Y-155250000D03*
X144500000Y-155750000D03*
X144500000Y-156250000D03*
D21*
X145250000Y-157000000D03*
X145750000Y-157000000D03*
X146250000Y-157000000D03*
X146750000Y-157000000D03*
X147250000Y-157000000D03*
X147750000Y-157000000D03*
D20*
X148500000Y-156250000D03*
X148500000Y-155750000D03*
X148500000Y-155250000D03*
X148500000Y-154750000D03*
X148500000Y-154250000D03*
X148500000Y-153750000D03*
D21*
X147750000Y-153000000D03*
X147250000Y-153000000D03*
X146750000Y-153000000D03*
X146250000Y-153000000D03*
X145750000Y-153000000D03*
X145250000Y-153000000D03*
D22*
X131000000Y-161000000D03*
D23*
X155000000Y-137000000D03*
D24*
X152460000Y-137000000D03*
D25*
X144000000Y-133000000D03*
X145700000Y-133000000D03*
D22*
X161000000Y-161000000D03*
X131000000Y-131000000D03*
X161000000Y-131000000D03*
D26*
X134750000Y-155000000D03*
X133500000Y-155000000D03*
X132250000Y-155000000D03*
X131000000Y-155000000D03*
X131000000Y-157000000D03*
X132250000Y-157000000D03*
X133500000Y-157000000D03*
X134750000Y-157000000D03*
D27*
X155100000Y-159550000D03*
X155100000Y-161450000D03*
X155100000Y-160500000D03*
X157900000Y-161450000D03*
X157900000Y-160500000D03*
X157900000Y-159550000D03*
D28*
X156500000Y-160500000D03*
D29*
X153550000Y-149600000D03*
X154500000Y-149600000D03*
X155450000Y-149600000D03*
X155450000Y-147400000D03*
X153550000Y-147400000D03*
D30*
X129600000Y-134700000D03*
X129600000Y-136900000D03*
X132200000Y-135800000D03*
D31*
X137300000Y-147550000D03*
X137300000Y-143250000D03*
D32*
X140750000Y-154000000D03*
X138250000Y-154000000D03*
D33*
X148000000Y-159750000D03*
X148000000Y-162250000D03*
X150500000Y-159750000D03*
X150500000Y-162250000D03*
D32*
X143750000Y-138000000D03*
X146250000Y-138000000D03*
D34*
X133462540Y-148099100D03*
X133462540Y-148749100D03*
X133462540Y-149399100D03*
X133462540Y-150049100D03*
X133462540Y-150699100D03*
D35*
X133462540Y-146899100D03*
X133462540Y-151899100D03*
D36*
X130762540Y-145899100D03*
X130762540Y-152899100D03*
D37*
X153450980Y-140500000D03*
X155549020Y-140500000D03*
X153450980Y-144500000D03*
X155549020Y-144500000D03*
X153450980Y-142500000D03*
X155549020Y-142500000D03*
D38*
X150499240Y-132550000D03*
X150499240Y-134450000D03*
X152498220Y-133500000D03*
D39*
X149000000Y-138350000D03*
X149000000Y-135650000D03*
X155500000Y-155850000D03*
X155500000Y-153150000D03*
D40*
X139350000Y-150800000D03*
X136650000Y-150800000D03*
D39*
X153000000Y-153150000D03*
X153000000Y-155850000D03*
D40*
X143650000Y-135500000D03*
X146350000Y-135500000D03*
D41*
X141650000Y-143150000D03*
X141650000Y-143650000D03*
X141650000Y-144150000D03*
X141650000Y-144650000D03*
X141650000Y-145150000D03*
X141650000Y-145650000D03*
X141650000Y-146150000D03*
X141650000Y-146650000D03*
X141650000Y-147150000D03*
X141650000Y-147650000D03*
X141650000Y-148150000D03*
X141650000Y-148650000D03*
D42*
X143250000Y-150250000D03*
X143750000Y-150250000D03*
X144250000Y-150250000D03*
X144750000Y-150250000D03*
X145250000Y-150250000D03*
X145750000Y-150250000D03*
X146250000Y-150250000D03*
X146750000Y-150250000D03*
X147250000Y-150250000D03*
X147750000Y-150250000D03*
X148250000Y-150250000D03*
X148750000Y-150250000D03*
D41*
X150350000Y-148650000D03*
X150350000Y-148150000D03*
X150350000Y-147650000D03*
X150350000Y-147150000D03*
X150350000Y-146650000D03*
X150350000Y-146150000D03*
X150350000Y-145650000D03*
X150350000Y-145150000D03*
X150350000Y-144650000D03*
X150350000Y-144150000D03*
X150350000Y-143650000D03*
X150350000Y-143150000D03*
D42*
X148750000Y-141550000D03*
X148250000Y-141550000D03*
X147750000Y-141550000D03*
X147250000Y-141550000D03*
X146750000Y-141550000D03*
X146250000Y-141550000D03*
X145750000Y-141550000D03*
X145250000Y-141550000D03*
X144750000Y-141550000D03*
X144250000Y-141550000D03*
X143750000Y-141550000D03*
X143250000Y-141550000D03*
D43*
X160697400Y-156579200D03*
X149364700Y-159750000D03*
X134289900Y-158015300D03*
X156671900Y-141156500D03*
X159024200Y-157308600D03*
X151750000Y-159752600D03*
X149509600Y-153750000D03*
X156286100Y-148950400D03*
X144049300Y-162218700D03*
X154244500Y-161680200D03*
X154343300Y-155293500D03*
X154592100Y-150667100D03*
X151675100Y-163182500D03*
X152049700Y-149107000D03*
X145620700Y-157939300D03*
X146577600Y-152017300D03*
X149451700Y-154655500D03*
X153866000Y-154568700D03*
X135342000Y-151241900D03*
X137741100Y-149023500D03*
X134126600Y-139249200D03*
X137740300Y-141795000D03*
X130878900Y-136900000D03*
X135646200Y-139682600D03*
X134227600Y-146053000D03*
X134336500Y-144883500D03*
X134336500Y-141514500D03*
X134888400Y-149399100D03*
X134279700Y-137442100D03*
X160060400Y-147762900D03*
X128930000Y-138050000D03*
X133664600Y-158948000D03*
X151994900Y-139899500D03*
X154037300Y-145608400D03*
X157633000Y-142853400D03*
X147825300Y-158244400D03*
X147619400Y-134724100D03*
X145708400Y-145460800D03*
X145636300Y-144061600D03*
X135580400Y-132041100D03*
X145303100Y-139777500D03*
X145506100Y-142760300D03*
X144635200Y-140241600D03*
X141169800Y-131379100D03*
X144439500Y-142707100D03*
X142801000Y-147650000D03*
X136887300Y-157007000D03*
X140256800Y-148840200D03*
X136001400Y-157276100D03*
X142551800Y-152092500D03*
X140389100Y-155969100D03*
X145769300Y-149093900D03*
X143045400Y-155964600D03*
X143349900Y-156765000D03*
X146569700Y-149089600D03*
X157054500Y-146331900D03*
X160240100Y-138804900D03*
X153505100Y-132943600D03*
X142885000Y-134159100D03*
X135234400Y-135331000D03*
X133386700Y-137794200D03*
X148633300Y-145776300D03*
X150793400Y-150642000D03*
X145113900Y-144796400D03*
X157324200Y-153081500D03*
X147370100Y-149099500D03*
X143808100Y-152442200D03*
X136521700Y-153698500D03*
X145592400Y-151958300D03*
X137028900Y-156174700D03*
X149486700Y-152409900D03*
X148021800Y-143633400D03*
X148107700Y-139602400D03*
X148558000Y-140379600D03*
X139687200Y-142492900D03*
X139558800Y-144458700D03*
X142892700Y-143894700D03*
X151642500Y-147855200D03*
X149014000Y-147765700D03*
X151515700Y-144150000D03*
X151209200Y-138619300D03*
X145312400Y-147107500D03*
X153245900Y-135258800D03*
X146103500Y-139888100D03*
X143060800Y-151420600D03*
X147525800Y-136959700D03*
X152306400Y-141137800D03*
X134739000Y-140750300D03*
X148554100Y-148437800D03*
X149676400Y-157072200D03*
D44*
X133500000Y-155000000D02*
X133500000Y-155825300D01*
X153550000Y-147400000D02*
X153550000Y-146544700D01*
X150500000Y-159750000D02*
X150500000Y-158674700D01*
X150500000Y-159750000D02*
X149549700Y-159750000D01*
X149738600Y-156250000D02*
X148500000Y-156250000D01*
X150500000Y-157011400D02*
X149738600Y-156250000D01*
X150500000Y-158674700D02*
X150500000Y-157011400D01*
X149549700Y-159750000D02*
X149364700Y-159750000D01*
X134750000Y-155000000D02*
X134750000Y-154174700D01*
X135181400Y-154174700D02*
X134750000Y-154174700D01*
X135957000Y-154950300D02*
X135181400Y-154174700D01*
X139148400Y-154950300D02*
X135957000Y-154950300D01*
X139674700Y-154424000D02*
X139148400Y-154950300D01*
X139674700Y-154000000D02*
X139674700Y-154424000D01*
X140750000Y-154000000D02*
X139674700Y-154000000D01*
X155938600Y-146544700D02*
X153550000Y-146544700D01*
X157113000Y-145370300D02*
X155938600Y-146544700D01*
X159371700Y-145370300D02*
X157113000Y-145370300D01*
X160697400Y-146696000D02*
X159371700Y-145370300D01*
X160697400Y-156579200D02*
X160697400Y-146696000D01*
X133500000Y-155825300D02*
X133924700Y-155825300D01*
X133924700Y-155825300D02*
X134750000Y-155000000D01*
X134165800Y-157891200D02*
X134289900Y-158015300D01*
X134165800Y-156066400D02*
X134165800Y-157891200D01*
X133924700Y-155825300D02*
X134165800Y-156066400D01*
X152498200Y-133500000D02*
X152498200Y-134225400D01*
X146350000Y-135875000D02*
X146350000Y-136475300D01*
X146250000Y-136575300D02*
X146250000Y-138000000D01*
X146350000Y-136475300D02*
X146250000Y-136575300D01*
X146350000Y-135875000D02*
X146350000Y-135500000D01*
X146350000Y-135500000D02*
X146350000Y-134524700D01*
X152460000Y-137000000D02*
X152460000Y-135658700D01*
X147250000Y-153000000D02*
X147250000Y-152249700D01*
X150350000Y-143650000D02*
X149374700Y-143650000D01*
X143750000Y-142037600D02*
X143750000Y-142525300D01*
X146250000Y-138000000D02*
X145174700Y-138000000D01*
X143750000Y-142037600D02*
X143750000Y-141550000D01*
X143750000Y-139951700D02*
X143750000Y-140574700D01*
X145174700Y-138527000D02*
X143750000Y-139951700D01*
X145174700Y-138000000D02*
X145174700Y-138527000D01*
X143750000Y-141550000D02*
X143750000Y-140574700D01*
X158500000Y-149000000D02*
X159500300Y-149000000D01*
X138250000Y-154000000D02*
X137174700Y-154000000D01*
X133462500Y-150699100D02*
X134462800Y-150699100D01*
X137500000Y-137000000D02*
X135550000Y-137000000D01*
X138000000Y-137500000D02*
X137500000Y-137000000D01*
X135550000Y-137000000D02*
X134749700Y-137000000D01*
X144000000Y-159000000D02*
X144000000Y-160000300D01*
X146250000Y-158558700D02*
X144808400Y-160000300D01*
X146250000Y-157000000D02*
X146250000Y-158558700D01*
X144808400Y-160000300D02*
X144000000Y-160000300D01*
X150500000Y-162250000D02*
X148000000Y-162250000D01*
X147049700Y-162241600D02*
X144808400Y-160000300D01*
X147049700Y-162250000D02*
X147049700Y-162241600D01*
X148000000Y-162250000D02*
X147049700Y-162250000D01*
X158500000Y-141500000D02*
X157499700Y-141500000D01*
X153000000Y-155850000D02*
X152024700Y-155850000D01*
X152498200Y-133500000D02*
X151772900Y-133500000D01*
X147383800Y-133490900D02*
X146350000Y-134524700D01*
X152280000Y-130000000D02*
X151091100Y-130000000D01*
X151091100Y-130691900D02*
X151091100Y-130000000D01*
X149741300Y-132041700D02*
X151091100Y-130691900D01*
X149741300Y-133490900D02*
X149741300Y-132041700D01*
X147383800Y-133490900D02*
X149741300Y-133490900D01*
X151763800Y-133490900D02*
X151772900Y-133500000D01*
X149741300Y-133490900D02*
X151763800Y-133490900D01*
X158500000Y-156500000D02*
X159009200Y-156500000D01*
X159009200Y-156500000D02*
X159500300Y-156500000D01*
X159009200Y-157293600D02*
X159024200Y-157308600D01*
X159009200Y-156500000D02*
X159009200Y-157293600D01*
X133462500Y-150699100D02*
X132462200Y-150699100D01*
X130762500Y-152899100D02*
X130854600Y-152899100D01*
X130854600Y-152899100D02*
X130946700Y-152899100D01*
X152460000Y-134263600D02*
X152460000Y-135658700D01*
X152498200Y-134225400D02*
X152460000Y-134263600D01*
X148500000Y-153750000D02*
X149250300Y-153750000D01*
X156500000Y-160500000D02*
X156500000Y-160837400D01*
X155100000Y-160500000D02*
X155725300Y-160500000D01*
X151750000Y-156124700D02*
X151750000Y-159752600D01*
X152024700Y-155850000D02*
X151750000Y-156124700D01*
X150500000Y-162250000D02*
X151450300Y-162250000D01*
X156500000Y-160837400D02*
X156062700Y-160837400D01*
X156062700Y-160837400D02*
X155725300Y-160500000D01*
X151750000Y-159752600D02*
X151750000Y-161950300D01*
X151750000Y-161950300D02*
X151450300Y-162250000D01*
X132250000Y-155000000D02*
X132250000Y-154174700D01*
X131000000Y-154174700D02*
X132250000Y-154174700D01*
X131000000Y-152952400D02*
X131000000Y-154174700D01*
X130946700Y-152899100D02*
X131000000Y-152952400D01*
X131000000Y-154174700D02*
X131000000Y-155000000D01*
X131000000Y-157000000D02*
X131000000Y-155000000D01*
X133000000Y-141500000D02*
X131999700Y-141500000D01*
X131999700Y-138268200D02*
X131999700Y-141500000D01*
X133451100Y-136816800D02*
X131999700Y-138268200D01*
X134566500Y-136816800D02*
X133451100Y-136816800D01*
X134566500Y-136816800D02*
X134749700Y-137000000D01*
X132462200Y-151291500D02*
X132462200Y-150699100D01*
X130854600Y-152899100D02*
X132462200Y-151291500D01*
X149250300Y-153750000D02*
X149509600Y-153750000D01*
X149250300Y-153558600D02*
X149250300Y-153750000D01*
X149177200Y-153485500D02*
X149250300Y-153558600D01*
X149041100Y-153485500D02*
X149177200Y-153485500D01*
X148411100Y-152855500D02*
X149041100Y-153485500D01*
X148411100Y-152625100D02*
X148411100Y-152855500D01*
X148035700Y-152249700D02*
X148411100Y-152625100D01*
X147250000Y-152249700D02*
X148035700Y-152249700D01*
X156062700Y-161433800D02*
X156062700Y-160837400D01*
X155191000Y-162305500D02*
X156062700Y-161433800D01*
X152105200Y-162305500D02*
X155191000Y-162305500D01*
X151750000Y-161950300D02*
X152105200Y-162305500D01*
X156080400Y-148744700D02*
X154500000Y-148744700D01*
X156286100Y-148950400D02*
X156080400Y-148744700D01*
X154500000Y-149600000D02*
X154500000Y-148744700D01*
X132462200Y-143991300D02*
X132462200Y-150699100D01*
X131999700Y-143528800D02*
X132462200Y-143991300D01*
X131999700Y-141500000D02*
X131999700Y-143528800D01*
X134566500Y-135067600D02*
X134566500Y-136816800D01*
X136410900Y-133223200D02*
X134566500Y-135067600D01*
X142125200Y-133223200D02*
X136410900Y-133223200D01*
X143209200Y-132139200D02*
X142125200Y-133223200D01*
X146247500Y-132139200D02*
X143209200Y-132139200D01*
X147383800Y-133275500D02*
X146247500Y-132139200D01*
X147383800Y-133490900D02*
X147383800Y-133275500D01*
X134462800Y-151288100D02*
X134462800Y-150699100D01*
X136247900Y-153073200D02*
X134462800Y-151288100D01*
X136780800Y-153073200D02*
X136247900Y-153073200D01*
X137174700Y-153467100D02*
X136780800Y-153073200D01*
X137174700Y-154000000D02*
X137174700Y-153467100D01*
X157156200Y-141156500D02*
X156671900Y-141156500D01*
X157499700Y-141500000D02*
X157156200Y-141156500D01*
X143750000Y-142901900D02*
X143750000Y-142525300D01*
X144356000Y-143507800D02*
X143750000Y-142901900D01*
X144429800Y-143434000D02*
X144356000Y-143507800D01*
X144446300Y-143434000D02*
X144429800Y-143434000D01*
X144461500Y-143418800D02*
X144446300Y-143434000D01*
X147352100Y-143418800D02*
X144461500Y-143418800D01*
X147762800Y-143008100D02*
X147352100Y-143418800D01*
X148491200Y-143008100D02*
X147762800Y-143008100D01*
X148901900Y-143418800D02*
X148491200Y-143008100D01*
X149143500Y-143418800D02*
X148901900Y-143418800D01*
X149374700Y-143650000D02*
X149143500Y-143418800D01*
X145960500Y-146638900D02*
X145960500Y-147735300D01*
X144355900Y-145034300D02*
X145960500Y-146638900D01*
X144355900Y-143507900D02*
X144355900Y-145034300D01*
X144356000Y-143507800D02*
X144355900Y-143507900D01*
X146967100Y-147735300D02*
X145960500Y-147735300D01*
X148250000Y-149018200D02*
X146967100Y-147735300D01*
X148250000Y-150250000D02*
X148250000Y-149018200D01*
X143504700Y-146650000D02*
X141650000Y-146650000D01*
X144590000Y-147735300D02*
X143504700Y-146650000D01*
X145960500Y-147735300D02*
X144590000Y-147735300D01*
X159977900Y-149477600D02*
X159500300Y-149000000D01*
X159977900Y-156022400D02*
X159977900Y-149477600D01*
X159500300Y-156500000D02*
X159977900Y-156022400D01*
X132200000Y-135800000D02*
X132200000Y-136725300D01*
X155100000Y-161450000D02*
X154474700Y-161450000D01*
X154244500Y-161680200D02*
X154474700Y-161450000D01*
X154474700Y-159550000D02*
X154474700Y-161450000D01*
X155100000Y-159550000D02*
X154474700Y-159550000D01*
X153550000Y-149600000D02*
X153550000Y-150455300D01*
X155450000Y-149600000D02*
X155450000Y-150455300D01*
X135580500Y-162218700D02*
X144049300Y-162218700D01*
X131603400Y-158241600D02*
X135580500Y-162218700D01*
X131012600Y-158241600D02*
X131603400Y-158241600D01*
X129654400Y-156883400D02*
X131012600Y-158241600D01*
X129654400Y-150314700D02*
X129654400Y-156883400D01*
X131867600Y-148101500D02*
X129654400Y-150314700D01*
X131867600Y-144351900D02*
X131867600Y-148101500D01*
X131504300Y-143988600D02*
X131867600Y-144351900D01*
X131504300Y-137421000D02*
X131504300Y-143988600D01*
X132200000Y-136725300D02*
X131504300Y-137421000D01*
X155554200Y-159095800D02*
X155100000Y-159550000D01*
X157445800Y-159095800D02*
X155554200Y-159095800D01*
X157900000Y-159550000D02*
X157445800Y-159095800D01*
X154343300Y-157884900D02*
X154343300Y-155293500D01*
X155554200Y-159095800D02*
X154343300Y-157884900D01*
X154380300Y-150455300D02*
X153550000Y-150455300D01*
X154592100Y-150667100D02*
X154380300Y-150455300D01*
X154803900Y-150455300D02*
X154592100Y-150667100D01*
X155450000Y-150455300D02*
X154803900Y-150455300D01*
X146750000Y-159450300D02*
X146750000Y-157000000D01*
X147049700Y-159750000D02*
X146750000Y-159450300D01*
X148000000Y-159750000D02*
X147049700Y-159750000D01*
X145158000Y-134367300D02*
X145700000Y-133825300D01*
X145158000Y-135879300D02*
X145158000Y-134367300D01*
X143987600Y-137049700D02*
X145158000Y-135879300D01*
X143750000Y-137049700D02*
X143987600Y-137049700D01*
X143750000Y-138000000D02*
X143750000Y-137049700D01*
X139350000Y-150800000D02*
X139350000Y-149824700D01*
X155549000Y-140500000D02*
X156473700Y-140500000D01*
X158500000Y-140500000D02*
X157499700Y-140500000D01*
X141162400Y-147150000D02*
X140674700Y-147150000D01*
X145700000Y-133000000D02*
X145700000Y-133825300D01*
X141162400Y-147150000D02*
X141650000Y-147150000D01*
X156473700Y-140500000D02*
X157499700Y-140500000D01*
X145750000Y-157000000D02*
X145750000Y-157750300D01*
X145620700Y-157879600D02*
X145620700Y-157939300D01*
X145750000Y-157750300D02*
X145620700Y-157879600D01*
X151984700Y-143150000D02*
X150350000Y-143150000D01*
X152359400Y-143524700D02*
X151984700Y-143150000D01*
X154209300Y-143524700D02*
X152359400Y-143524700D01*
X154624300Y-143939700D02*
X154209300Y-143524700D01*
X154624300Y-144500000D02*
X154624300Y-143939700D01*
X155528700Y-144500000D02*
X154624300Y-144500000D01*
X139350000Y-150800000D02*
X139350000Y-151775300D01*
X158212700Y-161450000D02*
X158212700Y-160500000D01*
X157900000Y-160500000D02*
X158056400Y-160500000D01*
X158056400Y-160500000D02*
X158212700Y-160500000D01*
X156475300Y-156825300D02*
X156475300Y-155850000D01*
X158525400Y-158875400D02*
X156475300Y-156825300D01*
X158525400Y-160031000D02*
X158525400Y-158875400D01*
X158056400Y-160500000D02*
X158525400Y-160031000D01*
X155500000Y-155850000D02*
X156475300Y-155850000D01*
X155528700Y-144500000D02*
X155549000Y-144500000D01*
X148750000Y-150250000D02*
X148750000Y-149274700D01*
X146345200Y-152249700D02*
X146577600Y-152017300D01*
X146250000Y-152249700D02*
X146345200Y-152249700D01*
X146250000Y-153000000D02*
X146250000Y-152249700D01*
X148917700Y-149107000D02*
X152049700Y-149107000D01*
X148750000Y-149274700D02*
X148917700Y-149107000D01*
X155500000Y-155850000D02*
X155500000Y-154774700D01*
X153866000Y-154655500D02*
X153866000Y-154568700D01*
X155380800Y-154655500D02*
X153866000Y-154655500D01*
X155500000Y-154774700D02*
X155380800Y-154655500D01*
X153866000Y-154655500D02*
X149451700Y-154655500D01*
X143750000Y-138000000D02*
X143750000Y-138950300D01*
X135483600Y-151241900D02*
X135342000Y-151241900D01*
X135483600Y-151500600D02*
X135483600Y-151241900D01*
X135758300Y-151775300D02*
X135483600Y-151500600D01*
X139350000Y-151775300D02*
X135758300Y-151775300D01*
X141650000Y-143150000D02*
X142625300Y-143150000D01*
X143250000Y-139450300D02*
X143750000Y-138950300D01*
X143250000Y-141550000D02*
X143250000Y-139450300D01*
X143250000Y-142525300D02*
X142625300Y-143150000D01*
X156167500Y-163182500D02*
X151675100Y-163182500D01*
X157900000Y-161450000D02*
X156167500Y-163182500D01*
X155549000Y-142500000D02*
X155549000Y-142218800D01*
X155549000Y-142218800D02*
X155549000Y-141575300D01*
X157900000Y-161450000D02*
X158212700Y-161450000D01*
X158212700Y-161450000D02*
X158525300Y-161450000D01*
X157946800Y-142218800D02*
X155549000Y-142218800D01*
X158258400Y-142530400D02*
X157946800Y-142218800D01*
X158258400Y-144500000D02*
X158258400Y-142530400D01*
X159179200Y-144500000D02*
X158258400Y-144500000D01*
X163564900Y-148885700D02*
X159179200Y-144500000D01*
X163564900Y-161779100D02*
X163564900Y-148885700D01*
X161980700Y-163363300D02*
X163564900Y-161779100D01*
X159938300Y-163363300D02*
X161980700Y-163363300D01*
X158525300Y-161950300D02*
X159938300Y-163363300D01*
X158525300Y-161450000D02*
X158525300Y-161950300D01*
X158258400Y-144500000D02*
X155549000Y-144500000D01*
X143250000Y-141550000D02*
X143250000Y-142525300D01*
X133000000Y-142500000D02*
X135513800Y-142500000D01*
X135513800Y-142296900D02*
X135513800Y-142500000D01*
X135893700Y-141917000D02*
X135513800Y-142296900D01*
X136684200Y-141917000D02*
X135893700Y-141917000D01*
X137475200Y-141126000D02*
X136684200Y-141917000D01*
X139626000Y-141126000D02*
X137475200Y-141126000D01*
X141650000Y-143150000D02*
X139626000Y-141126000D01*
X135513800Y-151211700D02*
X135483600Y-151241900D01*
X135513800Y-142500000D02*
X135513800Y-151211700D01*
X155985400Y-141575300D02*
X155549000Y-141575300D01*
X156046700Y-141514000D02*
X155985400Y-141575300D01*
X156046700Y-141415600D02*
X156046700Y-141514000D01*
X156046600Y-141415500D02*
X156046700Y-141415600D01*
X156046600Y-140897500D02*
X156046600Y-141415500D01*
X156412900Y-140531200D02*
X156046600Y-140897500D01*
X156442600Y-140531200D02*
X156412900Y-140531200D01*
X156473700Y-140500100D02*
X156442600Y-140531200D01*
X156473700Y-140500000D02*
X156473700Y-140500100D01*
X139631500Y-149543200D02*
X139350000Y-149824700D01*
X139631500Y-148193200D02*
X139631500Y-149543200D01*
X140674700Y-147150000D02*
X139631500Y-148193200D01*
X141650000Y-145650000D02*
X140674700Y-145650000D01*
X137300000Y-147550000D02*
X138112700Y-147550000D01*
X138112700Y-147550000D02*
X138925300Y-147550000D01*
X137741100Y-147921600D02*
X137741100Y-149023500D01*
X138112700Y-147550000D02*
X137741100Y-147921600D01*
X138925300Y-147229000D02*
X138925300Y-147550000D01*
X140504300Y-145650000D02*
X138925300Y-147229000D01*
X140674700Y-145650000D02*
X140504300Y-145650000D01*
X135550000Y-138500000D02*
X134749700Y-138500000D01*
X134749700Y-138626100D02*
X134126600Y-139249200D01*
X134749700Y-138500000D02*
X134749700Y-138626100D01*
X137300000Y-143250000D02*
X137706400Y-143250000D01*
X138796700Y-144272500D02*
X137740300Y-143216100D01*
X138796700Y-144593900D02*
X138796700Y-144272500D01*
X139352800Y-145150000D02*
X138796700Y-144593900D01*
X141650000Y-145150000D02*
X139352800Y-145150000D01*
X137706400Y-143250000D02*
X137740300Y-143216100D01*
X137740300Y-143216100D02*
X137740300Y-141795000D01*
X129600000Y-136900000D02*
X130625300Y-136900000D01*
X130625300Y-136900000D02*
X130878900Y-136900000D01*
X135646200Y-139096200D02*
X135550000Y-139000000D01*
X135646200Y-139682600D02*
X135646200Y-139096200D01*
X135913600Y-139950000D02*
X135646200Y-139682600D01*
X136500000Y-139950000D02*
X135913600Y-139950000D01*
X134314200Y-146139600D02*
X134227600Y-146053000D01*
X134314200Y-147333600D02*
X134314200Y-146139600D01*
X133548700Y-148099100D02*
X134314200Y-147333600D01*
X133462500Y-148099100D02*
X133548700Y-148099100D01*
X134606400Y-138000000D02*
X135550000Y-138000000D01*
X134506100Y-138100300D02*
X134606400Y-138000000D01*
X134362400Y-138100300D02*
X134506100Y-138100300D01*
X133475800Y-138986900D02*
X134362400Y-138100300D01*
X133475800Y-139514000D02*
X133475800Y-138986900D01*
X134043100Y-140081300D02*
X133475800Y-139514000D01*
X134043100Y-141221100D02*
X134043100Y-140081300D01*
X134336500Y-141514500D02*
X134043100Y-141221100D01*
X133462500Y-148749100D02*
X134462800Y-148749100D01*
X134852900Y-145399900D02*
X134336500Y-144883500D01*
X134852900Y-148359000D02*
X134852900Y-145399900D01*
X134462800Y-148749100D02*
X134852900Y-148359000D01*
X134337600Y-137500000D02*
X135550000Y-137500000D01*
X134279700Y-137442100D02*
X134337600Y-137500000D01*
X133462500Y-149399100D02*
X134888400Y-149399100D01*
X149740000Y-130000000D02*
X149145600Y-130000000D01*
X157441500Y-134500300D02*
X156000000Y-134500300D01*
X157677600Y-134264200D02*
X157441500Y-134500300D01*
X157677600Y-132648100D02*
X157677600Y-134264200D01*
X156225100Y-131195600D02*
X157677600Y-132648100D01*
X154033500Y-131195600D02*
X156225100Y-131195600D01*
X153610700Y-130772800D02*
X154033500Y-131195600D01*
X153610700Y-129426000D02*
X153610700Y-130772800D01*
X152818200Y-128633500D02*
X153610700Y-129426000D01*
X150512100Y-128633500D02*
X152818200Y-128633500D01*
X149145600Y-130000000D02*
X150512100Y-128633500D01*
X156000000Y-133500000D02*
X156000000Y-134500300D01*
X159737400Y-147762900D02*
X160060400Y-147762900D01*
X159500300Y-148000000D02*
X159737400Y-147762900D01*
X147482300Y-131663300D02*
X149145600Y-130000000D01*
X142927500Y-131663300D02*
X147482300Y-131663300D01*
X141870000Y-132720800D02*
X142927500Y-131663300D01*
X135507800Y-132720800D02*
X141870000Y-132720800D01*
X133672600Y-134556000D02*
X135507800Y-132720800D01*
X130206600Y-134556000D02*
X133672600Y-134556000D01*
X129600000Y-135162600D02*
X130206600Y-134556000D01*
X129600000Y-134700000D02*
X129600000Y-134931300D01*
X129600000Y-134931300D02*
X129600000Y-135162600D01*
X128574600Y-137694600D02*
X128930000Y-138050000D01*
X128574600Y-135956700D02*
X128574600Y-137694600D01*
X129600000Y-134931300D02*
X128574600Y-135956700D01*
X134544400Y-160000300D02*
X143000000Y-160000300D01*
X133664600Y-159120500D02*
X134544400Y-160000300D01*
X133664600Y-158948000D02*
X133664600Y-159120500D01*
X143000000Y-159000000D02*
X143000000Y-160000300D01*
X158659300Y-148000000D02*
X159500300Y-148000000D01*
X158659300Y-148000000D02*
X158500000Y-148000000D01*
X159500300Y-152814200D02*
X159500300Y-155500000D01*
X157499700Y-150813600D02*
X159500300Y-152814200D01*
X157499700Y-148000000D02*
X157499700Y-150813600D01*
X158500000Y-148000000D02*
X157499700Y-148000000D01*
X158500000Y-155500000D02*
X159500300Y-155500000D01*
X153451000Y-140500000D02*
X152526300Y-140500000D01*
X152526300Y-140430900D02*
X151994900Y-139899500D01*
X152526300Y-140500000D02*
X152526300Y-140430900D01*
X153451000Y-144500000D02*
X153451000Y-145424700D01*
X153853600Y-145424700D02*
X154037300Y-145608400D01*
X153451000Y-145424700D02*
X153853600Y-145424700D01*
X153451000Y-142500000D02*
X154375700Y-142500000D01*
X157061600Y-143424800D02*
X157633000Y-142853400D01*
X154751400Y-143424800D02*
X157061600Y-143424800D01*
X154375700Y-143049100D02*
X154751400Y-143424800D01*
X154375700Y-142500000D02*
X154375700Y-143049100D01*
X147331200Y-157750300D02*
X147825300Y-158244400D01*
X147250000Y-157750300D02*
X147331200Y-157750300D01*
X147250000Y-157000000D02*
X147250000Y-157750300D01*
X147619400Y-136135800D02*
X147619400Y-134724100D01*
X148244400Y-136760800D02*
X147619400Y-136135800D01*
X150269200Y-136760800D02*
X148244400Y-136760800D01*
X151876500Y-138368100D02*
X150269200Y-136760800D01*
X153631900Y-138368100D02*
X151876500Y-138368100D01*
X155000000Y-137000000D02*
X153631900Y-138368100D01*
X150350000Y-146650000D02*
X149374700Y-146650000D01*
X146897600Y-146650000D02*
X145708400Y-145460800D01*
X149374700Y-146650000D02*
X146897600Y-146650000D01*
X147272100Y-144061600D02*
X145636300Y-144061600D01*
X148360500Y-145150000D02*
X147272100Y-144061600D01*
X150350000Y-145150000D02*
X148360500Y-145150000D01*
X144660000Y-130000000D02*
X143471100Y-130000000D01*
X135580400Y-132041000D02*
X135580400Y-132041100D01*
X141912900Y-132041000D02*
X135580400Y-132041000D01*
X143471100Y-130482800D02*
X141912900Y-132041000D01*
X143471100Y-130000000D02*
X143471100Y-130482800D01*
X146250000Y-141550000D02*
X146250000Y-140574700D01*
X145818800Y-139261800D02*
X145303100Y-139777500D01*
X146363900Y-139261800D02*
X145818800Y-139261800D01*
X146728800Y-139626700D02*
X146363900Y-139261800D01*
X146728800Y-140158700D02*
X146728800Y-139626700D01*
X146312800Y-140574700D02*
X146728800Y-140158700D01*
X146250000Y-140574700D02*
X146312800Y-140574700D01*
X145750000Y-141550000D02*
X145750000Y-142525300D01*
X145515000Y-142760300D02*
X145506100Y-142760300D01*
X145750000Y-142525300D02*
X145515000Y-142760300D01*
X137040000Y-130000000D02*
X138228900Y-130000000D01*
X144750000Y-141550000D02*
X144750000Y-140574700D01*
X144635200Y-140459900D02*
X144635200Y-140241600D01*
X144750000Y-140574700D02*
X144635200Y-140459900D01*
X141169800Y-131379000D02*
X141169800Y-131379100D01*
X139087800Y-131379000D02*
X141169800Y-131379000D01*
X138228900Y-130520100D02*
X139087800Y-131379000D01*
X138228900Y-130000000D02*
X138228900Y-130520100D01*
X144257700Y-142525300D02*
X144439500Y-142707100D01*
X144250000Y-142525300D02*
X144257700Y-142525300D01*
X144250000Y-141550000D02*
X144250000Y-142525300D01*
X157000000Y-133053700D02*
X157000000Y-133500000D01*
X156258400Y-132312100D02*
X157000000Y-133053700D01*
X151462500Y-132312100D02*
X156258400Y-132312100D01*
X151224600Y-132550000D02*
X151462500Y-132312100D01*
X150499200Y-132550000D02*
X151224600Y-132550000D01*
X135000000Y-159000000D02*
X135000000Y-157999700D01*
X141650000Y-147650000D02*
X142625300Y-147650000D01*
X142625300Y-147650000D02*
X142801000Y-147650000D01*
X135359300Y-157640400D02*
X135000000Y-157999700D01*
X135359300Y-157033900D02*
X135359300Y-157640400D01*
X135742400Y-156650800D02*
X135359300Y-157033900D01*
X136531100Y-156650800D02*
X135742400Y-156650800D01*
X136887300Y-157007000D02*
X136531100Y-156650800D01*
X136001400Y-157998300D02*
X136000000Y-157999700D01*
X136001400Y-157276100D02*
X136001400Y-157998300D01*
X136000000Y-159000000D02*
X136000000Y-157999700D01*
X141650000Y-148150000D02*
X140674700Y-148150000D01*
X140674700Y-148422300D02*
X140256800Y-148840200D01*
X140674700Y-148150000D02*
X140674700Y-148422300D01*
X140012000Y-154987700D02*
X137000000Y-157999700D01*
X141630500Y-154987700D02*
X140012000Y-154987700D01*
X141825400Y-154792800D02*
X141630500Y-154987700D01*
X141825400Y-153045700D02*
X141825400Y-154792800D01*
X141475900Y-152696200D02*
X141825400Y-153045700D01*
X141475900Y-148824100D02*
X141475900Y-152696200D01*
X141650000Y-148650000D02*
X141475900Y-148824100D01*
X137000000Y-159000000D02*
X137000000Y-157999700D01*
X138358500Y-157999700D02*
X138000000Y-157999700D01*
X140389100Y-155969100D02*
X138358500Y-157999700D01*
X138000000Y-159000000D02*
X138000000Y-157999700D01*
X142420100Y-151960800D02*
X142551800Y-152092500D01*
X142420100Y-151079900D02*
X142420100Y-151960800D01*
X143250000Y-150250000D02*
X142420100Y-151079900D01*
X139255400Y-157999700D02*
X139000000Y-157999700D01*
X142280600Y-154974500D02*
X139255400Y-157999700D01*
X142280600Y-152864000D02*
X142280600Y-154974500D01*
X141926300Y-152509700D02*
X142280600Y-152864000D01*
X141926300Y-150318600D02*
X141926300Y-152509700D01*
X142970200Y-149274700D02*
X141926300Y-150318600D01*
X144750000Y-149274700D02*
X142970200Y-149274700D01*
X144750000Y-150250000D02*
X144750000Y-149274700D01*
X139000000Y-159000000D02*
X139000000Y-157999700D01*
X145250000Y-150250000D02*
X145250000Y-151225300D01*
X140000000Y-159000000D02*
X140000000Y-157999700D01*
X144700400Y-151774900D02*
X145250000Y-151225300D01*
X143590900Y-151774900D02*
X144700400Y-151774900D01*
X143177300Y-152188500D02*
X143590900Y-151774900D01*
X143177300Y-154822400D02*
X143177300Y-152188500D01*
X140000000Y-157999700D02*
X143177300Y-154822400D01*
X145750000Y-150250000D02*
X145750000Y-149274700D01*
X141000000Y-159000000D02*
X141000000Y-157999700D01*
X145750000Y-149113200D02*
X145769300Y-149093900D01*
X145750000Y-149274700D02*
X145750000Y-149113200D01*
X143035100Y-155964600D02*
X143045400Y-155964600D01*
X141000000Y-157999700D02*
X143035100Y-155964600D01*
X142000000Y-159000000D02*
X142000000Y-157999700D01*
X146569700Y-149191200D02*
X146569700Y-149089600D01*
X146250000Y-149510900D02*
X146569700Y-149191200D01*
X146250000Y-150250000D02*
X146250000Y-149510900D01*
X143234700Y-156765000D02*
X143349900Y-156765000D01*
X142000000Y-157999700D02*
X143234700Y-156765000D01*
X150350000Y-146150000D02*
X151325300Y-146150000D01*
X158500000Y-146000000D02*
X157499700Y-146000000D01*
X155512200Y-134950700D02*
X153505100Y-132943600D01*
X158084500Y-134950700D02*
X155512200Y-134950700D01*
X160240100Y-137106300D02*
X158084500Y-134950700D01*
X160240100Y-138804900D02*
X160240100Y-137106300D01*
X138090600Y-134159100D02*
X138000000Y-134249700D01*
X142885000Y-134159100D02*
X138090600Y-134159100D01*
X138000000Y-135050000D02*
X138000000Y-134249700D01*
X157386400Y-146000000D02*
X157054500Y-146331900D01*
X157499700Y-146000000D02*
X157386400Y-146000000D01*
X151325300Y-146521800D02*
X151325300Y-146150000D01*
X153058900Y-148255400D02*
X151325300Y-146521800D01*
X155946700Y-148255400D02*
X153058900Y-148255400D01*
X156535400Y-147666700D02*
X155946700Y-148255400D01*
X156535400Y-146851000D02*
X156535400Y-147666700D01*
X157054500Y-146331900D02*
X156535400Y-146851000D01*
X137500000Y-135050000D02*
X137500000Y-134249700D01*
X133000000Y-138180900D02*
X133386700Y-137794200D01*
X133000000Y-140500000D02*
X133000000Y-138180900D01*
X148633300Y-145776300D02*
X148633300Y-145713100D01*
X148696400Y-145650000D02*
X150350000Y-145650000D01*
X148633300Y-145713100D02*
X148696400Y-145650000D01*
X135234400Y-135181600D02*
X135234400Y-135331000D01*
X136166300Y-134249700D02*
X135234400Y-135181600D01*
X137500000Y-134249700D02*
X136166300Y-134249700D01*
X158500000Y-147000000D02*
X157499700Y-147000000D01*
X146396600Y-144796400D02*
X145113900Y-144796400D01*
X147313300Y-145713100D02*
X146396600Y-144796400D01*
X148633300Y-145713100D02*
X147313300Y-145713100D01*
X151472400Y-151321000D02*
X150793400Y-150642000D01*
X155227000Y-151321000D02*
X151472400Y-151321000D01*
X156985700Y-149562300D02*
X155227000Y-151321000D01*
X156985700Y-147514000D02*
X156985700Y-149562300D01*
X157499700Y-147000000D02*
X156985700Y-147514000D01*
X158500000Y-153500000D02*
X157499700Y-153500000D01*
X157499700Y-153257000D02*
X157324200Y-153081500D01*
X157499700Y-153500000D02*
X157499700Y-153257000D01*
X147750000Y-150250000D02*
X147750000Y-149274700D01*
X147545300Y-149274700D02*
X147370100Y-149099500D01*
X147750000Y-149274700D02*
X147545300Y-149274700D01*
X133535800Y-153698500D02*
X136521700Y-153698500D01*
X132924600Y-154309700D02*
X133535800Y-153698500D01*
X132924600Y-156424600D02*
X132924600Y-154309700D01*
X133500000Y-157000000D02*
X132924600Y-156424600D01*
X144365900Y-153000000D02*
X143808100Y-152442200D01*
X145250000Y-153000000D02*
X144365900Y-153000000D01*
X158500000Y-154500000D02*
X157499700Y-154500000D01*
X155781700Y-153150000D02*
X156475300Y-153150000D01*
X155781700Y-153150000D02*
X155500000Y-153150000D01*
X157499700Y-154174400D02*
X157499700Y-154500000D01*
X156475300Y-153150000D02*
X157499700Y-154174400D01*
X155500000Y-153150000D02*
X154524700Y-153150000D01*
X145750000Y-153000000D02*
X145750000Y-152249700D01*
X134750000Y-157000000D02*
X134750000Y-156174700D01*
X154524700Y-152764300D02*
X154524700Y-153150000D01*
X153797200Y-152036800D02*
X154524700Y-152764300D01*
X149486700Y-152036800D02*
X153797200Y-152036800D01*
X148675300Y-151225400D02*
X149486700Y-152036800D01*
X147475300Y-151225400D02*
X148675300Y-151225400D01*
X147250000Y-151000100D02*
X147475300Y-151225400D01*
X147250000Y-150250000D02*
X147250000Y-151000100D01*
X149486700Y-152036800D02*
X149486700Y-152409900D01*
X145592400Y-152092100D02*
X145592400Y-151958300D01*
X145750000Y-152249700D02*
X145592400Y-152092100D01*
X134750000Y-156174700D02*
X137028900Y-156174700D01*
X149000000Y-138350000D02*
X149000000Y-139425300D01*
X150350000Y-144650000D02*
X149374700Y-144650000D01*
X148358100Y-143633400D02*
X148021800Y-143633400D01*
X149374700Y-144650000D02*
X148358100Y-143633400D01*
X148284800Y-139425300D02*
X148107700Y-139602400D01*
X149000000Y-139425300D02*
X148284800Y-139425300D01*
X148250000Y-141550000D02*
X148250000Y-140574700D01*
X148362900Y-140574700D02*
X148558000Y-140379600D01*
X148250000Y-140574700D02*
X148362900Y-140574700D01*
X141650000Y-143650000D02*
X140674700Y-143650000D01*
X140674700Y-143480400D02*
X139687200Y-142492900D01*
X140674700Y-143650000D02*
X140674700Y-143480400D01*
X139867500Y-144150000D02*
X139558800Y-144458700D01*
X141650000Y-144150000D02*
X139867500Y-144150000D01*
X141650000Y-144650000D02*
X142625300Y-144650000D01*
X142625300Y-144162100D02*
X142892700Y-143894700D01*
X142625300Y-144650000D02*
X142625300Y-144162100D01*
X150350000Y-147650000D02*
X151325300Y-147650000D01*
X151437300Y-147650000D02*
X151642500Y-147855200D01*
X151325300Y-147650000D02*
X151437300Y-147650000D01*
X150350000Y-147150000D02*
X149374700Y-147150000D01*
X149374700Y-147405000D02*
X149014000Y-147765700D01*
X149374700Y-147150000D02*
X149374700Y-147405000D01*
X157116000Y-137500000D02*
X158500000Y-137500000D01*
X155797500Y-138818500D02*
X157116000Y-137500000D01*
X151408400Y-138818500D02*
X155797500Y-138818500D01*
X151209200Y-138619300D02*
X151408400Y-138818500D01*
X150350000Y-144150000D02*
X151515700Y-144150000D01*
X158500000Y-138500000D02*
X157499700Y-138500000D01*
X156730800Y-139268900D02*
X157499700Y-138500000D01*
X151031100Y-139268900D02*
X156730800Y-139268900D01*
X148750000Y-141550000D02*
X151031100Y-139268900D01*
X159500300Y-137003400D02*
X159500300Y-139500000D01*
X157898000Y-135401100D02*
X159500300Y-137003400D01*
X153388200Y-135401100D02*
X157898000Y-135401100D01*
X153245900Y-135258800D02*
X153388200Y-135401100D01*
X158500000Y-139500000D02*
X159500300Y-139500000D01*
X144354900Y-146150000D02*
X141650000Y-146150000D01*
X145312400Y-147107500D02*
X144354900Y-146150000D01*
X137725300Y-149968300D02*
X137725300Y-150800000D01*
X139181100Y-148512500D02*
X137725300Y-149968300D01*
X139181100Y-147931100D02*
X139181100Y-148512500D01*
X140674700Y-146437500D02*
X139181100Y-147931100D01*
X140674700Y-146150000D02*
X140674700Y-146437500D01*
X141650000Y-146150000D02*
X140674700Y-146150000D01*
X136650000Y-150800000D02*
X137725300Y-150800000D01*
X144000000Y-133000000D02*
X144000000Y-133825300D01*
X144000000Y-134174700D02*
X143650000Y-134524700D01*
X144000000Y-133825300D02*
X144000000Y-134174700D01*
X143650000Y-135256100D02*
X143650000Y-134524700D01*
X143650000Y-135500000D02*
X143650000Y-135256100D01*
X145250000Y-141550000D02*
X145250000Y-140574700D01*
X145416900Y-140574700D02*
X146103500Y-139888100D01*
X145250000Y-140574700D02*
X145416900Y-140574700D01*
X150449900Y-135175400D02*
X150499200Y-135175400D01*
X149975300Y-135650000D02*
X150449900Y-135175400D01*
X149000000Y-135650000D02*
X149975300Y-135650000D01*
X150499200Y-134450000D02*
X150499200Y-135175400D01*
X143750000Y-150250000D02*
X143750000Y-151225300D01*
X143256100Y-151225300D02*
X143060800Y-151420600D01*
X143750000Y-151225300D02*
X143256100Y-151225300D01*
X147250000Y-140288300D02*
X147250000Y-141550000D01*
X147482400Y-140055900D02*
X147250000Y-140288300D01*
X147482400Y-137003100D02*
X147482400Y-140055900D01*
X147525800Y-136959700D02*
X147482400Y-137003100D01*
X150918900Y-142525300D02*
X152306400Y-141137800D01*
X147750000Y-142525300D02*
X150918900Y-142525300D01*
X147750000Y-141550000D02*
X147750000Y-142525300D01*
X137000000Y-139950000D02*
X137000000Y-140750300D01*
X137000000Y-140750300D02*
X134739000Y-140750300D01*
X146750000Y-150250000D02*
X146750000Y-151225300D01*
X153000000Y-153150000D02*
X152024700Y-153150000D01*
X151909900Y-153035200D02*
X152024700Y-153150000D01*
X149227700Y-153035200D02*
X151909900Y-153035200D01*
X148861400Y-152668900D02*
X149227700Y-153035200D01*
X148861400Y-152437500D02*
X148861400Y-152668900D01*
X148099600Y-151675700D02*
X148861400Y-152437500D01*
X147200400Y-151675700D02*
X148099600Y-151675700D01*
X146750000Y-151225300D02*
X147200400Y-151675700D01*
X147822200Y-157072200D02*
X147750000Y-157000000D01*
X149676400Y-157072200D02*
X147822200Y-157072200D01*
X149514100Y-148150000D02*
X150350000Y-148150000D01*
X149226300Y-148437800D02*
X149514100Y-148150000D01*
X148554100Y-148437800D02*
X149226300Y-148437800D01*
M02*
