G04 #@! TF.FileFunction,Soldermask,Bot*
%FSLAX46Y46*%
G04 Gerber Fmt 4.6, Leading zero omitted, Abs format (unit mm)*
G04 Created by KiCad (PCBNEW (after 2015-mar-04 BZR unknown)-product) date 20/07/2015 3:05:55 PM*
%MOMM*%
G01*
G04 APERTURE LIST*
%ADD10C,0.100000*%
%ADD11C,0.800000*%
%ADD12O,0.800000X1.200000*%
%ADD13R,1.727200X2.032000*%
%ADD14O,1.727200X2.032000*%
%ADD15C,4.064000*%
%ADD16R,2.032000X2.032000*%
%ADD17O,2.032000X2.032000*%
%ADD18O,1.400000X1.000000*%
%ADD19R,0.800000X0.800000*%
%ADD20C,1.800000*%
%ADD21R,1.250000X1.500000*%
%ADD22R,1.500000X1.250000*%
%ADD23O,0.950000X1.250000*%
%ADD24O,1.550000X1.000000*%
%ADD25R,1.300000X1.500000*%
G04 APERTURE END LIST*
D10*
D11*
X140058579Y-141558579D02*
X140341421Y-141841421D01*
X139858579Y-143458579D02*
X140141421Y-143741421D01*
D12*
X143000000Y-145000000D03*
D13*
X134500000Y-130000000D03*
D14*
X137040000Y-130000000D03*
X139580000Y-130000000D03*
X142120000Y-130000000D03*
X144660000Y-130000000D03*
X147200000Y-130000000D03*
X149740000Y-130000000D03*
X152280000Y-130000000D03*
D15*
X131000000Y-161000000D03*
D16*
X155000000Y-137000000D03*
D17*
X152460000Y-137000000D03*
D18*
X144000000Y-133000000D03*
X145700000Y-133000000D03*
D19*
X147100000Y-160700000D03*
X145900000Y-160700000D03*
X145900000Y-159400000D03*
X147100000Y-159400000D03*
D15*
X161000000Y-161000000D03*
X131000000Y-131000000D03*
X161000000Y-131000000D03*
D20*
X158500000Y-144000000D03*
X158500000Y-151500000D03*
X149000000Y-136000000D03*
D21*
X130500000Y-157650000D03*
X130500000Y-155150000D03*
X153000000Y-162250000D03*
X153000000Y-159750000D03*
X157400000Y-162450000D03*
X157400000Y-159950000D03*
D22*
X141750000Y-162500000D03*
X139250000Y-162500000D03*
D21*
X153000000Y-150250000D03*
X153000000Y-147750000D03*
D22*
X160350000Y-157900000D03*
X162850000Y-157900000D03*
D21*
X136600000Y-149150000D03*
X136600000Y-146650000D03*
X130700000Y-150650000D03*
X130700000Y-148150000D03*
X136600000Y-142050000D03*
X136600000Y-144550000D03*
D23*
X133462540Y-146899100D03*
X133462540Y-151899100D03*
D24*
X130762540Y-145899100D03*
X130762540Y-152899100D03*
D25*
X157500000Y-133850000D03*
X157500000Y-131150000D03*
X146400000Y-137950000D03*
X146400000Y-135250000D03*
X156000000Y-150350000D03*
X156000000Y-147650000D03*
X161500000Y-146150000D03*
X161500000Y-148850000D03*
X161500000Y-137850000D03*
X161500000Y-135150000D03*
X161500000Y-143350000D03*
X161500000Y-140650000D03*
X130500000Y-139650000D03*
X130500000Y-142350000D03*
M02*
